<svg xmlns="http://www.w3.org/2000/svg" xmlns:xlink="http://www.w3.org/1999/xlink" xmlns:lucid="lucid" width="1740" height="800"><g transform="translate(-20 -100)" lucid:page-tab-id="HWEp-vi-RSFO"><path d="M40 405.5h620v197H40z" stroke="#333" stroke-width="3" fill="#fff"/><path d="M40 464.7h620" stroke="#333" stroke-width="3" fill="none"/><use xlink:href="#a" transform="matrix(1,0,0,1,48,413.5) translate(247.05 14.799999999999999)"/><use xlink:href="#b" transform="matrix(1,0,0,1,48,413.5) translate(316 14.799999999999999)"/><use xlink:href="#c" transform="matrix(1,0,0,1,48,413.5) translate(279.175 36.4)"/><use xlink:href="#d" transform="matrix(1,0,0,1,52,472.7) translate(0 32.19999999999999)"/><use xlink:href="#e" transform="matrix(1,0,0,1,52,472.7) translate(15.5 32.19999999999999)"/><use xlink:href="#f" transform="matrix(1,0,0,1,52,472.7) translate(186.79999999999998 32.19999999999999)"/><use xlink:href="#d" transform="matrix(1,0,0,1,52,472.7) translate(0 53.79999999999999)"/><use xlink:href="#g" transform="matrix(1,0,0,1,52,472.7) translate(15.5 53.79999999999999)"/><use xlink:href="#d" transform="matrix(1,0,0,1,52,472.7) translate(0 75.39999999999999)"/><use xlink:href="#h" transform="matrix(1,0,0,1,52,472.7) translate(15.5 75.39999999999999)"/><use xlink:href="#i" transform="matrix(1,0,0,1,52,472.7) translate(228.54999999999998 75.39999999999999)"/><use xlink:href="#j" transform="matrix(1,0,0,1,52,472.7) translate(288.45 75.39999999999999)"/><use xlink:href="#k" transform="matrix(1,0,0,1,52,472.7) translate(346.9 75.39999999999999)"/><use xlink:href="#d" transform="matrix(1,0,0,1,52,472.7) translate(0 97)"/><use xlink:href="#l" transform="matrix(1,0,0,1,52,472.7) translate(15.5 97)"/><use xlink:href="#m" transform="matrix(1,0,0,1,52,472.7) translate(488.8999999999999 97)"/><path d="M140 683h400v197H140z" stroke="#333" stroke-width="3" fill="#fff"/><path d="M140 720.6h400M140 821.9h400" stroke="#333" stroke-width="3" fill="none"/><use xlink:href="#n" transform="matrix(1,0,0,1,148,691) translate(136.27499999999998 14.6)"/><use xlink:href="#o" transform="matrix(1,0,0,1,152,728.6) translate(0 25)"/><use xlink:href="#p" transform="matrix(1,0,0,1,152,728.6) translate(129.4 25)"/><use xlink:href="#q" transform="matrix(1,0,0,1,152,728.6) translate(144.9 25)"/><use xlink:href="#r" transform="matrix(1,0,0,1,152,728.6) translate(0 46.6)"/><use xlink:href="#s" transform="matrix(1,0,0,1,152,728.6) translate(0 68.2)"/><use xlink:href="#t" transform="matrix(1,0,0,1,152,829.9) translate(0 25.1)"/><use xlink:href="#u" transform="matrix(1,0,0,1,152,829.9) translate(10.95 25.1)"/><use xlink:href="#v" transform="matrix(1,0,0,1,152,829.9) translate(179 25.1)"/><use xlink:href="#w" transform="matrix(1,0,0,1,152,829.9) translate(238.95 25.1)"/><use xlink:href="#x" transform="matrix(1,0,0,1,152,829.9) translate(286.95 25.1)"/><path d="M940 411.5V307.46" stroke="#333" stroke-width="3" fill="none"/><path d="M941.5 413h-3v-1.54h3z" stroke="#333" stroke-width=".05" fill="#333"/><path d="M940 284.45l12.73 21.5h-25.46z" stroke="#333" stroke-width="3" fill="#fff"/><path d="M340 680l-.03-50.03" stroke="#333" stroke-width="3" fill="none"/><path d="M341.5 681.5h-3v-1.54h3z" stroke="#333" stroke-width=".05" fill="#333"/><path d="M339.95 606.95l12.74 21.5-25.46.02zM760 159h360v121H760z" stroke="#333" stroke-width="3" fill="#fff"/><path d="M760 218.2h360" stroke="#333" stroke-width="3" fill="none"/><use xlink:href="#y" transform="matrix(1,0,0,1,768,166.99999999999997) translate(127.55 14.799999999999999)"/><use xlink:href="#z" transform="matrix(1,0,0,1,768,166.99999999999997) translate(119.725 36.4)"/><use xlink:href="#A" transform="matrix(1,0,0,1,772,226.2) translate(0 26.6)"/><use xlink:href="#B" transform="matrix(1,0,0,1,772,226.2) translate(15.5 26.6)"/><path d="M95 120h510v199H95z" stroke="#333" stroke-width="3" fill="#fff"/><path d="M95 157.6h510M95 216.7h510" stroke="#333" stroke-width="3" fill="none"/><use xlink:href="#C" transform="matrix(1,0,0,1,103,128) translate(171.825 14.6)"/><use xlink:href="#D" transform="matrix(1,0,0,1,107,165.6) translate(0 25.6)"/><use xlink:href="#E" transform="matrix(1,0,0,1,107,165.6) translate(10.95 25.6)"/><use xlink:href="#F" transform="matrix(1,0,0,1,107,165.6) translate(160.75 25.6)"/><use xlink:href="#A" transform="matrix(1,0,0,1,107,224.7) translate(0 25.5)"/><use xlink:href="#G" transform="matrix(1,0,0,1,107,224.7) translate(15.5 25.5)"/><use xlink:href="#H" transform="matrix(1,0,0,1,107,224.7) translate(219.9 25.5)"/><use xlink:href="#A" transform="matrix(1,0,0,1,107,224.7) translate(0 47.1)"/><use xlink:href="#I" transform="matrix(1,0,0,1,107,224.7) translate(15.5 47.1)"/><use xlink:href="#A" transform="matrix(1,0,0,1,107,224.7) translate(0 68.7)"/><use xlink:href="#J" transform="matrix(1,0,0,1,107,224.7) translate(15.5 68.7)"/><use xlink:href="#K" transform="matrix(1,0,0,1,107,224.7) translate(180.25 68.7)"/><use xlink:href="#L" transform="matrix(1,0,0,1,107,224.7) translate(306.75 68.7)"/><use xlink:href="#M" transform="matrix(1,0,0,1,107,224.7) translate(400.5 68.7)"/><path d="M760 414.5h360v177H760z" stroke="#333" stroke-width="3" fill="#fff"/><path d="M760 452.1h360m-360 80.7h360" stroke="#333" stroke-width="3" fill="none"/><g><use xlink:href="#N" transform="matrix(1,0,0,1,768,422.5) translate(133.05 14.6)"/></g><g><use xlink:href="#D" transform="matrix(1,0,0,1,772,460.1) translate(0 25.299999999999997)"/><use xlink:href="#O" transform="matrix(1,0,0,1,772,460.1) translate(10.95 25.299999999999997)"/><use xlink:href="#P" transform="matrix(1,0,0,1,772,460.1) translate(56.849999999999994 25.299999999999997)"/><use xlink:href="#D" transform="matrix(1,0,0,1,772,460.1) translate(0 46.9)"/><use xlink:href="#Q" transform="matrix(1,0,0,1,772,460.1) translate(10.95 46.9)"/></g><g><use xlink:href="#A" transform="matrix(1,0,0,1,772,540.8000000000001) translate(0 25.6)"/><use xlink:href="#R" transform="matrix(1,0,0,1,772,540.8000000000001) translate(15.5 25.6)"/></g><path d="M350 402.5v-56.04" stroke="#333" stroke-width="3" fill="none"/><path d="M351.5 404h-3v-1.54h3z" stroke="#333" stroke-width=".05" fill="#333"/><path d="M350 323.45l12.73 21.5h-25.46z" stroke="#333" stroke-width="3" fill="#fff"/><path d="M757 221h-6.16v-3H757zm-18.47 0H726.2v-3h12.33zm-24.63 0h-12.3v-3h12.3zm-49.26 0h-12.3v-3h12.3zM640 221h-12.3v-3H640zm-24.62 0h-6.15v-3h6.15z" stroke="#333" stroke-width=".05" fill="#333"/><path d="M758.5 221h-1.54v-3h1.54z" fill="#333"/><path d="M758.52 221.03h-1.58v-3.06h1.58zm-1.53-3v2.94h1.48v-2.94zM627.42 210.6l-15.03 8.9 15.02 8.9-1.52 2.57-19.4-11.47 19.4-11.47z" stroke="#333" stroke-width=".05" fill="#333"/><g><use xlink:href="#S" transform="matrix(1,0,0,1,668,208.69999999999996) translate(0 14.4)"/></g><path d="M757 503l-92.77.97" stroke="#333" stroke-width="3" fill="none"/><path d="M758.5 504.5l-1.52.02-.03-3 1.55-.02z" stroke="#333" stroke-width=".05" fill="#333"/><path d="M681.56 493.6l-17.1 10.37 17.3 10" stroke="#333" stroke-width="3" fill="none"/><path d="M1180 360h560v307h-560z" stroke="#333" stroke-width="3" fill="#fff"/><path d="M1180 397.6h560m-560 80.7h560" stroke="#333" stroke-width="3" fill="none"/><g><use xlink:href="#T" transform="matrix(1,0,0,1,1188,368) translate(247.55 14.6)"/></g><g><use xlink:href="#D" transform="matrix(1,0,0,1,1192,405.6) translate(0 25.299999999999997)"/><use xlink:href="#U" transform="matrix(1,0,0,1,1192,405.6) translate(10.95 25.299999999999997)"/><use xlink:href="#V" transform="matrix(1,0,0,1,1192,405.6) translate(155.8 25.299999999999997)"/><use xlink:href="#W" transform="matrix(1,0,0,1,1192,405.6) translate(200.75 25.299999999999997)"/><use xlink:href="#D" transform="matrix(1,0,0,1,1192,405.6) translate(0 46.9)"/><use xlink:href="#X" transform="matrix(1,0,0,1,1192,405.6) translate(10.95 46.9)"/><use xlink:href="#Y" transform="matrix(1,0,0,1,1192,405.6) translate(64.9 46.9)"/><use xlink:href="#Z" transform="matrix(1,0,0,1,1192,405.6) translate(140.85000000000002 46.9)"/></g><g><use xlink:href="#aa" transform="matrix(1,0,0,1,1192,486.3) translate(0 25.300000000000004)"/><use xlink:href="#D" transform="matrix(1,0,0,1,1192,486.3) translate(0 46.900000000000006)"/><use xlink:href="#ab" transform="matrix(1,0,0,1,1192,486.3) translate(10.95 46.900000000000006)"/><use xlink:href="#ac" transform="matrix(1,0,0,1,1192,486.3) translate(152.05 46.900000000000006)"/><use xlink:href="#ad" transform="matrix(1,0,0,1,1192,486.3) translate(162.05 46.900000000000006)"/><use xlink:href="#ae" transform="matrix(1,0,0,1,1192,486.3) translate(210.05 46.900000000000006)"/><use xlink:href="#D" transform="matrix(1,0,0,1,1192,486.3) translate(0 68.50000000000001)"/><use xlink:href="#af" transform="matrix(1,0,0,1,1192,486.3) translate(10.95 68.50000000000001)"/><use xlink:href="#ag" transform="matrix(1,0,0,1,1192,486.3) translate(145.10000000000002 68.50000000000001)"/><use xlink:href="#ah" transform="matrix(1,0,0,1,1192,486.3) translate(193.05 68.50000000000001)"/><use xlink:href="#ac" transform="matrix(1,0,0,1,1192,486.3) translate(205.05 68.50000000000001)"/><use xlink:href="#ai" transform="matrix(1,0,0,1,1192,486.3) translate(215.05 68.50000000000001)"/><use xlink:href="#ac" transform="matrix(1,0,0,1,1192,486.3) translate(270 68.50000000000001)"/><use xlink:href="#ad" transform="matrix(1,0,0,1,1192,486.3) translate(280 68.50000000000001)"/><use xlink:href="#aj" transform="matrix(1,0,0,1,1192,486.3) translate(328 68.50000000000001)"/><use xlink:href="#ac" transform="matrix(1,0,0,1,1192,486.3) translate(380 68.50000000000001)"/><use xlink:href="#ak" transform="matrix(1,0,0,1,1192,486.3) translate(390 68.50000000000001)"/><use xlink:href="#D" transform="matrix(1,0,0,1,1192,486.3) translate(0 90.10000000000002)"/><use xlink:href="#al" transform="matrix(1,0,0,1,1192,486.3) translate(10.95 90.10000000000002)"/><use xlink:href="#am" transform="matrix(1,0,0,1,1192,486.3) translate(243.39999999999995 90.10000000000002)"/><use xlink:href="#an" transform="matrix(1,0,0,1,1192,486.3) translate(278.29999999999995 90.10000000000002)"/><use xlink:href="#ao" transform="matrix(1,0,0,1,1192,486.3) translate(447.69999999999993 90.10000000000002)"/><use xlink:href="#A" transform="matrix(1,0,0,1,1192,486.3) translate(0 111.70000000000002)"/><use xlink:href="#ap" transform="matrix(1,0,0,1,1192,486.3) translate(15.5 111.70000000000002)"/><use xlink:href="#U" transform="matrix(1,0,0,1,1192,486.3) translate(195.09999999999997 111.70000000000002)"/><use xlink:href="#aq" transform="matrix(1,0,0,1,1192,486.3) translate(339.95 111.70000000000002)"/><use xlink:href="#A" transform="matrix(1,0,0,1,1192,486.3) translate(0 133.3)"/><use xlink:href="#ar" transform="matrix(1,0,0,1,1192,486.3) translate(15.5 133.3)"/><use xlink:href="#as" transform="matrix(1,0,0,1,1192,486.3) translate(204.55 133.3)"/><use xlink:href="#A" transform="matrix(1,0,0,1,1192,486.3) translate(0 154.9)"/><use xlink:href="#at" transform="matrix(1,0,0,1,1192,486.3) translate(15.5 154.9)"/><use xlink:href="#au" transform="matrix(1,0,0,1,1192,486.3) translate(119.4 154.9)"/></g><path d="M1123 503l52.77-.02" stroke="#333" stroke-width="3" fill="none"/><path d="M1123.04 504.5h-1.54v-3h1.54z" stroke="#333" stroke-width=".05" fill="#333"/><path d="M1158.34 513.17l17.2-10.2-17.2-10.16" stroke="#333" stroke-width="3" fill="none"/><path d="M1275 120h360v180h-360z" stroke="#333" stroke-width="3" fill="#fff"/><path d="M1275 179.2h360" stroke="#333" stroke-width="3" fill="none"/><g><use xlink:href="#av" transform="matrix(1,0,0,1,1283,128) translate(147.075 14.799999999999999)"/><use xlink:href="#aw" transform="matrix(1,0,0,1,1283,128) translate(149.575 36.4)"/></g><g><use xlink:href="#A" transform="matrix(1,0,0,1,1287,187.2) translate(0 23.69999999999999)"/><use xlink:href="#ax" transform="matrix(1,0,0,1,1287,187.2) translate(15.5 23.69999999999999)"/><use xlink:href="#ay" transform="matrix(1,0,0,1,1287,187.2) translate(102.5 23.69999999999999)"/><use xlink:href="#A" transform="matrix(1,0,0,1,1287,187.2) translate(0 45.29999999999999)"/><use xlink:href="#az" transform="matrix(1,0,0,1,1287,187.2) translate(15.5 45.29999999999999)"/><use xlink:href="#aA" transform="matrix(1,0,0,1,1287,187.2) translate(199.2 45.29999999999999)"/><use xlink:href="#aB" transform="matrix(1,0,0,1,1287,187.2) translate(252.01 45.29999999999999)"/><use xlink:href="#A" transform="matrix(1,0,0,1,1287,187.2) translate(0 66.89999999999999)"/><use xlink:href="#aC" transform="matrix(1,0,0,1,1287,187.2) translate(15.5 66.89999999999999)"/><use xlink:href="#aD" transform="matrix(1,0,0,1,1287,187.2) translate(113.30000000000001 66.89999999999999)"/><use xlink:href="#A" transform="matrix(1,0,0,1,1287,187.2) translate(0 88.5)"/><use xlink:href="#aE" transform="matrix(1,0,0,1,1287,187.2) translate(15.5 88.5)"/><use xlink:href="#aF" transform="matrix(1,0,0,1,1287,187.2) translate(71.4 88.5)"/></g><path d="M1460 357v-24.38" stroke="#333" stroke-width="3" fill="none"/><path d="M1461.5 356.96v1.54h-3v-1.54z" stroke="#333" stroke-width=".05" fill="#333"/><path d="M1460.03 303.62l14.84 14.86-14.86 15.14-14.83-15.16z" stroke="#333" stroke-width="3" fill="#fff"/><defs><path fill="#333" d="M141-36C126-15 110 5 73 4 37 3 15-17 15-53c-1-64 63-63 125-63 3-35-9-54-41-54-24 1-41 7-42 31l-33-3c5-37 33-52 76-52 45 0 72 20 72 64v82c-1 20 7 32 28 27v20c-31 9-61-2-59-35zM48-53c0 20 12 33 32 33 41-3 63-29 60-74-43 2-92-5-92 41" id="aG"/><path fill="#333" d="M115-194c53 0 69 39 70 98 0 66-23 100-70 100C84 3 66-7 56-30L54 0H23l1-261h32v101c10-23 28-34 59-34zm-8 174c40 0 45-34 45-75 0-40-5-75-45-74-42 0-51 32-51 76 0 43 10 73 51 73" id="aH"/><path fill="#333" d="M135-143c-3-34-86-38-87 0 15 53 115 12 119 90S17 21 10-45l28-5c4 36 97 45 98 0-10-56-113-15-118-90-4-57 82-63 122-42 12 7 21 19 24 35" id="aI"/><path fill="#333" d="M59-47c-2 24 18 29 38 22v24C64 9 27 4 27-40v-127H5v-23h24l9-43h21v43h35v23H59v120" id="aJ"/><path fill="#333" d="M114-163C36-179 61-72 57 0H25l-1-190h30c1 12-1 29 2 39 6-27 23-49 58-41v29" id="aK"/><path fill="#333" d="M96-169c-40 0-48 33-48 73s9 75 48 75c24 0 41-14 43-38l32 2c-6 37-31 61-74 61-59 0-76-41-82-99-10-93 101-131 147-64 4 7 5 14 7 22l-32 3c-4-21-16-35-41-35" id="aL"/><g id="a"><use transform="matrix(0.05,0,0,0.05,0,0)" xlink:href="#aG"/><use transform="matrix(0.05,0,0,0.05,10,0)" xlink:href="#aH"/><use transform="matrix(0.05,0,0,0.05,20,0)" xlink:href="#aI"/><use transform="matrix(0.05,0,0,0.05,29,0)" xlink:href="#aJ"/><use transform="matrix(0.05,0,0,0.05,34,0)" xlink:href="#aK"/><use transform="matrix(0.05,0,0,0.05,39.95,0)" xlink:href="#aG"/><use transform="matrix(0.05,0,0,0.05,49.95,0)" xlink:href="#aL"/><use transform="matrix(0.05,0,0,0.05,58.95,0)" xlink:href="#aJ"/></g><path fill="#333" d="M24 0v-261h32V0H24" id="aM"/><g id="b"><use transform="matrix(0.05,0,0,0.05,0,0)" xlink:href="#aL"/><use transform="matrix(0.05,0,0,0.05,9,0)" xlink:href="#aM"/><use transform="matrix(0.05,0,0,0.05,12.949999999999998,0)" xlink:href="#aG"/><use transform="matrix(0.05,0,0,0.05,22.95,0)" xlink:href="#aI"/><use transform="matrix(0.05,0,0,0.05,31.950000000000003,0)" xlink:href="#aI"/></g><path fill="#333" d="M24 0v-248h52V0H24" id="aN"/><path fill="#333" d="M147 0H94L2-248h55l64 206c17-72 42-137 63-206h54" id="aO"/><path fill="#333" d="M25-224v-37h50v37H25zM25 0v-190h50V0H25" id="aP"/><path fill="#333" d="M185-48c-13 30-37 53-82 52C43 2 14-33 14-96s30-98 90-98c62 0 83 45 84 108H66c0 31 8 55 39 56 18 0 30-7 34-22zm-45-69c5-46-57-63-70-21-2 6-4 13-4 21h74" id="aQ"/><path fill="#333" d="M231 0h-52l-39-155L100 0H48L-1-190h46L77-45c9-52 24-97 36-145h53l37 145 32-145h46" id="aR"/><g id="c"><use transform="matrix(0.05,0,0,0.05,0,0)" xlink:href="#aN"/><use transform="matrix(0.05,0,0,0.05,5,0)" xlink:href="#aO"/><use transform="matrix(0.05,0,0,0.05,16.65,0)" xlink:href="#aP"/><use transform="matrix(0.05,0,0,0.05,21.65,0)" xlink:href="#aQ"/><use transform="matrix(0.05,0,0,0.05,31.649999999999995,0)" xlink:href="#aR"/></g><path fill="#333" d="M118-107v75H92v-75H18v-26h74v-75h26v75h74v26h-74" id="aS"/><use transform="matrix(0.05,0,0,0.05,0,0)" xlink:href="#aS" id="d"/><path fill="#333" d="M106-169C34-169 62-67 57 0H25v-261h32l-1 103c12-21 28-36 61-36 89 0 53 116 60 194h-32v-121c2-32-8-49-39-48" id="aT"/><path fill="#333" d="M100-194c62-1 85 37 85 99 1 63-27 99-86 99S16-35 15-95c0-66 28-99 85-99zM99-20c44 1 53-31 53-75 0-43-8-75-51-75s-53 32-53 75 10 74 51 75" id="aU"/><path fill="#333" d="M206 0h-36l-40-164L89 0H53L-1-190h32L70-26l43-164h34l41 164 42-164h31" id="aV"/><path fill="#333" d="M266 0h-40l-56-210L115 0H75L2-248h35L96-30l15-64 43-154h32l59 218 59-218h35" id="aW"/><path fill="#333" d="M100-194c63 0 86 42 84 106H49c0 40 14 67 53 68 26 1 43-12 49-29l28 8c-11 28-37 45-77 45C44 4 14-33 15-96c1-61 26-98 85-98zm52 81c6-60-76-77-97-28-3 7-6 17-6 28h103" id="aX"/><path fill="#333" d="M210-169c-67 3-38 105-44 169h-31v-121c0-29-5-50-35-48C34-165 62-65 56 0H25l-1-190h30c1 10-1 24 2 32 10-44 99-50 107 0 11-21 27-35 58-36 85-2 47 119 55 194h-31v-121c0-29-5-49-35-48" id="aY"/><path fill="#333" d="M87 75C49 33 22-17 22-94c0-76 28-126 65-167h31c-38 41-64 92-64 168S80 34 118 75H87" id="aZ"/><path fill="#333" d="M24-231v-30h32v30H24zM24 0v-190h32V0H24" id="ba"/><path fill="#333" d="M117-194c89-4 53 116 60 194h-32v-121c0-31-8-49-39-48C34-167 62-67 57 0H25l-1-190h30c1 10-1 24 2 32 11-22 29-35 61-36" id="bb"/><path fill="#333" d="M177-190C167-65 218 103 67 71c-23-6-38-20-44-43l32-5c15 47 100 32 89-28v-30C133-14 115 1 83 1 29 1 15-40 15-95c0-56 16-97 71-98 29-1 48 16 59 35 1-10 0-23 2-32h30zM94-22c36 0 50-32 50-73 0-42-14-75-50-75-39 0-46 34-46 75s6 73 46 73" id="bc"/><g id="e"><use transform="matrix(0.05,0,0,0.05,0,0)" xlink:href="#aI"/><use transform="matrix(0.05,0,0,0.05,9,0)" xlink:href="#aT"/><use transform="matrix(0.05,0,0,0.05,19,0)" xlink:href="#aU"/><use transform="matrix(0.05,0,0,0.05,29,0)" xlink:href="#aV"/><use transform="matrix(0.05,0,0,0.05,41.95,0)" xlink:href="#aW"/><use transform="matrix(0.05,0,0,0.05,58.54999999999999,0)" xlink:href="#aX"/><use transform="matrix(0.05,0,0,0.05,68.55,0)" xlink:href="#aM"/><use transform="matrix(0.05,0,0,0.05,72.5,0)" xlink:href="#aL"/><use transform="matrix(0.05,0,0,0.05,81.5,0)" xlink:href="#aU"/><use transform="matrix(0.05,0,0,0.05,91.5,0)" xlink:href="#aY"/><use transform="matrix(0.05,0,0,0.05,106.45,0)" xlink:href="#aX"/><use transform="matrix(0.05,0,0,0.05,116.45,0)" xlink:href="#aZ"/><use transform="matrix(0.05,0,0,0.05,122.4,0)" xlink:href="#aI"/><use transform="matrix(0.05,0,0,0.05,131.4,0)" xlink:href="#aJ"/><use transform="matrix(0.05,0,0,0.05,136.4,0)" xlink:href="#aK"/><use transform="matrix(0.05,0,0,0.05,142.35,0)" xlink:href="#ba"/><use transform="matrix(0.05,0,0,0.05,146.29999999999998,0)" xlink:href="#bb"/><use transform="matrix(0.05,0,0,0.05,156.29999999999998,0)" xlink:href="#bc"/></g><path fill="#333" d="M85-194c31 0 48 13 60 33l-1-100h32l1 261h-30c-2-10 0-23-3-31C134-8 116 4 85 4 32 4 16-35 15-94c0-66 23-100 70-100zm9 24c-40 0-46 34-46 75 0 40 6 74 45 74 42 0 51-32 51-76 0-42-9-74-50-73" id="bd"/><path fill="#333" d="M179-190L93 31C79 59 56 82 12 73V49c39 6 53-20 64-50L1-190h34L92-34l54-156h33" id="be"/><path fill="#333" d="M33-261c38 41 65 92 65 168S71 34 33 75H2C39 34 66-17 66-93S39-220 2-261h31" id="bf"/><g id="f"><use transform="matrix(0.05,0,0,0.05,0,0)" xlink:href="#bd"/><use transform="matrix(0.05,0,0,0.05,10,0)" xlink:href="#ba"/><use transform="matrix(0.05,0,0,0.05,13.949999999999998,0)" xlink:href="#aK"/><use transform="matrix(0.05,0,0,0.05,19.9,0)" xlink:href="#aX"/><use transform="matrix(0.05,0,0,0.05,29.899999999999995,0)" xlink:href="#aL"/><use transform="matrix(0.05,0,0,0.05,38.9,0)" xlink:href="#aJ"/><use transform="matrix(0.05,0,0,0.05,43.9,0)" xlink:href="#aU"/><use transform="matrix(0.05,0,0,0.05,53.900000000000006,0)" xlink:href="#aK"/><use transform="matrix(0.05,0,0,0.05,59.85,0)" xlink:href="#be"/><use transform="matrix(0.05,0,0,0.05,68.85,0)" xlink:href="#bf"/></g><path fill="#333" d="M240 0l2-218c-23 76-54 145-80 218h-23L58-218 59 0H30v-248h44l77 211c21-75 51-140 76-211h43V0h-30" id="bg"/><g id="g"><use transform="matrix(0.05,0,0,0.05,0,0)" xlink:href="#aI"/><use transform="matrix(0.05,0,0,0.05,9,0)" xlink:href="#aT"/><use transform="matrix(0.05,0,0,0.05,19,0)" xlink:href="#aU"/><use transform="matrix(0.05,0,0,0.05,29,0)" xlink:href="#aV"/><use transform="matrix(0.05,0,0,0.05,41.95,0)" xlink:href="#bg"/><use transform="matrix(0.05,0,0,0.05,56.900000000000006,0)" xlink:href="#aX"/><use transform="matrix(0.05,0,0,0.05,66.9,0)" xlink:href="#aI"/><use transform="matrix(0.05,0,0,0.05,75.9,0)" xlink:href="#aI"/><use transform="matrix(0.05,0,0,0.05,84.9,0)" xlink:href="#aG"/><use transform="matrix(0.05,0,0,0.05,94.9,0)" xlink:href="#bc"/><use transform="matrix(0.05,0,0,0.05,104.9,0)" xlink:href="#aX"/><use transform="matrix(0.05,0,0,0.05,114.9,0)" xlink:href="#aZ"/><use transform="matrix(0.05,0,0,0.05,120.85000000000001,0)" xlink:href="#aI"/><use transform="matrix(0.05,0,0,0.05,129.85000000000002,0)" xlink:href="#aJ"/><use transform="matrix(0.05,0,0,0.05,134.85000000000002,0)" xlink:href="#aK"/><use transform="matrix(0.05,0,0,0.05,140.8,0)" xlink:href="#ba"/><use transform="matrix(0.05,0,0,0.05,144.75,0)" xlink:href="#bb"/><use transform="matrix(0.05,0,0,0.05,154.75,0)" xlink:href="#bc"/><use transform="matrix(0.05,0,0,0.05,164.75,0)" xlink:href="#bf"/></g><path fill="#333" d="M185-189c-5-48-123-54-124 2 14 75 158 14 163 119 3 78-121 87-175 55-17-10-28-26-33-46l33-7c5 56 141 63 141-1 0-78-155-14-162-118-5-82 145-84 179-34 5 7 8 16 11 25" id="bh"/><path fill="#333" d="M84 4C-5 8 30-112 23-190h32v120c0 31 7 50 39 49 72-2 45-101 50-169h31l1 190h-30c-1-10 1-25-2-33-11 22-28 36-60 37" id="bi"/><path fill="#333" d="M127-220V0H93v-220H8v-28h204v28h-85" id="bj"/><g id="h"><use transform="matrix(0.05,0,0,0.05,0,0)" xlink:href="#aI"/><use transform="matrix(0.05,0,0,0.05,9,0)" xlink:href="#aT"/><use transform="matrix(0.05,0,0,0.05,19,0)" xlink:href="#aU"/><use transform="matrix(0.05,0,0,0.05,29,0)" xlink:href="#aV"/><use transform="matrix(0.05,0,0,0.05,41.95,0)" xlink:href="#bh"/><use transform="matrix(0.05,0,0,0.05,53.95,0)" xlink:href="#aU"/><use transform="matrix(0.05,0,0,0.05,63.95,0)" xlink:href="#bi"/><use transform="matrix(0.05,0,0,0.05,73.95,0)" xlink:href="#aK"/><use transform="matrix(0.05,0,0,0.05,79.9,0)" xlink:href="#aL"/><use transform="matrix(0.05,0,0,0.05,88.9,0)" xlink:href="#aX"/><use transform="matrix(0.05,0,0,0.05,98.9,0)" xlink:href="#bj"/><use transform="matrix(0.05,0,0,0.05,109.2,0)" xlink:href="#aK"/><use transform="matrix(0.05,0,0,0.05,115.15,0)" xlink:href="#aX"/><use transform="matrix(0.05,0,0,0.05,125.15,0)" xlink:href="#aX"/><use transform="matrix(0.05,0,0,0.05,135.15,0)" xlink:href="#bh"/><use transform="matrix(0.05,0,0,0.05,147.15,0)" xlink:href="#aJ"/><use transform="matrix(0.05,0,0,0.05,152.15,0)" xlink:href="#aK"/><use transform="matrix(0.05,0,0,0.05,158.1,0)" xlink:href="#bi"/><use transform="matrix(0.05,0,0,0.05,168.1,0)" xlink:href="#aL"/><use transform="matrix(0.05,0,0,0.05,177.1,0)" xlink:href="#aJ"/><use transform="matrix(0.05,0,0,0.05,182.1,0)" xlink:href="#bi"/><use transform="matrix(0.05,0,0,0.05,192.1,0)" xlink:href="#aK"/><use transform="matrix(0.05,0,0,0.05,198.04999999999998,0)" xlink:href="#aX"/></g><path fill="#333" d="M108 0H70L1-190h34L89-25l56-165h34" id="bk"/><g id="i"><use transform="matrix(0.05,0,0,0.05,0,0)" xlink:href="#aZ"/><use transform="matrix(0.05,0,0,0.05,5.95,0)" xlink:href="#bk"/><use transform="matrix(0.05,0,0,0.05,14.949999999999998,0)" xlink:href="#aX"/><use transform="matrix(0.05,0,0,0.05,24.95,0)" xlink:href="#aL"/><use transform="matrix(0.05,0,0,0.05,33.95,0)" xlink:href="#aJ"/><use transform="matrix(0.05,0,0,0.05,38.95,0)" xlink:href="#aU"/><use transform="matrix(0.05,0,0,0.05,48.95,0)" xlink:href="#aK"/></g><path fill="#333" d="M18-100v-36l175-74v27L42-118l151 64v27" id="bl"/><path fill="#333" d="M190 0L58-211 59 0H30v-248h39L202-35l-2-213h31V0h-41" id="bm"/><g id="j"><use transform="matrix(0.05,0,0,0.05,0,0)" xlink:href="#bl"/><use transform="matrix(0.05,0,0,0.05,10.5,0)" xlink:href="#bm"/><use transform="matrix(0.05,0,0,0.05,23.450000000000003,0)" xlink:href="#aU"/><use transform="matrix(0.05,0,0,0.05,33.45,0)" xlink:href="#bd"/><use transform="matrix(0.05,0,0,0.05,43.45,0)" xlink:href="#aX"/></g><path fill="#333" d="M80-196l47-18 7 23-49 13 32 44-20 13-27-46-27 45-21-12 33-44-49-13 8-23 47 19-2-53h23" id="bn"/><path fill="#333" d="M18-27v-27l151-64-151-65v-27l175 74v36" id="bo"/><g id="k"><use transform="matrix(0.05,0,0,0.05,0,0)" xlink:href="#bn"/><use transform="matrix(0.05,0,0,0.05,7,0)" xlink:href="#bo"/><use transform="matrix(0.05,0,0,0.05,17.5,0)" xlink:href="#bf"/></g><path fill="#333" d="M33 0v-248h34V0H33" id="bp"/><path fill="#333" d="M63-220v92h138v28H63V0H30v-248h175v28H63" id="bq"/><path fill="#333" d="M145-31C134-9 116 4 85 4 32 4 16-35 15-94c0-59 17-99 70-100 32-1 48 14 60 33 0-11-1-24 2-32h30l-1 268h-32zM93-21c41 0 51-33 51-76s-8-73-50-73c-40 0-46 35-46 75s5 74 45 74" id="br"/><path fill="#333" d="M115-194c55 1 70 41 70 98S169 2 115 4C84 4 66-9 55-30l1 105H24l-1-265h31l2 30c10-21 28-34 59-34zm-8 174c40 0 45-34 45-75s-6-73-45-74c-42 0-51 32-51 76 0 43 10 73 51 73" id="bs"/><path fill="#333" d="M33-154v-36h34v36H33zM33 0v-36h34V0H33" id="bt"/><path fill="#333" d="M101-234c-31-9-42 10-38 44h38v23H63V0H32v-167H5v-23h27c-7-52 17-82 69-68v24" id="bu"/><path fill="#333" d="M68-38c1 34 0 65-14 84H32c9-13 17-26 17-46H33v-38h35" id="bv"/><g id="l"><use transform="matrix(0.05,0,0,0.05,0,0)" xlink:href="#aI"/><use transform="matrix(0.05,0,0,0.05,9,0)" xlink:href="#aT"/><use transform="matrix(0.05,0,0,0.05,19,0)" xlink:href="#aU"/><use transform="matrix(0.05,0,0,0.05,29,0)" xlink:href="#aV"/><use transform="matrix(0.05,0,0,0.05,41.95,0)" xlink:href="#bp"/><use transform="matrix(0.05,0,0,0.05,46.95,0)" xlink:href="#bb"/><use transform="matrix(0.05,0,0,0.05,56.95,0)" xlink:href="#aL"/><use transform="matrix(0.05,0,0,0.05,65.95,0)" xlink:href="#aM"/><use transform="matrix(0.05,0,0,0.05,69.9,0)" xlink:href="#bi"/><use transform="matrix(0.05,0,0,0.05,79.9,0)" xlink:href="#bd"/><use transform="matrix(0.05,0,0,0.05,89.9,0)" xlink:href="#aX"/><use transform="matrix(0.05,0,0,0.05,99.9,0)" xlink:href="#bq"/><use transform="matrix(0.05,0,0,0.05,110.85000000000001,0)" xlink:href="#aK"/><use transform="matrix(0.05,0,0,0.05,116.80000000000001,0)" xlink:href="#aX"/><use transform="matrix(0.05,0,0,0.05,126.80000000000001,0)" xlink:href="#br"/><use transform="matrix(0.05,0,0,0.05,136.8,0)" xlink:href="#bi"/><use transform="matrix(0.05,0,0,0.05,146.8,0)" xlink:href="#aX"/><use transform="matrix(0.05,0,0,0.05,156.8,0)" xlink:href="#bb"/><use transform="matrix(0.05,0,0,0.05,166.8,0)" xlink:href="#aL"/><use transform="matrix(0.05,0,0,0.05,175.8,0)" xlink:href="#ba"/><use transform="matrix(0.05,0,0,0.05,179.75,0)" xlink:href="#aX"/><use transform="matrix(0.05,0,0,0.05,189.75,0)" xlink:href="#aI"/><use transform="matrix(0.05,0,0,0.05,198.75,0)" xlink:href="#aZ"/><use transform="matrix(0.05,0,0,0.05,204.7,0)" xlink:href="#bk"/><use transform="matrix(0.05,0,0,0.05,213.69999999999996,0)" xlink:href="#aX"/><use transform="matrix(0.05,0,0,0.05,223.69999999999996,0)" xlink:href="#aL"/><use transform="matrix(0.05,0,0,0.05,232.69999999999996,0)" xlink:href="#aJ"/><use transform="matrix(0.05,0,0,0.05,237.69999999999996,0)" xlink:href="#aU"/><use transform="matrix(0.05,0,0,0.05,247.69999999999996,0)" xlink:href="#aK"/><use transform="matrix(0.05,0,0,0.05,253.64999999999998,0)" xlink:href="#bl"/><use transform="matrix(0.05,0,0,0.05,264.15,0)" xlink:href="#bs"/><use transform="matrix(0.05,0,0,0.05,274.15,0)" xlink:href="#aG"/><use transform="matrix(0.05,0,0,0.05,284.15,0)" xlink:href="#ba"/><use transform="matrix(0.05,0,0,0.05,288.09999999999997,0)" xlink:href="#aK"/><use transform="matrix(0.05,0,0,0.05,294.04999999999995,0)" xlink:href="#bl"/><use transform="matrix(0.05,0,0,0.05,304.54999999999995,0)" xlink:href="#aI"/><use transform="matrix(0.05,0,0,0.05,313.54999999999995,0)" xlink:href="#aJ"/><use transform="matrix(0.05,0,0,0.05,318.54999999999995,0)" xlink:href="#bd"/><use transform="matrix(0.05,0,0,0.05,328.54999999999995,0)" xlink:href="#bt"/><use transform="matrix(0.05,0,0,0.05,333.54999999999995,0)" xlink:href="#bt"/><use transform="matrix(0.05,0,0,0.05,338.54999999999995,0)" xlink:href="#bu"/><use transform="matrix(0.05,0,0,0.05,343.54999999999995,0)" xlink:href="#ba"/><use transform="matrix(0.05,0,0,0.05,347.49999999999994,0)" xlink:href="#aM"/><use transform="matrix(0.05,0,0,0.05,351.44999999999993,0)" xlink:href="#aX"/><use transform="matrix(0.05,0,0,0.05,361.44999999999993,0)" xlink:href="#aI"/><use transform="matrix(0.05,0,0,0.05,370.44999999999993,0)" xlink:href="#be"/><use transform="matrix(0.05,0,0,0.05,379.44999999999993,0)" xlink:href="#aI"/><use transform="matrix(0.05,0,0,0.05,388.44999999999993,0)" xlink:href="#aJ"/><use transform="matrix(0.05,0,0,0.05,393.44999999999993,0)" xlink:href="#aX"/><use transform="matrix(0.05,0,0,0.05,403.44999999999993,0)" xlink:href="#aY"/><use transform="matrix(0.05,0,0,0.05,418.3999999999999,0)" xlink:href="#bt"/><use transform="matrix(0.05,0,0,0.05,423.3999999999999,0)" xlink:href="#bt"/><use transform="matrix(0.05,0,0,0.05,428.3999999999999,0)" xlink:href="#bs"/><use transform="matrix(0.05,0,0,0.05,438.3999999999999,0)" xlink:href="#aG"/><use transform="matrix(0.05,0,0,0.05,448.3999999999999,0)" xlink:href="#aJ"/><use transform="matrix(0.05,0,0,0.05,453.3999999999999,0)" xlink:href="#aT"/><use transform="matrix(0.05,0,0,0.05,463.3999999999999,0)" xlink:href="#bv"/></g><g id="m"><use transform="matrix(0.05,0,0,0.05,0,0)" xlink:href="#ba"/><use transform="matrix(0.05,0,0,0.05,3.95,0)" xlink:href="#bb"/><use transform="matrix(0.05,0,0,0.05,13.949999999999998,0)" xlink:href="#aJ"/><use transform="matrix(0.05,0,0,0.05,18.95,0)" xlink:href="#bo"/><use transform="matrix(0.05,0,0,0.05,29.450000000000003,0)" xlink:href="#bo"/><use transform="matrix(0.05,0,0,0.05,39.95,0)" xlink:href="#bf"/></g><path fill="#333" d="M67-125c0 53 21 87 73 88 37 1 54-22 65-47l45 17C233-25 199 4 140 4 58 4 20-42 15-125 8-235 124-281 211-232c18 10 29 29 36 50l-46 12c-8-25-30-41-62-41-52 0-71 34-72 86" id="bw"/><path fill="#333" d="M110-194c64 0 96 36 96 99 0 64-35 99-97 99-61 0-95-36-95-99 0-62 34-99 96-99zm-1 164c35 0 45-28 45-65 0-40-10-65-43-65-34 0-45 26-45 65 0 36 10 65 43 65" id="bx"/><path fill="#333" d="M135-194c87-1 58 113 63 194h-50c-7-57 23-157-34-157-59 0-34 97-39 157H25l-1-190h47c2 12-1 28 3 38 12-26 28-41 61-42" id="by"/><path fill="#333" d="M137-138c1-29-70-34-71-4 15 46 118 7 119 86 1 83-164 76-172 9l43-7c4 19 20 25 44 25 33 8 57-30 24-41C81-84 22-81 20-136c-2-80 154-74 161-7" id="bz"/><path fill="#333" d="M25 0v-261h50V0H25" id="bA"/><g id="n"><use transform="matrix(0.05,0,0,0.05,0,0)" xlink:href="#bw"/><use transform="matrix(0.05,0,0,0.05,12.950000000000001,0)" xlink:href="#bx"/><use transform="matrix(0.05,0,0,0.05,23.900000000000002,0)" xlink:href="#by"/><use transform="matrix(0.05,0,0,0.05,34.85,0)" xlink:href="#bz"/><use transform="matrix(0.05,0,0,0.05,44.85,0)" xlink:href="#bx"/><use transform="matrix(0.05,0,0,0.05,55.800000000000004,0)" xlink:href="#bA"/><use transform="matrix(0.05,0,0,0.05,60.800000000000004,0)" xlink:href="#aQ"/><use transform="matrix(0.05,0,0,0.05,70.80000000000001,0)" xlink:href="#aO"/><use transform="matrix(0.05,0,0,0.05,82.45000000000002,0)" xlink:href="#aP"/><use transform="matrix(0.05,0,0,0.05,87.45000000000002,0)" xlink:href="#aQ"/><use transform="matrix(0.05,0,0,0.05,97.45000000000002,0)" xlink:href="#aR"/></g><path fill="#333" d="M27 0v-27h64v-190l-56 39v-29l58-41h29v221h61V0H27" id="bB"/><g id="o"><use transform="matrix(0.05,0,0,0.05,0,0)" xlink:href="#aS"/><use transform="matrix(0.05,0,0,0.05,10.5,0)" xlink:href="#aG"/><use transform="matrix(0.05,0,0,0.05,20.5,0)" xlink:href="#aJ"/><use transform="matrix(0.05,0,0,0.05,25.5,0)" xlink:href="#aJ"/><use transform="matrix(0.05,0,0,0.05,30.5,0)" xlink:href="#aK"/><use transform="matrix(0.05,0,0,0.05,36.45,0)" xlink:href="#ba"/><use transform="matrix(0.05,0,0,0.05,40.400000000000006,0)" xlink:href="#aH"/><use transform="matrix(0.05,0,0,0.05,50.400000000000006,0)" xlink:href="#bi"/><use transform="matrix(0.05,0,0,0.05,60.400000000000006,0)" xlink:href="#aJ"/><use transform="matrix(0.05,0,0,0.05,65.4,0)" xlink:href="#aX"/><use transform="matrix(0.05,0,0,0.05,75.4,0)" xlink:href="#bB"/><use transform="matrix(0.05,0,0,0.05,85.4,0)" xlink:href="#bt"/><use transform="matrix(0.05,0,0,0.05,90.4,0)" xlink:href="#aJ"/><use transform="matrix(0.05,0,0,0.05,95.4,0)" xlink:href="#be"/><use transform="matrix(0.05,0,0,0.05,104.4,0)" xlink:href="#bs"/><use transform="matrix(0.05,0,0,0.05,114.4,0)" xlink:href="#aX"/></g><path fill="#333" d="M18-150v-26h174v26H18zm0 90v-26h174v26H18" id="bC"/><use transform="matrix(0.05,0,0,0.05,0,0)" xlink:href="#bC" id="p"/><path fill="#333" d="M137 0h-34L2-248h35l83 218 83-218h36" id="bD"/><g id="q"><use transform="matrix(0.05,0,0,0.05,0,0)" xlink:href="#bd"/><use transform="matrix(0.05,0,0,0.05,10,0)" xlink:href="#aX"/><use transform="matrix(0.05,0,0,0.05,20,0)" xlink:href="#bu"/><use transform="matrix(0.05,0,0,0.05,25,0)" xlink:href="#aG"/><use transform="matrix(0.05,0,0,0.05,35,0)" xlink:href="#bi"/><use transform="matrix(0.05,0,0,0.05,45,0)" xlink:href="#aM"/><use transform="matrix(0.05,0,0,0.05,48.95,0)" xlink:href="#aJ"/><use transform="matrix(0.05,0,0,0.05,53.95,0)" xlink:href="#bD"/><use transform="matrix(0.05,0,0,0.05,64.6,0)" xlink:href="#aG"/><use transform="matrix(0.05,0,0,0.05,74.6,0)" xlink:href="#aM"/><use transform="matrix(0.05,0,0,0.05,78.55,0)" xlink:href="#bi"/><use transform="matrix(0.05,0,0,0.05,88.55,0)" xlink:href="#aX"/></g><path fill="#333" d="M101-251c82-7 93 87 43 132L82-64C71-53 59-42 53-27h129V0H18c2-99 128-94 128-182 0-28-16-43-45-43s-46 15-49 41l-32-3c6-41 34-60 81-64" id="bE"/><g id="r"><use transform="matrix(0.05,0,0,0.05,0,0)" xlink:href="#aS"/><use transform="matrix(0.05,0,0,0.05,10.5,0)" xlink:href="#aG"/><use transform="matrix(0.05,0,0,0.05,20.5,0)" xlink:href="#aJ"/><use transform="matrix(0.05,0,0,0.05,25.5,0)" xlink:href="#aJ"/><use transform="matrix(0.05,0,0,0.05,30.5,0)" xlink:href="#aK"/><use transform="matrix(0.05,0,0,0.05,36.45,0)" xlink:href="#ba"/><use transform="matrix(0.05,0,0,0.05,40.400000000000006,0)" xlink:href="#aH"/><use transform="matrix(0.05,0,0,0.05,50.400000000000006,0)" xlink:href="#bi"/><use transform="matrix(0.05,0,0,0.05,60.400000000000006,0)" xlink:href="#aJ"/><use transform="matrix(0.05,0,0,0.05,65.4,0)" xlink:href="#aX"/><use transform="matrix(0.05,0,0,0.05,75.4,0)" xlink:href="#bE"/><use transform="matrix(0.05,0,0,0.05,85.4,0)" xlink:href="#bt"/><use transform="matrix(0.05,0,0,0.05,90.4,0)" xlink:href="#aJ"/><use transform="matrix(0.05,0,0,0.05,95.4,0)" xlink:href="#be"/><use transform="matrix(0.05,0,0,0.05,104.4,0)" xlink:href="#bs"/><use transform="matrix(0.05,0,0,0.05,114.4,0)" xlink:href="#aX"/></g><path fill="#333" d="M16-82v-28h88v28H16" id="bF"/><path fill="#333" d="M126-127c33 6 58 20 58 59 0 88-139 92-164 29-3-8-5-16-6-25l32-3c6 27 21 44 54 44 32 0 52-15 52-46 0-38-36-46-79-43v-28c39 1 72-4 72-42 0-27-17-43-46-43-28 0-47 15-49 41l-32-3c6-42 35-63 81-64 48-1 79 21 79 65 0 36-21 52-52 59" id="bG"/><g id="s"><use transform="matrix(0.05,0,0,0.05,0,0)" xlink:href="#bF"/><use transform="matrix(0.05,0,0,0.05,5.95,0)" xlink:href="#aG"/><use transform="matrix(0.05,0,0,0.05,15.949999999999998,0)" xlink:href="#aJ"/><use transform="matrix(0.05,0,0,0.05,20.95,0)" xlink:href="#aJ"/><use transform="matrix(0.05,0,0,0.05,25.950000000000003,0)" xlink:href="#aK"/><use transform="matrix(0.05,0,0,0.05,31.899999999999995,0)" xlink:href="#ba"/><use transform="matrix(0.05,0,0,0.05,35.85,0)" xlink:href="#aH"/><use transform="matrix(0.05,0,0,0.05,45.85,0)" xlink:href="#bi"/><use transform="matrix(0.05,0,0,0.05,55.85,0)" xlink:href="#aJ"/><use transform="matrix(0.05,0,0,0.05,60.85,0)" xlink:href="#aX"/><use transform="matrix(0.05,0,0,0.05,70.85,0)" xlink:href="#bG"/><use transform="matrix(0.05,0,0,0.05,80.85,0)" xlink:href="#bt"/><use transform="matrix(0.05,0,0,0.05,85.85,0)" xlink:href="#aJ"/><use transform="matrix(0.05,0,0,0.05,90.85,0)" xlink:href="#be"/><use transform="matrix(0.05,0,0,0.05,99.85,0)" xlink:href="#bs"/><use transform="matrix(0.05,0,0,0.05,109.84999999999998,0)" xlink:href="#aX"/></g><use transform="matrix(0.05,0,0,0.05,0,0)" xlink:href="#bF" id="t"/><g id="u"><use transform="matrix(0.05,0,0,0.05,0,0)" xlink:href="#bs"/><use transform="matrix(0.05,0,0,0.05,10,0)" xlink:href="#aK"/><use transform="matrix(0.05,0,0,0.05,15.949999999999998,0)" xlink:href="#ba"/><use transform="matrix(0.05,0,0,0.05,19.9,0)" xlink:href="#bb"/><use transform="matrix(0.05,0,0,0.05,29.899999999999995,0)" xlink:href="#aJ"/><use transform="matrix(0.05,0,0,0.05,34.9,0)" xlink:href="#bm"/><use transform="matrix(0.05,0,0,0.05,47.85,0)" xlink:href="#aU"/><use transform="matrix(0.05,0,0,0.05,57.85,0)" xlink:href="#bd"/><use transform="matrix(0.05,0,0,0.05,67.85,0)" xlink:href="#aX"/><use transform="matrix(0.05,0,0,0.05,77.85,0)" xlink:href="#bj"/><use transform="matrix(0.05,0,0,0.05,88.14999999999999,0)" xlink:href="#aK"/><use transform="matrix(0.05,0,0,0.05,94.1,0)" xlink:href="#aX"/><use transform="matrix(0.05,0,0,0.05,104.09999999999998,0)" xlink:href="#aX"/><use transform="matrix(0.05,0,0,0.05,114.09999999999998,0)" xlink:href="#aZ"/><use transform="matrix(0.05,0,0,0.05,120.05000000000001,0)" xlink:href="#aL"/><use transform="matrix(0.05,0,0,0.05,129.05,0)" xlink:href="#aU"/><use transform="matrix(0.05,0,0,0.05,139.05,0)" xlink:href="#bb"/><use transform="matrix(0.05,0,0,0.05,149.05,0)" xlink:href="#aI"/><use transform="matrix(0.05,0,0,0.05,158.05,0)" xlink:href="#aJ"/></g><g id="v"><use transform="matrix(0.05,0,0,0.05,0,0)" xlink:href="#bm"/><use transform="matrix(0.05,0,0,0.05,12.950000000000001,0)" xlink:href="#aU"/><use transform="matrix(0.05,0,0,0.05,22.950000000000003,0)" xlink:href="#bd"/><use transform="matrix(0.05,0,0,0.05,32.95,0)" xlink:href="#aX"/><use transform="matrix(0.05,0,0,0.05,42.95,0)" xlink:href="#bn"/><use transform="matrix(0.05,0,0,0.05,49.95,0)" xlink:href="#bv"/></g><g id="w"><use transform="matrix(0.05,0,0,0.05,0,0)" xlink:href="#aL"/><use transform="matrix(0.05,0,0,0.05,9,0)" xlink:href="#aU"/><use transform="matrix(0.05,0,0,0.05,19,0)" xlink:href="#bb"/><use transform="matrix(0.05,0,0,0.05,29,0)" xlink:href="#aI"/><use transform="matrix(0.05,0,0,0.05,38,0)" xlink:href="#aJ"/></g><g id="x"><use transform="matrix(0.05,0,0,0.05,0,0)" xlink:href="#aI"/><use transform="matrix(0.05,0,0,0.05,9,0)" xlink:href="#aJ"/><use transform="matrix(0.05,0,0,0.05,14,0)" xlink:href="#aK"/><use transform="matrix(0.05,0,0,0.05,19.95,0)" xlink:href="#ba"/><use transform="matrix(0.05,0,0,0.05,23.9,0)" xlink:href="#bb"/><use transform="matrix(0.05,0,0,0.05,33.9,0)" xlink:href="#bc"/><use transform="matrix(0.05,0,0,0.05,43.9,0)" xlink:href="#bf"/></g><path fill="#333" d="M156-25L96-89v-11l60-65h29v5l-59 66 60 64v5h-30zm-82 0L15-89v-11l59-65h29v5L44-94l59 64v5H74" id="bH"/><path fill="#333" d="M126-25H97v-5l59-64-59-66v-5h29l60 65v11zm-82 0H15v-5l59-64-59-66v-5h29l59 65v11" id="bI"/><g id="y"><use transform="matrix(0.05,0,0,0.05,0,0)" xlink:href="#bH"/><use transform="matrix(0.05,0,0,0.05,10,0)" xlink:href="#ba"/><use transform="matrix(0.05,0,0,0.05,13.949999999999998,0)" xlink:href="#bb"/><use transform="matrix(0.05,0,0,0.05,23.95,0)" xlink:href="#aJ"/><use transform="matrix(0.05,0,0,0.05,28.950000000000003,0)" xlink:href="#aX"/><use transform="matrix(0.05,0,0,0.05,38.95,0)" xlink:href="#aK"/><use transform="matrix(0.05,0,0,0.05,44.900000000000006,0)" xlink:href="#bu"/><use transform="matrix(0.05,0,0,0.05,49.900000000000006,0)" xlink:href="#aG"/><use transform="matrix(0.05,0,0,0.05,59.900000000000006,0)" xlink:href="#aL"/><use transform="matrix(0.05,0,0,0.05,68.9,0)" xlink:href="#aX"/><use transform="matrix(0.05,0,0,0.05,78.9,0)" xlink:href="#bI"/></g><path fill="#333" d="M24 0v-248h195v40H76v63h132v40H76v65h150V0H24" id="bJ"/><path fill="#333" d="M128 0H69L1-190h53L99-40l48-150h52" id="bK"/><path fill="#333" d="M115-3C79 11 28 4 28-45v-112H4v-33h27l15-45h31v45h36v33H77v99c-1 23 16 31 38 25v30" id="bL"/><g id="z"><use transform="matrix(0.05,0,0,0.05,0,0)" xlink:href="#aN"/><use transform="matrix(0.05,0,0,0.05,5,0)" xlink:href="#aO"/><use transform="matrix(0.05,0,0,0.05,16.65,0)" xlink:href="#aP"/><use transform="matrix(0.05,0,0,0.05,21.65,0)" xlink:href="#aQ"/><use transform="matrix(0.05,0,0,0.05,31.649999999999995,0)" xlink:href="#aR"/><use transform="matrix(0.05,0,0,0.05,45.65,0)" xlink:href="#bJ"/><use transform="matrix(0.05,0,0,0.05,57.650000000000006,0)" xlink:href="#bK"/><use transform="matrix(0.05,0,0,0.05,67.65,0)" xlink:href="#aQ"/><use transform="matrix(0.05,0,0,0.05,77.65,0)" xlink:href="#by"/><use transform="matrix(0.05,0,0,0.05,88.60000000000001,0)" xlink:href="#bL"/><use transform="matrix(0.05,0,0,0.05,94.55000000000001,0)" xlink:href="#bz"/></g><use transform="matrix(0.05,0,0,0.05,0,0)" xlink:href="#aS" id="A"/><path fill="#333" d="M194 0L95-120 63-95V0H30v-248h33v124l119-124h40L117-140 236 0h-42" id="bM"/><path fill="#333" d="M30-248c87 1 191-15 191 75 0 78-77 80-158 76V0H30v-248zm33 125c57 0 124 11 124-50 0-59-68-47-124-48v98" id="bN"/><g id="B"><use transform="matrix(0.05,0,0,0.05,0,0)" xlink:href="#aU"/><use transform="matrix(0.05,0,0,0.05,10,0)" xlink:href="#bb"/><use transform="matrix(0.05,0,0,0.05,20,0)" xlink:href="#aW"/><use transform="matrix(0.05,0,0,0.05,36.599999999999994,0)" xlink:href="#aX"/><use transform="matrix(0.05,0,0,0.05,46.599999999999994,0)" xlink:href="#aM"/><use transform="matrix(0.05,0,0,0.05,50.55,0)" xlink:href="#aL"/><use transform="matrix(0.05,0,0,0.05,59.54999999999999,0)" xlink:href="#aU"/><use transform="matrix(0.05,0,0,0.05,69.55,0)" xlink:href="#aY"/><use transform="matrix(0.05,0,0,0.05,84.5,0)" xlink:href="#aX"/><use transform="matrix(0.05,0,0,0.05,94.5,0)" xlink:href="#bM"/><use transform="matrix(0.05,0,0,0.05,106.5,0)" xlink:href="#aX"/><use transform="matrix(0.05,0,0,0.05,116.5,0)" xlink:href="#be"/><use transform="matrix(0.05,0,0,0.05,125.5,0)" xlink:href="#bN"/><use transform="matrix(0.05,0,0,0.05,137.5,0)" xlink:href="#aK"/><use transform="matrix(0.05,0,0,0.05,143.45,0)" xlink:href="#aX"/><use transform="matrix(0.05,0,0,0.05,153.45,0)" xlink:href="#aI"/><use transform="matrix(0.05,0,0,0.05,162.45,0)" xlink:href="#aI"/><use transform="matrix(0.05,0,0,0.05,171.45,0)" xlink:href="#aX"/><use transform="matrix(0.05,0,0,0.05,181.45,0)" xlink:href="#bd"/><use transform="matrix(0.05,0,0,0.05,191.45,0)" xlink:href="#aZ"/><use transform="matrix(0.05,0,0,0.05,197.39999999999998,0)" xlink:href="#aL"/><use transform="matrix(0.05,0,0,0.05,206.39999999999998,0)" xlink:href="#aT"/><use transform="matrix(0.05,0,0,0.05,216.39999999999998,0)" xlink:href="#aG"/><use transform="matrix(0.05,0,0,0.05,226.39999999999998,0)" xlink:href="#aK"/><use transform="matrix(0.05,0,0,0.05,232.34999999999997,0)" xlink:href="#bf"/></g><path fill="#333" d="M30 0v-248h187v28H63v79h144v27H63v87h162V0H30" id="bO"/><g id="C"><use transform="matrix(0.05,0,0,0.05,0,0)" xlink:href="#bD"/><use transform="matrix(0.05,0,0,0.05,11.65,0)" xlink:href="#ba"/><use transform="matrix(0.05,0,0,0.05,15.600000000000001,0)" xlink:href="#aX"/><use transform="matrix(0.05,0,0,0.05,25.6,0)" xlink:href="#aV"/><use transform="matrix(0.05,0,0,0.05,38.550000000000004,0)" xlink:href="#bO"/><use transform="matrix(0.05,0,0,0.05,50.550000000000004,0)" xlink:href="#bk"/><use transform="matrix(0.05,0,0,0.05,59.550000000000004,0)" xlink:href="#aX"/><use transform="matrix(0.05,0,0,0.05,69.55000000000001,0)" xlink:href="#bb"/><use transform="matrix(0.05,0,0,0.05,79.55000000000001,0)" xlink:href="#aJ"/><use transform="matrix(0.05,0,0,0.05,84.55000000000001,0)" xlink:href="#aI"/><use transform="matrix(0.05,0,0,0.05,93.55000000000001,0)" xlink:href="#bm"/><use transform="matrix(0.05,0,0,0.05,106.5,0)" xlink:href="#aU"/><use transform="matrix(0.05,0,0,0.05,116.5,0)" xlink:href="#aJ"/><use transform="matrix(0.05,0,0,0.05,121.5,0)" xlink:href="#ba"/><use transform="matrix(0.05,0,0,0.05,125.45,0)" xlink:href="#bu"/><use transform="matrix(0.05,0,0,0.05,130.45000000000002,0)" xlink:href="#ba"/><use transform="matrix(0.05,0,0,0.05,134.4,0)" xlink:href="#aX"/><use transform="matrix(0.05,0,0,0.05,144.4,0)" xlink:href="#aK"/></g><use transform="matrix(0.05,0,0,0.05,0,0)" xlink:href="#bF" id="D"/><path fill="#333" d="M30 0v-248h33v221h125V0H30" id="bP"/><g id="E"><use transform="matrix(0.05,0,0,0.05,0,0)" xlink:href="#bs"/><use transform="matrix(0.05,0,0,0.05,10,0)" xlink:href="#aK"/><use transform="matrix(0.05,0,0,0.05,15.949999999999998,0)" xlink:href="#aX"/><use transform="matrix(0.05,0,0,0.05,25.950000000000003,0)" xlink:href="#aI"/><use transform="matrix(0.05,0,0,0.05,34.95,0)" xlink:href="#aX"/><use transform="matrix(0.05,0,0,0.05,44.95,0)" xlink:href="#bb"/><use transform="matrix(0.05,0,0,0.05,54.95,0)" xlink:href="#aJ"/><use transform="matrix(0.05,0,0,0.05,59.95,0)" xlink:href="#aX"/><use transform="matrix(0.05,0,0,0.05,69.95,0)" xlink:href="#aK"/><use transform="matrix(0.05,0,0,0.05,75.9,0)" xlink:href="#bP"/><use transform="matrix(0.05,0,0,0.05,85.9,0)" xlink:href="#ba"/><use transform="matrix(0.05,0,0,0.05,89.85000000000001,0)" xlink:href="#aI"/><use transform="matrix(0.05,0,0,0.05,98.85000000000001,0)" xlink:href="#aJ"/><use transform="matrix(0.05,0,0,0.05,103.85000000000001,0)" xlink:href="#aX"/><use transform="matrix(0.05,0,0,0.05,113.85000000000001,0)" xlink:href="#bb"/><use transform="matrix(0.05,0,0,0.05,123.85000000000001,0)" xlink:href="#aX"/><use transform="matrix(0.05,0,0,0.05,133.85000000000002,0)" xlink:href="#aK"/><use transform="matrix(0.05,0,0,0.05,139.8,0)" xlink:href="#bt"/></g><g id="F"><use transform="matrix(0.05,0,0,0.05,0,0)" xlink:href="#bp"/><use transform="matrix(0.05,0,0,0.05,5,0)" xlink:href="#bD"/><use transform="matrix(0.05,0,0,0.05,16.65,0)" xlink:href="#ba"/><use transform="matrix(0.05,0,0,0.05,20.599999999999998,0)" xlink:href="#aX"/><use transform="matrix(0.05,0,0,0.05,30.599999999999994,0)" xlink:href="#aV"/><use transform="matrix(0.05,0,0,0.05,43.55,0)" xlink:href="#bO"/><use transform="matrix(0.05,0,0,0.05,55.54999999999999,0)" xlink:href="#bk"/><use transform="matrix(0.05,0,0,0.05,64.55,0)" xlink:href="#aX"/><use transform="matrix(0.05,0,0,0.05,74.55,0)" xlink:href="#bb"/><use transform="matrix(0.05,0,0,0.05,84.55,0)" xlink:href="#aJ"/><use transform="matrix(0.05,0,0,0.05,89.55,0)" xlink:href="#aI"/><use transform="matrix(0.05,0,0,0.05,98.55,0)" xlink:href="#bn"/></g><g id="G"><use transform="matrix(0.05,0,0,0.05,0,0)" xlink:href="#aI"/><use transform="matrix(0.05,0,0,0.05,9,0)" xlink:href="#aX"/><use transform="matrix(0.05,0,0,0.05,19,0)" xlink:href="#aJ"/><use transform="matrix(0.05,0,0,0.05,24,0)" xlink:href="#bP"/><use transform="matrix(0.05,0,0,0.05,34,0)" xlink:href="#ba"/><use transform="matrix(0.05,0,0,0.05,37.95,0)" xlink:href="#aI"/><use transform="matrix(0.05,0,0,0.05,46.95,0)" xlink:href="#aJ"/><use transform="matrix(0.05,0,0,0.05,51.95,0)" xlink:href="#aX"/><use transform="matrix(0.05,0,0,0.05,61.95,0)" xlink:href="#bb"/><use transform="matrix(0.05,0,0,0.05,71.95,0)" xlink:href="#aX"/><use transform="matrix(0.05,0,0,0.05,81.95,0)" xlink:href="#aK"/><use transform="matrix(0.05,0,0,0.05,87.9,0)" xlink:href="#aZ"/><use transform="matrix(0.05,0,0,0.05,93.85000000000001,0)" xlink:href="#bp"/><use transform="matrix(0.05,0,0,0.05,98.85000000000001,0)" xlink:href="#bD"/><use transform="matrix(0.05,0,0,0.05,110.5,0)" xlink:href="#ba"/><use transform="matrix(0.05,0,0,0.05,114.45,0)" xlink:href="#aX"/><use transform="matrix(0.05,0,0,0.05,124.45,0)" xlink:href="#aV"/><use transform="matrix(0.05,0,0,0.05,137.4,0)" xlink:href="#bO"/><use transform="matrix(0.05,0,0,0.05,149.4,0)" xlink:href="#bk"/><use transform="matrix(0.05,0,0,0.05,158.4,0)" xlink:href="#aX"/><use transform="matrix(0.05,0,0,0.05,168.4,0)" xlink:href="#bb"/><use transform="matrix(0.05,0,0,0.05,178.4,0)" xlink:href="#aJ"/><use transform="matrix(0.05,0,0,0.05,183.4,0)" xlink:href="#aI"/><use transform="matrix(0.05,0,0,0.05,192.4,0)" xlink:href="#bn"/></g><use transform="matrix(0.05,0,0,0.05,0,0)" xlink:href="#bf" id="H"/><g id="I"><use transform="matrix(0.05,0,0,0.05,0,0)" xlink:href="#aX"/><use transform="matrix(0.05,0,0,0.05,10,0)" xlink:href="#aK"/><use transform="matrix(0.05,0,0,0.05,15.949999999999998,0)" xlink:href="#aG"/><use transform="matrix(0.05,0,0,0.05,25.950000000000003,0)" xlink:href="#aI"/><use transform="matrix(0.05,0,0,0.05,34.95,0)" xlink:href="#aX"/><use transform="matrix(0.05,0,0,0.05,44.95,0)" xlink:href="#bP"/><use transform="matrix(0.05,0,0,0.05,54.95,0)" xlink:href="#ba"/><use transform="matrix(0.05,0,0,0.05,58.900000000000006,0)" xlink:href="#aI"/><use transform="matrix(0.05,0,0,0.05,67.9,0)" xlink:href="#aJ"/><use transform="matrix(0.05,0,0,0.05,72.9,0)" xlink:href="#aX"/><use transform="matrix(0.05,0,0,0.05,82.9,0)" xlink:href="#bb"/><use transform="matrix(0.05,0,0,0.05,92.9,0)" xlink:href="#aX"/><use transform="matrix(0.05,0,0,0.05,102.9,0)" xlink:href="#aK"/><use transform="matrix(0.05,0,0,0.05,108.85000000000001,0)" xlink:href="#aZ"/><use transform="matrix(0.05,0,0,0.05,114.80000000000001,0)" xlink:href="#bf"/></g><g id="J"><use transform="matrix(0.05,0,0,0.05,0,0)" xlink:href="#bb"/><use transform="matrix(0.05,0,0,0.05,10,0)" xlink:href="#aU"/><use transform="matrix(0.05,0,0,0.05,20,0)" xlink:href="#aJ"/><use transform="matrix(0.05,0,0,0.05,25,0)" xlink:href="#ba"/><use transform="matrix(0.05,0,0,0.05,28.950000000000003,0)" xlink:href="#bu"/><use transform="matrix(0.05,0,0,0.05,33.95,0)" xlink:href="#be"/><use transform="matrix(0.05,0,0,0.05,42.95,0)" xlink:href="#bN"/><use transform="matrix(0.05,0,0,0.05,54.95,0)" xlink:href="#aK"/><use transform="matrix(0.05,0,0,0.05,60.900000000000006,0)" xlink:href="#aX"/><use transform="matrix(0.05,0,0,0.05,70.9,0)" xlink:href="#aI"/><use transform="matrix(0.05,0,0,0.05,79.9,0)" xlink:href="#aX"/><use transform="matrix(0.05,0,0,0.05,89.9,0)" xlink:href="#bb"/><use transform="matrix(0.05,0,0,0.05,99.9,0)" xlink:href="#aJ"/><use transform="matrix(0.05,0,0,0.05,104.9,0)" xlink:href="#aX"/><use transform="matrix(0.05,0,0,0.05,114.9,0)" xlink:href="#aK"/><use transform="matrix(0.05,0,0,0.05,120.85000000000001,0)" xlink:href="#aZ"/><use transform="matrix(0.05,0,0,0.05,126.80000000000001,0)" xlink:href="#bk"/><use transform="matrix(0.05,0,0,0.05,135.8,0)" xlink:href="#aU"/><use transform="matrix(0.05,0,0,0.05,145.8,0)" xlink:href="#ba"/><use transform="matrix(0.05,0,0,0.05,149.75,0)" xlink:href="#bd"/></g><g id="K"><use transform="matrix(0.05,0,0,0.05,0,0)" xlink:href="#aZ"/><use transform="matrix(0.05,0,0,0.05,5.95,0)" xlink:href="#bp"/><use transform="matrix(0.05,0,0,0.05,10.95,0)" xlink:href="#bD"/><use transform="matrix(0.05,0,0,0.05,22.6,0)" xlink:href="#ba"/><use transform="matrix(0.05,0,0,0.05,26.55,0)" xlink:href="#aX"/><use transform="matrix(0.05,0,0,0.05,36.55,0)" xlink:href="#aV"/><use transform="matrix(0.05,0,0,0.05,49.5,0)" xlink:href="#bO"/><use transform="matrix(0.05,0,0,0.05,61.5,0)" xlink:href="#bk"/><use transform="matrix(0.05,0,0,0.05,70.5,0)" xlink:href="#aX"/><use transform="matrix(0.05,0,0,0.05,80.5,0)" xlink:href="#bb"/><use transform="matrix(0.05,0,0,0.05,90.5,0)" xlink:href="#aJ"/><use transform="matrix(0.05,0,0,0.05,95.5,0)" xlink:href="#aI"/><use transform="matrix(0.05,0,0,0.05,104.5,0)" xlink:href="#bt"/><use transform="matrix(0.05,0,0,0.05,109.5,0)" xlink:href="#bt"/><use transform="matrix(0.05,0,0,0.05,114.5,0)" xlink:href="#bn"/></g><g id="L"><use transform="matrix(0.05,0,0,0.05,0,0)" xlink:href="#bs"/><use transform="matrix(0.05,0,0,0.05,10,0)" xlink:href="#bq"/><use transform="matrix(0.05,0,0,0.05,20.950000000000003,0)" xlink:href="#bb"/><use transform="matrix(0.05,0,0,0.05,30.950000000000003,0)" xlink:href="#bf"/><use transform="matrix(0.05,0,0,0.05,36.900000000000006,0)" xlink:href="#aZ"/><use transform="matrix(0.05,0,0,0.05,42.85000000000001,0)" xlink:href="#aL"/><use transform="matrix(0.05,0,0,0.05,51.85,0)" xlink:href="#aT"/><use transform="matrix(0.05,0,0,0.05,61.85,0)" xlink:href="#aG"/><use transform="matrix(0.05,0,0,0.05,71.85000000000001,0)" xlink:href="#aK"/><use transform="matrix(0.05,0,0,0.05,77.80000000000001,0)" xlink:href="#bf"/><use transform="matrix(0.05,0,0,0.05,83.75000000000001,0)" xlink:href="#bv"/></g><g id="M"><use transform="matrix(0.05,0,0,0.05,0,0)" xlink:href="#aL"/><use transform="matrix(0.05,0,0,0.05,9,0)" xlink:href="#aT"/><use transform="matrix(0.05,0,0,0.05,19,0)" xlink:href="#aG"/><use transform="matrix(0.05,0,0,0.05,29,0)" xlink:href="#aK"/><use transform="matrix(0.05,0,0,0.05,34.95,0)" xlink:href="#bf"/></g><g id="N"><use transform="matrix(0.05,0,0,0.05,0,0)" xlink:href="#bN"/><use transform="matrix(0.05,0,0,0.05,12,0)" xlink:href="#aK"/><use transform="matrix(0.05,0,0,0.05,17.95,0)" xlink:href="#aX"/><use transform="matrix(0.05,0,0,0.05,27.950000000000003,0)" xlink:href="#aI"/><use transform="matrix(0.05,0,0,0.05,36.95,0)" xlink:href="#aX"/><use transform="matrix(0.05,0,0,0.05,46.95,0)" xlink:href="#bb"/><use transform="matrix(0.05,0,0,0.05,56.95,0)" xlink:href="#aJ"/><use transform="matrix(0.05,0,0,0.05,61.95,0)" xlink:href="#aX"/><use transform="matrix(0.05,0,0,0.05,71.95,0)" xlink:href="#aK"/></g><g id="O"><use transform="matrix(0.05,0,0,0.05,0,0)" xlink:href="#bk"/><use transform="matrix(0.05,0,0,0.05,9,0)" xlink:href="#ba"/><use transform="matrix(0.05,0,0,0.05,12.949999999999998,0)" xlink:href="#aX"/><use transform="matrix(0.05,0,0,0.05,22.95,0)" xlink:href="#aV"/><use transform="matrix(0.05,0,0,0.05,35.9,0)" xlink:href="#bt"/></g><g id="P"><use transform="matrix(0.05,0,0,0.05,0,0)" xlink:href="#bp"/><use transform="matrix(0.05,0,0,0.05,5,0)" xlink:href="#bD"/><use transform="matrix(0.05,0,0,0.05,16.65,0)" xlink:href="#ba"/><use transform="matrix(0.05,0,0,0.05,20.599999999999998,0)" xlink:href="#aX"/><use transform="matrix(0.05,0,0,0.05,30.599999999999994,0)" xlink:href="#aV"/><use transform="matrix(0.05,0,0,0.05,43.55,0)" xlink:href="#bn"/></g><g id="Q"><use transform="matrix(0.05,0,0,0.05,0,0)" xlink:href="#aY"/><use transform="matrix(0.05,0,0,0.05,14.950000000000001,0)" xlink:href="#aU"/><use transform="matrix(0.05,0,0,0.05,24.950000000000003,0)" xlink:href="#bd"/><use transform="matrix(0.05,0,0,0.05,34.95,0)" xlink:href="#aX"/><use transform="matrix(0.05,0,0,0.05,44.95,0)" xlink:href="#aM"/><use transform="matrix(0.05,0,0,0.05,48.900000000000006,0)" xlink:href="#bt"/><use transform="matrix(0.05,0,0,0.05,58.900000000000006,0)" xlink:href="#bg"/><use transform="matrix(0.05,0,0,0.05,73.85000000000001,0)" xlink:href="#aU"/><use transform="matrix(0.05,0,0,0.05,83.85000000000001,0)" xlink:href="#bd"/><use transform="matrix(0.05,0,0,0.05,93.85000000000001,0)" xlink:href="#aX"/><use transform="matrix(0.05,0,0,0.05,103.85000000000001,0)" xlink:href="#aM"/><use transform="matrix(0.05,0,0,0.05,107.80000000000001,0)" xlink:href="#bn"/></g><path fill="#333" d="M205 0l-28-72H64L36 0H1l101-248h38L239 0h-34zm-38-99l-47-123c-12 45-31 82-46 123h93" id="bQ"/><path fill="#333" d="M9 0v-24l116-142H16v-24h144v24L44-24h123V0H9" id="bR"/><g id="R"><use transform="matrix(0.05,0,0,0.05,0,0)" xlink:href="#aI"/><use transform="matrix(0.05,0,0,0.05,9,0)" xlink:href="#aJ"/><use transform="matrix(0.05,0,0,0.05,14,0)" xlink:href="#aG"/><use transform="matrix(0.05,0,0,0.05,24,0)" xlink:href="#aK"/><use transform="matrix(0.05,0,0,0.05,29.950000000000003,0)" xlink:href="#aJ"/><use transform="matrix(0.05,0,0,0.05,34.95,0)" xlink:href="#bQ"/><use transform="matrix(0.05,0,0,0.05,46.95,0)" xlink:href="#bb"/><use transform="matrix(0.05,0,0,0.05,56.95,0)" xlink:href="#aG"/><use transform="matrix(0.05,0,0,0.05,66.95,0)" xlink:href="#aM"/><use transform="matrix(0.05,0,0,0.05,70.9,0)" xlink:href="#be"/><use transform="matrix(0.05,0,0,0.05,79.9,0)" xlink:href="#bR"/><use transform="matrix(0.05,0,0,0.05,88.9,0)" xlink:href="#aX"/><use transform="matrix(0.05,0,0,0.05,98.9,0)" xlink:href="#aZ"/><use transform="matrix(0.05,0,0,0.05,104.85000000000001,0)" xlink:href="#bf"/></g><g id="S"><use transform="matrix(0.05,0,0,0.05,0,0)" xlink:href="#bi"/><use transform="matrix(0.05,0,0,0.05,10,0)" xlink:href="#aI"/><use transform="matrix(0.05,0,0,0.05,19,0)" xlink:href="#aX"/></g><g id="T"><use transform="matrix(0.05,0,0,0.05,0,0)" xlink:href="#bg"/><use transform="matrix(0.05,0,0,0.05,14.950000000000001,0)" xlink:href="#aU"/><use transform="matrix(0.05,0,0,0.05,24.950000000000003,0)" xlink:href="#bd"/><use transform="matrix(0.05,0,0,0.05,34.95,0)" xlink:href="#aX"/><use transform="matrix(0.05,0,0,0.05,44.95,0)" xlink:href="#aM"/></g><g id="U"><use transform="matrix(0.05,0,0,0.05,0,0)" xlink:href="#bk"/><use transform="matrix(0.05,0,0,0.05,9,0)" xlink:href="#aX"/><use transform="matrix(0.05,0,0,0.05,19,0)" xlink:href="#aL"/><use transform="matrix(0.05,0,0,0.05,28,0)" xlink:href="#aJ"/><use transform="matrix(0.05,0,0,0.05,33,0)" xlink:href="#aU"/><use transform="matrix(0.05,0,0,0.05,43,0)" xlink:href="#aK"/><use transform="matrix(0.05,0,0,0.05,48.95,0)" xlink:href="#bl"/><use transform="matrix(0.05,0,0,0.05,59.45,0)" xlink:href="#bs"/><use transform="matrix(0.05,0,0,0.05,69.45,0)" xlink:href="#aG"/><use transform="matrix(0.05,0,0,0.05,79.45,0)" xlink:href="#ba"/><use transform="matrix(0.05,0,0,0.05,83.4,0)" xlink:href="#aK"/><use transform="matrix(0.05,0,0,0.05,89.35000000000001,0)" xlink:href="#bl"/><use transform="matrix(0.05,0,0,0.05,99.85000000000001,0)" xlink:href="#bs"/><use transform="matrix(0.05,0,0,0.05,109.85000000000001,0)" xlink:href="#aG"/><use transform="matrix(0.05,0,0,0.05,119.85000000000001,0)" xlink:href="#aJ"/><use transform="matrix(0.05,0,0,0.05,124.85000000000001,0)" xlink:href="#aT"/><use transform="matrix(0.05,0,0,0.05,134.85000000000002,0)" xlink:href="#bv"/></g><g id="V"><use transform="matrix(0.05,0,0,0.05,0,0)" xlink:href="#ba"/><use transform="matrix(0.05,0,0,0.05,3.95,0)" xlink:href="#bb"/><use transform="matrix(0.05,0,0,0.05,13.949999999999998,0)" xlink:href="#aJ"/><use transform="matrix(0.05,0,0,0.05,18.95,0)" xlink:href="#bo"/><use transform="matrix(0.05,0,0,0.05,29.450000000000003,0)" xlink:href="#bo"/></g><g id="W"><use transform="matrix(0.05,0,0,0.05,0,0)" xlink:href="#ba"/><use transform="matrix(0.05,0,0,0.05,3.95,0)" xlink:href="#bb"/><use transform="matrix(0.05,0,0,0.05,13.949999999999998,0)" xlink:href="#aL"/><use transform="matrix(0.05,0,0,0.05,22.95,0)" xlink:href="#aM"/><use transform="matrix(0.05,0,0,0.05,26.899999999999995,0)" xlink:href="#bi"/><use transform="matrix(0.05,0,0,0.05,36.9,0)" xlink:href="#bd"/><use transform="matrix(0.05,0,0,0.05,46.9,0)" xlink:href="#aX"/><use transform="matrix(0.05,0,0,0.05,56.900000000000006,0)" xlink:href="#bq"/><use transform="matrix(0.05,0,0,0.05,67.85,0)" xlink:href="#ba"/><use transform="matrix(0.05,0,0,0.05,71.8,0)" xlink:href="#aM"/><use transform="matrix(0.05,0,0,0.05,75.75,0)" xlink:href="#aX"/><use transform="matrix(0.05,0,0,0.05,85.75,0)" xlink:href="#aI"/></g><g id="X"><use transform="matrix(0.05,0,0,0.05,0,0)" xlink:href="#bk"/><use transform="matrix(0.05,0,0,0.05,9,0)" xlink:href="#aX"/><use transform="matrix(0.05,0,0,0.05,19,0)" xlink:href="#aL"/><use transform="matrix(0.05,0,0,0.05,28,0)" xlink:href="#aJ"/><use transform="matrix(0.05,0,0,0.05,33,0)" xlink:href="#aU"/><use transform="matrix(0.05,0,0,0.05,43,0)" xlink:href="#aK"/></g><g id="Y"><use transform="matrix(0.05,0,0,0.05,0,0)" xlink:href="#bl"/><use transform="matrix(0.05,0,0,0.05,10.5,0)" xlink:href="#bm"/><use transform="matrix(0.05,0,0,0.05,23.450000000000003,0)" xlink:href="#aU"/><use transform="matrix(0.05,0,0,0.05,33.45,0)" xlink:href="#bd"/><use transform="matrix(0.05,0,0,0.05,43.45,0)" xlink:href="#aX"/><use transform="matrix(0.05,0,0,0.05,53.45,0)" xlink:href="#bn"/><use transform="matrix(0.05,0,0,0.05,60.45,0)" xlink:href="#bo"/></g><g id="Z"><use transform="matrix(0.05,0,0,0.05,0,0)" xlink:href="#bb"/><use transform="matrix(0.05,0,0,0.05,10,0)" xlink:href="#aU"/><use transform="matrix(0.05,0,0,0.05,20,0)" xlink:href="#bd"/><use transform="matrix(0.05,0,0,0.05,30,0)" xlink:href="#aX"/><use transform="matrix(0.05,0,0,0.05,40,0)" xlink:href="#aI"/></g><path fill="#333" d="M143 0L79-87 56-68V0H24v-261h32v163l83-92h37l-77 82L181 0h-38" id="bS"/><g id="ab"><use transform="matrix(0.05,0,0,0.05,0,0)" xlink:href="#aY"/><use transform="matrix(0.05,0,0,0.05,14.950000000000001,0)" xlink:href="#aG"/><use transform="matrix(0.05,0,0,0.05,24.950000000000003,0)" xlink:href="#bS"/><use transform="matrix(0.05,0,0,0.05,33.95,0)" xlink:href="#aX"/><use transform="matrix(0.05,0,0,0.05,43.95,0)" xlink:href="#bj"/><use transform="matrix(0.05,0,0,0.05,54.25,0)" xlink:href="#aK"/><use transform="matrix(0.05,0,0,0.05,60.20000000000002,0)" xlink:href="#aX"/><use transform="matrix(0.05,0,0,0.05,70.20000000000002,0)" xlink:href="#aX"/><use transform="matrix(0.05,0,0,0.05,80.20000000000002,0)" xlink:href="#aZ"/><use transform="matrix(0.05,0,0,0.05,86.15000000000002,0)" xlink:href="#bm"/><use transform="matrix(0.05,0,0,0.05,99.10000000000002,0)" xlink:href="#aU"/><use transform="matrix(0.05,0,0,0.05,109.10000000000002,0)" xlink:href="#bd"/><use transform="matrix(0.05,0,0,0.05,119.10000000000002,0)" xlink:href="#aX"/><use transform="matrix(0.05,0,0,0.05,129.10000000000002,0)" xlink:href="#bn"/></g><use transform="matrix(0.05,0,0,0.05,0,0)" xlink:href="#bv" id="ac"/><g id="ad"><use transform="matrix(0.05,0,0,0.05,0,0)" xlink:href="#aL"/><use transform="matrix(0.05,0,0,0.05,9,0)" xlink:href="#aU"/><use transform="matrix(0.05,0,0,0.05,19,0)" xlink:href="#bb"/><use transform="matrix(0.05,0,0,0.05,29,0)" xlink:href="#aI"/><use transform="matrix(0.05,0,0,0.05,38,0)" xlink:href="#aJ"/></g><path fill="#333" d="M234-2c-28 10-62 0-77-18C117 19 8 12 13-65c3-43 29-61 60-76-25-40-17-114 47-108 35 3 59 15 59 50 0 44-40 53-71 69 14 26 32 50 51 72 14-21 24-43 30-72l26 8c-9 33-21 57-38 82 13 13 33 22 57 15v23zM97-151c25-10 52-18 56-48-1-18-13-29-33-29-42 0-39 50-23 77zM42-66c-3 51 71 58 98 28-20-24-41-51-56-80-23 10-40 24-42 52" id="bT"/><path fill="#333" d="M68-36c1 33-1 63-14 82H32c9-13 17-26 17-46H33v-36h35zM33-154v-36h35v36H33" id="bU"/><g id="ae"><use transform="matrix(0.05,0,0,0.05,0,0)" xlink:href="#bs"/><use transform="matrix(0.05,0,0,0.05,10,0)" xlink:href="#aG"/><use transform="matrix(0.05,0,0,0.05,20,0)" xlink:href="#aJ"/><use transform="matrix(0.05,0,0,0.05,25,0)" xlink:href="#aT"/><use transform="matrix(0.05,0,0,0.05,35,0)" xlink:href="#bT"/><use transform="matrix(0.05,0,0,0.05,47,0)" xlink:href="#bf"/><use transform="matrix(0.05,0,0,0.05,52.95,0)" xlink:href="#bU"/></g><g id="af"><use transform="matrix(0.05,0,0,0.05,0,0)" xlink:href="#aY"/><use transform="matrix(0.05,0,0,0.05,14.950000000000001,0)" xlink:href="#aG"/><use transform="matrix(0.05,0,0,0.05,24.950000000000003,0)" xlink:href="#bS"/><use transform="matrix(0.05,0,0,0.05,33.95,0)" xlink:href="#aX"/><use transform="matrix(0.05,0,0,0.05,43.95,0)" xlink:href="#bj"/><use transform="matrix(0.05,0,0,0.05,54.25,0)" xlink:href="#aK"/><use transform="matrix(0.05,0,0,0.05,60.20000000000002,0)" xlink:href="#aX"/><use transform="matrix(0.05,0,0,0.05,70.20000000000002,0)" xlink:href="#aX"/><use transform="matrix(0.05,0,0,0.05,80.20000000000002,0)" xlink:href="#aZ"/><use transform="matrix(0.05,0,0,0.05,86.15000000000002,0)" xlink:href="#aL"/><use transform="matrix(0.05,0,0,0.05,95.15000000000002,0)" xlink:href="#aU"/><use transform="matrix(0.05,0,0,0.05,105.15000000000003,0)" xlink:href="#bb"/><use transform="matrix(0.05,0,0,0.05,115.15000000000003,0)" xlink:href="#aI"/><use transform="matrix(0.05,0,0,0.05,124.15000000000003,0)" xlink:href="#aJ"/></g><g id="ag"><use transform="matrix(0.05,0,0,0.05,0,0)" xlink:href="#bm"/><use transform="matrix(0.05,0,0,0.05,12.950000000000001,0)" xlink:href="#aU"/><use transform="matrix(0.05,0,0,0.05,22.950000000000003,0)" xlink:href="#bd"/><use transform="matrix(0.05,0,0,0.05,32.95,0)" xlink:href="#aX"/></g><use transform="matrix(0.05,0,0,0.05,0,0)" xlink:href="#bn" id="ah"/><g id="ai"><use transform="matrix(0.05,0,0,0.05,0,0)" xlink:href="#bm"/><use transform="matrix(0.05,0,0,0.05,12.950000000000001,0)" xlink:href="#aU"/><use transform="matrix(0.05,0,0,0.05,22.950000000000003,0)" xlink:href="#bd"/><use transform="matrix(0.05,0,0,0.05,32.95,0)" xlink:href="#aX"/><use transform="matrix(0.05,0,0,0.05,42.95,0)" xlink:href="#bn"/></g><g id="aj"><use transform="matrix(0.05,0,0,0.05,0,0)" xlink:href="#bs"/><use transform="matrix(0.05,0,0,0.05,10,0)" xlink:href="#aG"/><use transform="matrix(0.05,0,0,0.05,20,0)" xlink:href="#aJ"/><use transform="matrix(0.05,0,0,0.05,25,0)" xlink:href="#aT"/><use transform="matrix(0.05,0,0,0.05,35,0)" xlink:href="#bT"/></g><g id="ak"><use transform="matrix(0.05,0,0,0.05,0,0)" xlink:href="#aH"/><use transform="matrix(0.05,0,0,0.05,10,0)" xlink:href="#aU"/><use transform="matrix(0.05,0,0,0.05,20,0)" xlink:href="#aU"/><use transform="matrix(0.05,0,0,0.05,30,0)" xlink:href="#aM"/><use transform="matrix(0.05,0,0,0.05,33.95,0)" xlink:href="#bf"/><use transform="matrix(0.05,0,0,0.05,39.900000000000006,0)" xlink:href="#bU"/></g><path fill="#333" d="M197 0v-115H63V0H30v-248h33v105h134v-105h34V0h-34" id="bV"/><g id="al"><use transform="matrix(0.05,0,0,0.05,0,0)" xlink:href="#bs"/><use transform="matrix(0.05,0,0,0.05,10,0)" xlink:href="#aG"/><use transform="matrix(0.05,0,0,0.05,20,0)" xlink:href="#aK"/><use transform="matrix(0.05,0,0,0.05,25.950000000000003,0)" xlink:href="#aL"/><use transform="matrix(0.05,0,0,0.05,34.95,0)" xlink:href="#aX"/><use transform="matrix(0.05,0,0,0.05,44.95,0)" xlink:href="#bq"/><use transform="matrix(0.05,0,0,0.05,55.900000000000006,0)" xlink:href="#ba"/><use transform="matrix(0.05,0,0,0.05,59.85,0)" xlink:href="#aM"/><use transform="matrix(0.05,0,0,0.05,63.80000000000001,0)" xlink:href="#aX"/><use transform="matrix(0.05,0,0,0.05,73.80000000000001,0)" xlink:href="#bV"/><use transform="matrix(0.05,0,0,0.05,86.75000000000001,0)" xlink:href="#aX"/><use transform="matrix(0.05,0,0,0.05,96.75000000000001,0)" xlink:href="#aG"/><use transform="matrix(0.05,0,0,0.05,106.75,0)" xlink:href="#bd"/><use transform="matrix(0.05,0,0,0.05,116.75,0)" xlink:href="#aX"/><use transform="matrix(0.05,0,0,0.05,126.75,0)" xlink:href="#aK"/><use transform="matrix(0.05,0,0,0.05,132.70000000000002,0)" xlink:href="#bP"/><use transform="matrix(0.05,0,0,0.05,142.70000000000002,0)" xlink:href="#ba"/><use transform="matrix(0.05,0,0,0.05,146.65,0)" xlink:href="#bb"/><use transform="matrix(0.05,0,0,0.05,156.65,0)" xlink:href="#aX"/><use transform="matrix(0.05,0,0,0.05,166.65,0)" xlink:href="#aZ"/><use transform="matrix(0.05,0,0,0.05,172.6,0)" xlink:href="#aI"/><use transform="matrix(0.05,0,0,0.05,181.6,0)" xlink:href="#aJ"/><use transform="matrix(0.05,0,0,0.05,186.6,0)" xlink:href="#aK"/><use transform="matrix(0.05,0,0,0.05,192.54999999999998,0)" xlink:href="#ba"/><use transform="matrix(0.05,0,0,0.05,196.49999999999997,0)" xlink:href="#bb"/><use transform="matrix(0.05,0,0,0.05,206.49999999999997,0)" xlink:href="#bc"/><use transform="matrix(0.05,0,0,0.05,216.49999999999997,0)" xlink:href="#bf"/><use transform="matrix(0.05,0,0,0.05,222.44999999999996,0)" xlink:href="#bt"/></g><g id="am"><use transform="matrix(0.05,0,0,0.05,0,0)" xlink:href="#bs"/><use transform="matrix(0.05,0,0,0.05,10,0)" xlink:href="#aG"/><use transform="matrix(0.05,0,0,0.05,20,0)" xlink:href="#ba"/><use transform="matrix(0.05,0,0,0.05,23.95,0)" xlink:href="#aK"/></g><path fill="#333" d="M233-177c-1 41-23 64-60 70L243 0h-38l-65-103H63V0H30v-248c88 3 205-21 203 71zM63-129c60-2 137 13 137-47 0-61-80-42-137-45v92" id="bW"/><path fill="#333" d="M141 0L90-78 38 0H4l68-98-65-92h35l48 74 47-74h35l-64 92 68 98h-35" id="bX"/><g id="an"><use transform="matrix(0.05,0,0,0.05,0,0)" xlink:href="#bl"/><use transform="matrix(0.05,0,0,0.05,10.5,0)" xlink:href="#bP"/><use transform="matrix(0.05,0,0,0.05,20.5,0)" xlink:href="#ba"/><use transform="matrix(0.05,0,0,0.05,24.45,0)" xlink:href="#bb"/><use transform="matrix(0.05,0,0,0.05,34.45,0)" xlink:href="#aX"/><use transform="matrix(0.05,0,0,0.05,44.45,0)" xlink:href="#bW"/><use transform="matrix(0.05,0,0,0.05,57.400000000000006,0)" xlink:href="#aX"/><use transform="matrix(0.05,0,0,0.05,67.4,0)" xlink:href="#bc"/><use transform="matrix(0.05,0,0,0.05,77.4,0)" xlink:href="#bO"/><use transform="matrix(0.05,0,0,0.05,89.4,0)" xlink:href="#bX"/><use transform="matrix(0.05,0,0,0.05,98.4,0)" xlink:href="#bs"/><use transform="matrix(0.05,0,0,0.05,108.4,0)" xlink:href="#bh"/><use transform="matrix(0.05,0,0,0.05,120.4,0)" xlink:href="#aJ"/><use transform="matrix(0.05,0,0,0.05,125.4,0)" xlink:href="#aG"/><use transform="matrix(0.05,0,0,0.05,135.4,0)" xlink:href="#aJ"/><use transform="matrix(0.05,0,0,0.05,140.4,0)" xlink:href="#bi"/><use transform="matrix(0.05,0,0,0.05,150.4,0)" xlink:href="#aI"/><use transform="matrix(0.05,0,0,0.05,159.4,0)" xlink:href="#bv"/></g><g id="ao"><use transform="matrix(0.05,0,0,0.05,0,0)" xlink:href="#aI"/><use transform="matrix(0.05,0,0,0.05,9,0)" xlink:href="#aJ"/><use transform="matrix(0.05,0,0,0.05,14,0)" xlink:href="#aK"/><use transform="matrix(0.05,0,0,0.05,19.95,0)" xlink:href="#ba"/><use transform="matrix(0.05,0,0,0.05,23.9,0)" xlink:href="#bb"/><use transform="matrix(0.05,0,0,0.05,33.9,0)" xlink:href="#bc"/><use transform="matrix(0.05,0,0,0.05,43.9,0)" xlink:href="#bo"/></g><g id="ap"><use transform="matrix(0.05,0,0,0.05,0,0)" xlink:href="#bc"/><use transform="matrix(0.05,0,0,0.05,10,0)" xlink:href="#aX"/><use transform="matrix(0.05,0,0,0.05,20,0)" xlink:href="#aJ"/><use transform="matrix(0.05,0,0,0.05,25,0)" xlink:href="#bp"/><use transform="matrix(0.05,0,0,0.05,30,0)" xlink:href="#bb"/><use transform="matrix(0.05,0,0,0.05,40,0)" xlink:href="#aL"/><use transform="matrix(0.05,0,0,0.05,49,0)" xlink:href="#aM"/><use transform="matrix(0.05,0,0,0.05,52.95,0)" xlink:href="#bi"/><use transform="matrix(0.05,0,0,0.05,62.95,0)" xlink:href="#bd"/><use transform="matrix(0.05,0,0,0.05,72.95,0)" xlink:href="#aX"/><use transform="matrix(0.05,0,0,0.05,82.95,0)" xlink:href="#bq"/><use transform="matrix(0.05,0,0,0.05,93.9,0)" xlink:href="#ba"/><use transform="matrix(0.05,0,0,0.05,97.85000000000001,0)" xlink:href="#aM"/><use transform="matrix(0.05,0,0,0.05,101.80000000000001,0)" xlink:href="#aX"/><use transform="matrix(0.05,0,0,0.05,111.80000000000001,0)" xlink:href="#aI"/><use transform="matrix(0.05,0,0,0.05,120.80000000000001,0)" xlink:href="#bq"/><use transform="matrix(0.05,0,0,0.05,131.75,0)" xlink:href="#aK"/><use transform="matrix(0.05,0,0,0.05,137.7,0)" xlink:href="#aX"/><use transform="matrix(0.05,0,0,0.05,147.7,0)" xlink:href="#br"/><use transform="matrix(0.05,0,0,0.05,157.7,0)" xlink:href="#aZ"/><use transform="matrix(0.05,0,0,0.05,163.64999999999998,0)" xlink:href="#bf"/><use transform="matrix(0.05,0,0,0.05,169.59999999999997,0)" xlink:href="#bt"/></g><g id="aq"><use transform="matrix(0.05,0,0,0.05,0,0)" xlink:href="#ba"/><use transform="matrix(0.05,0,0,0.05,3.95,0)" xlink:href="#bb"/><use transform="matrix(0.05,0,0,0.05,13.949999999999998,0)" xlink:href="#aJ"/><use transform="matrix(0.05,0,0,0.05,18.95,0)" xlink:href="#bo"/><use transform="matrix(0.05,0,0,0.05,29.450000000000003,0)" xlink:href="#bo"/></g><g id="ar"><use transform="matrix(0.05,0,0,0.05,0,0)" xlink:href="#bc"/><use transform="matrix(0.05,0,0,0.05,10,0)" xlink:href="#aX"/><use transform="matrix(0.05,0,0,0.05,20,0)" xlink:href="#aJ"/><use transform="matrix(0.05,0,0,0.05,25,0)" xlink:href="#bj"/><use transform="matrix(0.05,0,0,0.05,35.300000000000004,0)" xlink:href="#aK"/><use transform="matrix(0.05,0,0,0.05,41.25000000000001,0)" xlink:href="#aX"/><use transform="matrix(0.05,0,0,0.05,51.25,0)" xlink:href="#aX"/><use transform="matrix(0.05,0,0,0.05,61.25,0)" xlink:href="#bm"/><use transform="matrix(0.05,0,0,0.05,74.2,0)" xlink:href="#aU"/><use transform="matrix(0.05,0,0,0.05,84.2,0)" xlink:href="#bd"/><use transform="matrix(0.05,0,0,0.05,94.2,0)" xlink:href="#aX"/><use transform="matrix(0.05,0,0,0.05,104.2,0)" xlink:href="#aI"/><use transform="matrix(0.05,0,0,0.05,113.2,0)" xlink:href="#aZ"/><use transform="matrix(0.05,0,0,0.05,119.15,0)" xlink:href="#bf"/><use transform="matrix(0.05,0,0,0.05,125.10000000000001,0)" xlink:href="#bt"/><use transform="matrix(0.05,0,0,0.05,135.10000000000002,0)" xlink:href="#bk"/><use transform="matrix(0.05,0,0,0.05,144.10000000000002,0)" xlink:href="#aX"/><use transform="matrix(0.05,0,0,0.05,154.10000000000002,0)" xlink:href="#aL"/><use transform="matrix(0.05,0,0,0.05,163.10000000000002,0)" xlink:href="#aJ"/><use transform="matrix(0.05,0,0,0.05,168.10000000000002,0)" xlink:href="#aU"/><use transform="matrix(0.05,0,0,0.05,178.10000000000002,0)" xlink:href="#aK"/></g><g id="as"><use transform="matrix(0.05,0,0,0.05,0,0)" xlink:href="#bl"/><use transform="matrix(0.05,0,0,0.05,10.5,0)" xlink:href="#bm"/><use transform="matrix(0.05,0,0,0.05,23.450000000000003,0)" xlink:href="#aU"/><use transform="matrix(0.05,0,0,0.05,33.45,0)" xlink:href="#bd"/><use transform="matrix(0.05,0,0,0.05,43.45,0)" xlink:href="#aX"/><use transform="matrix(0.05,0,0,0.05,53.45,0)" xlink:href="#bn"/><use transform="matrix(0.05,0,0,0.05,60.45,0)" xlink:href="#bo"/></g><g id="at"><use transform="matrix(0.05,0,0,0.05,0,0)" xlink:href="#aI"/><use transform="matrix(0.05,0,0,0.05,9,0)" xlink:href="#aJ"/><use transform="matrix(0.05,0,0,0.05,14,0)" xlink:href="#aG"/><use transform="matrix(0.05,0,0,0.05,24,0)" xlink:href="#aK"/><use transform="matrix(0.05,0,0,0.05,29.950000000000003,0)" xlink:href="#aJ"/><use transform="matrix(0.05,0,0,0.05,34.95,0)" xlink:href="#bQ"/><use transform="matrix(0.05,0,0,0.05,46.95,0)" xlink:href="#bb"/><use transform="matrix(0.05,0,0,0.05,56.95,0)" xlink:href="#aG"/><use transform="matrix(0.05,0,0,0.05,66.95,0)" xlink:href="#aM"/><use transform="matrix(0.05,0,0,0.05,70.9,0)" xlink:href="#be"/><use transform="matrix(0.05,0,0,0.05,79.9,0)" xlink:href="#bR"/><use transform="matrix(0.05,0,0,0.05,88.9,0)" xlink:href="#aX"/></g><g id="au"><use transform="matrix(0.05,0,0,0.05,0,0)" xlink:href="#aZ"/><use transform="matrix(0.05,0,0,0.05,5.95,0)" xlink:href="#bf"/></g><path d="M137-138c1-29-70-34-71-4 15 46 118 7 119 86 1 83-164 76-172 9l43-7c4 19 20 25 44 25 33 8 57-30 24-41C81-84 22-81 20-136c-2-80 154-74 161-7" id="bY"/><path d="M115-3C79 11 28 4 28-45v-112H4v-33h27l15-45h31v45h36v33H77v99c-1 23 16 31 38 25v30" id="bZ"/><path d="M135-150c-39-12-60 13-60 57V0H25l-1-190h47c2 13-1 29 3 40 6-28 27-53 61-41v41" id="ca"/><path d="M85 4C-2 5 27-109 22-190h50c7 57-23 150 33 157 60-5 35-97 40-157h50l1 190h-47c-2-12 1-28-3-38-12 25-28 42-61 42" id="cb"/><path d="M190-63c-7 42-38 67-86 67-59 0-84-38-90-98-12-110 154-137 174-36l-49 2c-2-19-15-32-35-32-30 0-35 28-38 64-6 74 65 87 74 30" id="cc"/><g id="av"><use transform="matrix(0.05,0,0,0.05,0,0)" xlink:href="#bY"/><use transform="matrix(0.05,0,0,0.05,10,0)" xlink:href="#bZ"/><use transform="matrix(0.05,0,0,0.05,15.949999999999998,0)" xlink:href="#ca"/><use transform="matrix(0.05,0,0,0.05,22.95,0)" xlink:href="#cb"/><use transform="matrix(0.05,0,0,0.05,33.9,0)" xlink:href="#cc"/><use transform="matrix(0.05,0,0,0.05,43.9,0)" xlink:href="#bZ"/></g><path d="M175 0L67-191c6 58 2 128 3 191H24v-248h59L193-55c-6-58-2-129-3-193h46V0h-61" id="cd"/><path d="M110-194c64 0 96 36 96 99 0 64-35 99-97 99-61 0-95-36-95-99 0-62 34-99 96-99zm-1 164c35 0 45-28 45-65 0-40-10-65-43-65-34 0-45 26-45 65 0 36 10 65 43 65" id="ce"/><path d="M88-194c31-1 46 15 58 34l-1-101h50l1 261h-48c-2-10 0-23-3-31C134-8 116 4 84 4 32 4 16-41 15-95c0-56 19-97 73-99zm17 164c33 0 40-30 41-66 1-37-9-64-41-64s-38 30-39 65c0 43 13 65 39 65" id="cf"/><path d="M185-48c-13 30-37 53-82 52C43 2 14-33 14-96s30-98 90-98c62 0 83 45 84 108H66c0 31 8 55 39 56 18 0 30-7 34-22zm-45-69c5-46-57-63-70-21-2 6-4 13-4 21h74" id="cg"/><g id="aw"><use transform="matrix(0.05,0,0,0.05,0,0)" xlink:href="#cd"/><use transform="matrix(0.05,0,0,0.05,12.950000000000001,0)" xlink:href="#ce"/><use transform="matrix(0.05,0,0,0.05,23.900000000000002,0)" xlink:href="#cf"/><use transform="matrix(0.05,0,0,0.05,34.85,0)" xlink:href="#cg"/></g><g id="ax"><use transform="matrix(0.05,0,0,0.05,0,0)" xlink:href="#bb"/><use transform="matrix(0.05,0,0,0.05,10,0)" xlink:href="#aU"/><use transform="matrix(0.05,0,0,0.05,20,0)" xlink:href="#bd"/><use transform="matrix(0.05,0,0,0.05,30,0)" xlink:href="#aX"/><use transform="matrix(0.05,0,0,0.05,40,0)" xlink:href="#bN"/><use transform="matrix(0.05,0,0,0.05,52,0)" xlink:href="#aG"/><use transform="matrix(0.05,0,0,0.05,62,0)" xlink:href="#aJ"/><use transform="matrix(0.05,0,0,0.05,67,0)" xlink:href="#aT"/><use transform="matrix(0.05,0,0,0.05,77,0)" xlink:href="#bt"/></g><g id="ay"><use transform="matrix(0.05,0,0,0.05,0,0)" xlink:href="#aI"/><use transform="matrix(0.05,0,0,0.05,9,0)" xlink:href="#aJ"/><use transform="matrix(0.05,0,0,0.05,14,0)" xlink:href="#bd"/><use transform="matrix(0.05,0,0,0.05,24,0)" xlink:href="#bt"/><use transform="matrix(0.05,0,0,0.05,29,0)" xlink:href="#bt"/><use transform="matrix(0.05,0,0,0.05,34,0)" xlink:href="#bu"/><use transform="matrix(0.05,0,0,0.05,39,0)" xlink:href="#ba"/><use transform="matrix(0.05,0,0,0.05,42.95,0)" xlink:href="#aM"/><use transform="matrix(0.05,0,0,0.05,46.900000000000006,0)" xlink:href="#aX"/><use transform="matrix(0.05,0,0,0.05,56.900000000000006,0)" xlink:href="#aI"/><use transform="matrix(0.05,0,0,0.05,65.9,0)" xlink:href="#be"/><use transform="matrix(0.05,0,0,0.05,74.9,0)" xlink:href="#aI"/><use transform="matrix(0.05,0,0,0.05,83.9,0)" xlink:href="#aJ"/><use transform="matrix(0.05,0,0,0.05,88.9,0)" xlink:href="#aX"/><use transform="matrix(0.05,0,0,0.05,98.9,0)" xlink:href="#aY"/><use transform="matrix(0.05,0,0,0.05,113.85000000000001,0)" xlink:href="#bt"/><use transform="matrix(0.05,0,0,0.05,118.85000000000001,0)" xlink:href="#bt"/><use transform="matrix(0.05,0,0,0.05,123.85000000000001,0)" xlink:href="#bs"/><use transform="matrix(0.05,0,0,0.05,133.85000000000002,0)" xlink:href="#aG"/><use transform="matrix(0.05,0,0,0.05,143.85000000000002,0)" xlink:href="#aJ"/><use transform="matrix(0.05,0,0,0.05,148.85000000000002,0)" xlink:href="#aT"/></g><path fill="#333" d="M140-251c81 0 123 46 123 126C263-46 219 4 140 4 59 4 17-45 17-125s42-126 123-126zm0 227c63 0 89-41 89-101s-29-99-89-99c-61 0-89 39-89 99S79-25 140-24" id="ch"/><g id="az"><use transform="matrix(0.05,0,0,0.05,0,0)" xlink:href="#ba"/><use transform="matrix(0.05,0,0,0.05,3.95,0)" xlink:href="#aI"/><use transform="matrix(0.05,0,0,0.05,12.949999999999998,0)" xlink:href="#bq"/><use transform="matrix(0.05,0,0,0.05,23.9,0)" xlink:href="#aU"/><use transform="matrix(0.05,0,0,0.05,33.9,0)" xlink:href="#bi"/><use transform="matrix(0.05,0,0,0.05,43.9,0)" xlink:href="#bb"/><use transform="matrix(0.05,0,0,0.05,53.900000000000006,0)" xlink:href="#bd"/><use transform="matrix(0.05,0,0,0.05,63.900000000000006,0)" xlink:href="#ch"/><use transform="matrix(0.05,0,0,0.05,77.9,0)" xlink:href="#bb"/><use transform="matrix(0.05,0,0,0.05,87.9,0)" xlink:href="#bq"/><use transform="matrix(0.05,0,0,0.05,98.85000000000001,0)" xlink:href="#ba"/><use transform="matrix(0.05,0,0,0.05,102.80000000000001,0)" xlink:href="#aM"/><use transform="matrix(0.05,0,0,0.05,106.75,0)" xlink:href="#aX"/><use transform="matrix(0.05,0,0,0.05,116.75,0)" xlink:href="#aI"/><use transform="matrix(0.05,0,0,0.05,125.75,0)" xlink:href="#be"/><use transform="matrix(0.05,0,0,0.05,134.75,0)" xlink:href="#aI"/><use transform="matrix(0.05,0,0,0.05,143.75,0)" xlink:href="#aJ"/><use transform="matrix(0.05,0,0,0.05,148.75,0)" xlink:href="#aX"/><use transform="matrix(0.05,0,0,0.05,158.75,0)" xlink:href="#aY"/><use transform="matrix(0.05,0,0,0.05,173.7,0)" xlink:href="#bt"/></g><g id="aA"><use transform="matrix(0.05,0,0,0.05,0,0)" xlink:href="#aH"/><use transform="matrix(0.05,0,0,0.05,10,0)" xlink:href="#aU"/><use transform="matrix(0.05,0,0,0.05,20,0)" xlink:href="#aU"/><use transform="matrix(0.05,0,0,0.05,30,0)" xlink:href="#aM"/></g><path fill="#333" d="M30-248c118-7 216 8 213 122C240-48 200 0 122 0H30v-248zM63-27c89 8 146-16 146-99s-60-101-146-95v194" id="ci"/><g id="aC"><use transform="matrix(0.05,0,0,0.05,0,0)" xlink:href="#ba"/><use transform="matrix(0.05,0,0,0.05,3.95,0)" xlink:href="#aI"/><use transform="matrix(0.05,0,0,0.05,12.949999999999998,0)" xlink:href="#ci"/><use transform="matrix(0.05,0,0,0.05,25.899999999999995,0)" xlink:href="#bi"/><use transform="matrix(0.05,0,0,0.05,35.9,0)" xlink:href="#bs"/><use transform="matrix(0.05,0,0,0.05,45.9,0)" xlink:href="#aM"/><use transform="matrix(0.05,0,0,0.05,49.85,0)" xlink:href="#ba"/><use transform="matrix(0.05,0,0,0.05,53.800000000000004,0)" xlink:href="#aL"/><use transform="matrix(0.05,0,0,0.05,62.800000000000004,0)" xlink:href="#aG"/><use transform="matrix(0.05,0,0,0.05,72.80000000000001,0)" xlink:href="#aJ"/><use transform="matrix(0.05,0,0,0.05,77.80000000000001,0)" xlink:href="#aX"/><use transform="matrix(0.05,0,0,0.05,87.80000000000001,0)" xlink:href="#bt"/></g><g id="aD"><use transform="matrix(0.05,0,0,0.05,0,0)" xlink:href="#aH"/><use transform="matrix(0.05,0,0,0.05,10,0)" xlink:href="#aU"/><use transform="matrix(0.05,0,0,0.05,20,0)" xlink:href="#aU"/><use transform="matrix(0.05,0,0,0.05,30,0)" xlink:href="#aM"/></g><g id="aE"><use transform="matrix(0.05,0,0,0.05,0,0)" xlink:href="#aL"/><use transform="matrix(0.05,0,0,0.05,9,0)" xlink:href="#aT"/><use transform="matrix(0.05,0,0,0.05,19,0)" xlink:href="#ba"/><use transform="matrix(0.05,0,0,0.05,22.95,0)" xlink:href="#aM"/><use transform="matrix(0.05,0,0,0.05,26.899999999999995,0)" xlink:href="#bd"/><use transform="matrix(0.05,0,0,0.05,36.9,0)" xlink:href="#aI"/><use transform="matrix(0.05,0,0,0.05,45.9,0)" xlink:href="#bt"/></g><g id="aF"><use transform="matrix(0.05,0,0,0.05,0,0)" xlink:href="#aI"/><use transform="matrix(0.05,0,0,0.05,9,0)" xlink:href="#aJ"/><use transform="matrix(0.05,0,0,0.05,14,0)" xlink:href="#bd"/><use transform="matrix(0.05,0,0,0.05,24,0)" xlink:href="#bt"/><use transform="matrix(0.05,0,0,0.05,29,0)" xlink:href="#bt"/><use transform="matrix(0.05,0,0,0.05,34,0)" xlink:href="#bk"/><use transform="matrix(0.05,0,0,0.05,43,0)" xlink:href="#aX"/><use transform="matrix(0.05,0,0,0.05,53,0)" xlink:href="#aL"/><use transform="matrix(0.05,0,0,0.05,62,0)" xlink:href="#aJ"/><use transform="matrix(0.05,0,0,0.05,67,0)" xlink:href="#aU"/><use transform="matrix(0.05,0,0,0.05,77,0)" xlink:href="#aK"/><use transform="matrix(0.05,0,0,0.05,82.95,0)" xlink:href="#bl"/><use transform="matrix(0.05,0,0,0.05,93.45,0)" xlink:href="#bm"/><use transform="matrix(0.05,0,0,0.05,106.4,0)" xlink:href="#aU"/><use transform="matrix(0.05,0,0,0.05,116.4,0)" xlink:href="#bd"/><use transform="matrix(0.05,0,0,0.05,126.4,0)" xlink:href="#aX"/><use transform="matrix(0.05,0,0,0.05,136.4,0)" xlink:href="#bn"/><use transform="matrix(0.05,0,0,0.05,143.4,0)" xlink:href="#bo"/></g></defs></g></svg>