<svg xmlns="http://www.w3.org/2000/svg" xmlns:xlink="http://www.w3.org/1999/xlink" xmlns:lucid="lucid" width="1740" height="700"><g transform="translate(-20 -100)" lucid:page-tab-id="HWEp-vi-RSFO"><path d="M40 405.5h620v197H40z" stroke="#333" stroke-width="3" fill="#fff"/><path d="M40 464.7h620" stroke="#333" stroke-width="3" fill="none"/><use xlink:href="#a" transform="matrix(1,0,0,1,48,413.5) translate(270.025 14.799999999999999)"/><use xlink:href="#b" transform="matrix(1,0,0,1,48,413.5) translate(280.225 36.4)"/><use xlink:href="#c" transform="matrix(1,0,0,1,52,472.7) translate(0 32.19999999999999)"/><use xlink:href="#d" transform="matrix(1,0,0,1,52,472.7) translate(15.5 32.19999999999999)"/><use xlink:href="#e" transform="matrix(1,0,0,1,52,472.7) translate(186.79999999999998 32.19999999999999)"/><use xlink:href="#c" transform="matrix(1,0,0,1,52,472.7) translate(0 53.79999999999999)"/><use xlink:href="#f" transform="matrix(1,0,0,1,52,472.7) translate(15.5 53.79999999999999)"/><use xlink:href="#c" transform="matrix(1,0,0,1,52,472.7) translate(0 75.39999999999999)"/><use xlink:href="#g" transform="matrix(1,0,0,1,52,472.7) translate(15.5 75.39999999999999)"/><use xlink:href="#h" transform="matrix(1,0,0,1,52,472.7) translate(228.54999999999998 75.39999999999999)"/><use xlink:href="#i" transform="matrix(1,0,0,1,52,472.7) translate(288.45 75.39999999999999)"/><use xlink:href="#j" transform="matrix(1,0,0,1,52,472.7) translate(346.9 75.39999999999999)"/><use xlink:href="#c" transform="matrix(1,0,0,1,52,472.7) translate(0 97)"/><use xlink:href="#k" transform="matrix(1,0,0,1,52,472.7) translate(15.5 97)"/><use xlink:href="#l" transform="matrix(1,0,0,1,52,472.7) translate(488.8999999999999 97)"/><path d="M940 411.5V405m0-13v-13m0-13v-13.02m0-13v-13m0-13v-6.52" stroke="#333" stroke-width="3" fill="none"/><path d="M941.5 413h-3v-1.54h3z" stroke="#333" stroke-width=".05" fill="#333"/><path d="M940 284.45l12.73 21.5h-25.46z" stroke="#333" stroke-width="3" fill="#fff"/><path d="M339.95 677v-5.88m0-11.76V647.6m0-11.75v-5.88" stroke="#333" stroke-width="3" fill="none"/><path d="M341.45 676.96v1.54h-3v-1.54z" stroke="#333" stroke-width=".05" fill="#333"/><path d="M339.95 606.95l12.73 21.5h-25.46zM760 159h360v121H760z" stroke="#333" stroke-width="3" fill="#fff"/><path d="M760 218.2h360" stroke="#333" stroke-width="3" fill="none"/><use xlink:href="#a" transform="matrix(1,0,0,1,768,166.99999999999997) translate(140.025 14.799999999999999)"/><use xlink:href="#m" transform="matrix(1,0,0,1,768,166.99999999999997) translate(122.725 36.4)"/><use xlink:href="#n" transform="matrix(1,0,0,1,772,226.2) translate(0 26.6)"/><use xlink:href="#o" transform="matrix(1,0,0,1,772,226.2) translate(15.5 26.6)"/><path d="M95 120h510v199H95z" stroke="#333" stroke-width="3" fill="#fff"/><path d="M95 157.6h510M95 216.7h510" stroke="#333" stroke-width="3" fill="none"/><use xlink:href="#p" transform="matrix(1,0,0,1,103,128) translate(171.825 14.6)"/><use xlink:href="#q" transform="matrix(1,0,0,1,107,165.6) translate(0 25.6)"/><use xlink:href="#r" transform="matrix(1,0,0,1,107,165.6) translate(10.95 25.6)"/><use xlink:href="#s" transform="matrix(1,0,0,1,107,165.6) translate(160.75 25.6)"/><use xlink:href="#n" transform="matrix(1,0,0,1,107,224.7) translate(0 25.5)"/><use xlink:href="#t" transform="matrix(1,0,0,1,107,224.7) translate(15.5 25.5)"/><use xlink:href="#u" transform="matrix(1,0,0,1,107,224.7) translate(219.9 25.5)"/><use xlink:href="#n" transform="matrix(1,0,0,1,107,224.7) translate(0 47.1)"/><use xlink:href="#v" transform="matrix(1,0,0,1,107,224.7) translate(15.5 47.1)"/><use xlink:href="#n" transform="matrix(1,0,0,1,107,224.7) translate(0 68.7)"/><use xlink:href="#w" transform="matrix(1,0,0,1,107,224.7) translate(15.5 68.7)"/><use xlink:href="#x" transform="matrix(1,0,0,1,107,224.7) translate(180.25 68.7)"/><use xlink:href="#y" transform="matrix(1,0,0,1,107,224.7) translate(306.75 68.7)"/><use xlink:href="#z" transform="matrix(1,0,0,1,107,224.7) translate(400.5 68.7)"/><path d="M760 414.5h360v177H760z" stroke="#333" stroke-width="3" fill="#fff"/><path d="M760 452.1h360m-360 80.7h360" stroke="#333" stroke-width="3" fill="none"/><use xlink:href="#A" transform="matrix(1,0,0,1,768,422.5) translate(133.05 14.6)"/><use xlink:href="#q" transform="matrix(1,0,0,1,772,460.1) translate(0 25.299999999999997)"/><use xlink:href="#B" transform="matrix(1,0,0,1,772,460.1) translate(10.95 25.299999999999997)"/><use xlink:href="#C" transform="matrix(1,0,0,1,772,460.1) translate(56.849999999999994 25.299999999999997)"/><use xlink:href="#q" transform="matrix(1,0,0,1,772,460.1) translate(0 46.9)"/><use xlink:href="#D" transform="matrix(1,0,0,1,772,460.1) translate(10.95 46.9)"/><use xlink:href="#n" transform="matrix(1,0,0,1,772,540.8000000000001) translate(0 25.6)"/><use xlink:href="#E" transform="matrix(1,0,0,1,772,540.8000000000001) translate(15.5 25.6)"/><path d="M350 402.5v-56.04" stroke="#333" stroke-width="3" fill="none"/><path d="M351.5 404h-3v-1.54h3z" stroke="#333" stroke-width=".05" fill="#333"/><path d="M350 323.45l12.73 21.5h-25.46z" stroke="#333" stroke-width="3" fill="#fff"/><path d="M757 221h-6.16v-3H757zm-18.47 0H726.2v-3h12.33zm-24.63 0h-12.3v-3h12.3zm-49.26 0h-12.3v-3h12.3zM640 221h-12.3v-3H640zm-24.62 0h-6.15v-3h6.15z" stroke="#333" stroke-width=".05" fill="#333"/><path d="M758.5 221h-1.54v-3h1.54z" fill="#333"/><path d="M758.52 221.03h-1.58v-3.06h1.58zm-1.53-3v2.94h1.48v-2.94zM627.42 210.6l-15.03 8.9 15.02 8.9-1.52 2.57-19.4-11.47 19.4-11.47z" stroke="#333" stroke-width=".05" fill="#333"/><g><use xlink:href="#F" transform="matrix(1,0,0,1,668,208.69999999999996) translate(0 14.4)"/></g><path d="M727.38 503.32L663 504" stroke="#333" stroke-width="3" fill="none"/><path d="M756.38 503.02l-14.7 15-15.3-14.7 15-15z" stroke="#333" stroke-width="3" fill="#fff"/><path d="M663.05 505.48l-1.55.02v-3l1.52-.02z" stroke="#333" stroke-width=".05" fill="#333"/><path d="M1180 120.5h560v285h-560z" stroke="#333" stroke-width="3" fill="#fff"/><path d="M1180 158.1h560m-560 80.7h560" stroke="#333" stroke-width="3" fill="none"/><g><use xlink:href="#G" transform="matrix(1,0,0,1,1188,128.5) translate(247.55 14.6)"/></g><g><use xlink:href="#q" transform="matrix(1,0,0,1,1192,166.1) translate(0 25.299999999999997)"/><use xlink:href="#H" transform="matrix(1,0,0,1,1192,166.1) translate(10.95 25.299999999999997)"/><use xlink:href="#I" transform="matrix(1,0,0,1,1192,166.1) translate(155.8 25.299999999999997)"/><use xlink:href="#J" transform="matrix(1,0,0,1,1192,166.1) translate(200.75 25.299999999999997)"/><use xlink:href="#q" transform="matrix(1,0,0,1,1192,166.1) translate(0 46.9)"/><use xlink:href="#K" transform="matrix(1,0,0,1,1192,166.1) translate(10.95 46.9)"/><use xlink:href="#L" transform="matrix(1,0,0,1,1192,166.1) translate(64.9 46.9)"/><use xlink:href="#M" transform="matrix(1,0,0,1,1192,166.1) translate(140.85000000000002 46.9)"/></g><g><use xlink:href="#q" transform="matrix(1,0,0,1,1192,246.8) translate(0 25.6)"/><use xlink:href="#N" transform="matrix(1,0,0,1,1192,246.8) translate(10.95 25.6)"/><use xlink:href="#O" transform="matrix(1,0,0,1,1192,246.8) translate(152.05 25.6)"/><use xlink:href="#P" transform="matrix(1,0,0,1,1192,246.8) translate(162.05 25.6)"/><use xlink:href="#Q" transform="matrix(1,0,0,1,1192,246.8) translate(210.05 25.6)"/><use xlink:href="#q" transform="matrix(1,0,0,1,1192,246.8) translate(0 47.2)"/><use xlink:href="#R" transform="matrix(1,0,0,1,1192,246.8) translate(10.95 47.2)"/><use xlink:href="#S" transform="matrix(1,0,0,1,1192,246.8) translate(145.10000000000002 47.2)"/><use xlink:href="#T" transform="matrix(1,0,0,1,1192,246.8) translate(193.05 47.2)"/><use xlink:href="#O" transform="matrix(1,0,0,1,1192,246.8) translate(205.05 47.2)"/><use xlink:href="#U" transform="matrix(1,0,0,1,1192,246.8) translate(215.05 47.2)"/><use xlink:href="#O" transform="matrix(1,0,0,1,1192,246.8) translate(270 47.2)"/><use xlink:href="#P" transform="matrix(1,0,0,1,1192,246.8) translate(280 47.2)"/><use xlink:href="#V" transform="matrix(1,0,0,1,1192,246.8) translate(328 47.2)"/><use xlink:href="#O" transform="matrix(1,0,0,1,1192,246.8) translate(380 47.2)"/><use xlink:href="#W" transform="matrix(1,0,0,1,1192,246.8) translate(390 47.2)"/><use xlink:href="#q" transform="matrix(1,0,0,1,1192,246.8) translate(0 68.80000000000001)"/><use xlink:href="#X" transform="matrix(1,0,0,1,1192,246.8) translate(10.95 68.80000000000001)"/><use xlink:href="#Y" transform="matrix(1,0,0,1,1192,246.8) translate(243.39999999999995 68.80000000000001)"/><use xlink:href="#Z" transform="matrix(1,0,0,1,1192,246.8) translate(278.29999999999995 68.80000000000001)"/><use xlink:href="#aa" transform="matrix(1,0,0,1,1192,246.8) translate(447.69999999999993 68.80000000000001)"/><use xlink:href="#n" transform="matrix(1,0,0,1,1192,246.8) translate(0 90.40000000000002)"/><use xlink:href="#ab" transform="matrix(1,0,0,1,1192,246.8) translate(15.5 90.40000000000002)"/><use xlink:href="#H" transform="matrix(1,0,0,1,1192,246.8) translate(195.09999999999997 90.40000000000002)"/><use xlink:href="#ac" transform="matrix(1,0,0,1,1192,246.8) translate(339.95 90.40000000000002)"/><use xlink:href="#n" transform="matrix(1,0,0,1,1192,246.8) translate(0 112.00000000000001)"/><use xlink:href="#ad" transform="matrix(1,0,0,1,1192,246.8) translate(15.5 112.00000000000001)"/><use xlink:href="#ae" transform="matrix(1,0,0,1,1192,246.8) translate(204.55 112.00000000000001)"/><use xlink:href="#n" transform="matrix(1,0,0,1,1192,246.8) translate(0 133.6)"/><use xlink:href="#af" transform="matrix(1,0,0,1,1192,246.8) translate(15.5 133.6)"/><use xlink:href="#ag" transform="matrix(1,0,0,1,1192,246.8) translate(119.4 133.6)"/></g><path d="M1152.63 503h124.17a12 12 0 0 0 12-12v-82.5" stroke="#333" stroke-width="3" fill="none"/><path d="M1123.62 503l14.85-14.85 15.15 14.85-15.15 14.85z" stroke="#333" stroke-width="3" fill="#fff"/><path d="M1290.3 408.54h-3V407h3z" stroke="#333" stroke-width=".05" fill="#333"/><path d="M1340 522h360v158h-360z" stroke="#333" stroke-width="3" fill="#fff"/><path d="M1340 559.6h360" stroke="#333" stroke-width="3" fill="none"/><g><use xlink:href="#ah" transform="matrix(1,0,0,1,1348,530) translate(150.525 14.6)"/></g><g><use xlink:href="#n" transform="matrix(1,0,0,1,1352,567.6) translate(0 23.69999999999999)"/><use xlink:href="#ai" transform="matrix(1,0,0,1,1352,567.6) translate(15.5 23.69999999999999)"/><use xlink:href="#aj" transform="matrix(1,0,0,1,1352,567.6) translate(102.5 23.69999999999999)"/><use xlink:href="#n" transform="matrix(1,0,0,1,1352,567.6) translate(0 45.29999999999999)"/><use xlink:href="#ak" transform="matrix(1,0,0,1,1352,567.6) translate(15.5 45.29999999999999)"/><use xlink:href="#al" transform="matrix(1,0,0,1,1352,567.6) translate(199.2 45.29999999999999)"/><use xlink:href="#am" transform="matrix(1,0,0,1,1352,567.6) translate(252.01 45.29999999999999)"/><use xlink:href="#n" transform="matrix(1,0,0,1,1352,567.6) translate(0 66.89999999999999)"/><use xlink:href="#an" transform="matrix(1,0,0,1,1352,567.6) translate(15.5 66.89999999999999)"/><use xlink:href="#ao" transform="matrix(1,0,0,1,1352,567.6) translate(113.30000000000001 66.89999999999999)"/><use xlink:href="#n" transform="matrix(1,0,0,1,1352,567.6) translate(0 88.5)"/><use xlink:href="#ap" transform="matrix(1,0,0,1,1352,567.6) translate(15.5 88.5)"/><use xlink:href="#aq" transform="matrix(1,0,0,1,1352,567.6) translate(71.4 88.5)"/></g><path d="M1505.7 438.13V519" stroke="#333" stroke-width="3" fill="none"/><path d="M1505.7 409.12l14.86 14.85-14.85 15.15-14.84-15.15z" stroke="#333" stroke-width="3" fill="#333"/><path d="M1507.2 520.5h-3v-1.54h3z" stroke="#333" stroke-width=".05" fill="#333"/><path d="M140 680h400v100H140z" stroke="#333" stroke-width="3" fill="#fff"/><path d="M140 717.6h400" stroke="#333" stroke-width="3" fill="none"/><g><use xlink:href="#ar" transform="matrix(1,0,0,1,148,688) translate(139.77499999999998 14.6)"/></g><g><use xlink:href="#as" transform="matrix(1,0,0,1,152,725.6) translate(0 27.1)"/><use xlink:href="#at" transform="matrix(1,0,0,1,152,725.6) translate(10.95 27.1)"/><use xlink:href="#au" transform="matrix(1,0,0,1,152,725.6) translate(179 27.1)"/><use xlink:href="#av" transform="matrix(1,0,0,1,152,725.6) translate(238.95 27.1)"/><use xlink:href="#aw" transform="matrix(1,0,0,1,152,725.6) translate(286.95 27.1)"/></g><defs><path fill="#333" d="M141-36C126-15 110 5 73 4 37 3 15-17 15-53c-1-64 63-63 125-63 3-35-9-54-41-54-24 1-41 7-42 31l-33-3c5-37 33-52 76-52 45 0 72 20 72 64v82c-1 20 7 32 28 27v20c-31 9-61-2-59-35zM48-53c0 20 12 33 32 33 41-3 63-29 60-74-43 2-92-5-92 41" id="ax"/><path fill="#333" d="M115-194c53 0 69 39 70 98 0 66-23 100-70 100C84 3 66-7 56-30L54 0H23l1-261h32v101c10-23 28-34 59-34zm-8 174c40 0 45-34 45-75 0-40-5-75-45-74-42 0-51 32-51 76 0 43 10 73 51 73" id="ay"/><path fill="#333" d="M135-143c-3-34-86-38-87 0 15 53 115 12 119 90S17 21 10-45l28-5c4 36 97 45 98 0-10-56-113-15-118-90-4-57 82-63 122-42 12 7 21 19 24 35" id="az"/><path fill="#333" d="M59-47c-2 24 18 29 38 22v24C64 9 27 4 27-40v-127H5v-23h24l9-43h21v43h35v23H59v120" id="aA"/><path fill="#333" d="M114-163C36-179 61-72 57 0H25l-1-190h30c1 12-1 29 2 39 6-27 23-49 58-41v29" id="aB"/><path fill="#333" d="M96-169c-40 0-48 33-48 73s9 75 48 75c24 0 41-14 43-38l32 2c-6 37-31 61-74 61-59 0-76-41-82-99-10-93 101-131 147-64 4 7 5 14 7 22l-32 3c-4-21-16-35-41-35" id="aC"/><g id="a"><use transform="matrix(0.05,0,0,0.05,0,0)" xlink:href="#ax"/><use transform="matrix(0.05,0,0,0.05,10,0)" xlink:href="#ay"/><use transform="matrix(0.05,0,0,0.05,20,0)" xlink:href="#az"/><use transform="matrix(0.05,0,0,0.05,29,0)" xlink:href="#aA"/><use transform="matrix(0.05,0,0,0.05,34,0)" xlink:href="#aB"/><use transform="matrix(0.05,0,0,0.05,39.95,0)" xlink:href="#ax"/><use transform="matrix(0.05,0,0,0.05,49.95,0)" xlink:href="#aC"/><use transform="matrix(0.05,0,0,0.05,58.95,0)" xlink:href="#aA"/></g><path fill="#333" d="M33 0v-248h34V0H33" id="aD"/><path fill="#333" d="M137 0h-34L2-248h35l83 218 83-218h36" id="aE"/><path fill="#333" d="M24-231v-30h32v30H24zM24 0v-190h32V0H24" id="aF"/><path fill="#333" d="M100-194c63 0 86 42 84 106H49c0 40 14 67 53 68 26 1 43-12 49-29l28 8c-11 28-37 45-77 45C44 4 14-33 15-96c1-61 26-98 85-98zm52 81c6-60-76-77-97-28-3 7-6 17-6 28h103" id="aG"/><path fill="#333" d="M206 0h-36l-40-164L89 0H53L-1-190h32L70-26l43-164h34l41 164 42-164h31" id="aH"/><g id="b"><use transform="matrix(0.05,0,0,0.05,0,0)" xlink:href="#aD"/><use transform="matrix(0.05,0,0,0.05,5,0)" xlink:href="#aE"/><use transform="matrix(0.05,0,0,0.05,16.65,0)" xlink:href="#aF"/><use transform="matrix(0.05,0,0,0.05,20.599999999999998,0)" xlink:href="#aG"/><use transform="matrix(0.05,0,0,0.05,30.599999999999994,0)" xlink:href="#aH"/></g><path fill="#333" d="M118-107v75H92v-75H18v-26h74v-75h26v75h74v26h-74" id="aI"/><use transform="matrix(0.05,0,0,0.05,0,0)" xlink:href="#aI" id="c"/><path fill="#333" d="M106-169C34-169 62-67 57 0H25v-261h32l-1 103c12-21 28-36 61-36 89 0 53 116 60 194h-32v-121c2-32-8-49-39-48" id="aJ"/><path fill="#333" d="M100-194c62-1 85 37 85 99 1 63-27 99-86 99S16-35 15-95c0-66 28-99 85-99zM99-20c44 1 53-31 53-75 0-43-8-75-51-75s-53 32-53 75 10 74 51 75" id="aK"/><path fill="#333" d="M266 0h-40l-56-210L115 0H75L2-248h35L96-30l15-64 43-154h32l59 218 59-218h35" id="aL"/><path fill="#333" d="M24 0v-261h32V0H24" id="aM"/><path fill="#333" d="M210-169c-67 3-38 105-44 169h-31v-121c0-29-5-50-35-48C34-165 62-65 56 0H25l-1-190h30c1 10-1 24 2 32 10-44 99-50 107 0 11-21 27-35 58-36 85-2 47 119 55 194h-31v-121c0-29-5-49-35-48" id="aN"/><path fill="#333" d="M87 75C49 33 22-17 22-94c0-76 28-126 65-167h31c-38 41-64 92-64 168S80 34 118 75H87" id="aO"/><path fill="#333" d="M117-194c89-4 53 116 60 194h-32v-121c0-31-8-49-39-48C34-167 62-67 57 0H25l-1-190h30c1 10-1 24 2 32 11-22 29-35 61-36" id="aP"/><path fill="#333" d="M177-190C167-65 218 103 67 71c-23-6-38-20-44-43l32-5c15 47 100 32 89-28v-30C133-14 115 1 83 1 29 1 15-40 15-95c0-56 16-97 71-98 29-1 48 16 59 35 1-10 0-23 2-32h30zM94-22c36 0 50-32 50-73 0-42-14-75-50-75-39 0-46 34-46 75s6 73 46 73" id="aQ"/><g id="d"><use transform="matrix(0.05,0,0,0.05,0,0)" xlink:href="#az"/><use transform="matrix(0.05,0,0,0.05,9,0)" xlink:href="#aJ"/><use transform="matrix(0.05,0,0,0.05,19,0)" xlink:href="#aK"/><use transform="matrix(0.05,0,0,0.05,29,0)" xlink:href="#aH"/><use transform="matrix(0.05,0,0,0.05,41.95,0)" xlink:href="#aL"/><use transform="matrix(0.05,0,0,0.05,58.54999999999999,0)" xlink:href="#aG"/><use transform="matrix(0.05,0,0,0.05,68.55,0)" xlink:href="#aM"/><use transform="matrix(0.05,0,0,0.05,72.5,0)" xlink:href="#aC"/><use transform="matrix(0.05,0,0,0.05,81.5,0)" xlink:href="#aK"/><use transform="matrix(0.05,0,0,0.05,91.5,0)" xlink:href="#aN"/><use transform="matrix(0.05,0,0,0.05,106.45,0)" xlink:href="#aG"/><use transform="matrix(0.05,0,0,0.05,116.45,0)" xlink:href="#aO"/><use transform="matrix(0.05,0,0,0.05,122.4,0)" xlink:href="#az"/><use transform="matrix(0.05,0,0,0.05,131.4,0)" xlink:href="#aA"/><use transform="matrix(0.05,0,0,0.05,136.4,0)" xlink:href="#aB"/><use transform="matrix(0.05,0,0,0.05,142.35,0)" xlink:href="#aF"/><use transform="matrix(0.05,0,0,0.05,146.29999999999998,0)" xlink:href="#aP"/><use transform="matrix(0.05,0,0,0.05,156.29999999999998,0)" xlink:href="#aQ"/></g><path fill="#333" d="M85-194c31 0 48 13 60 33l-1-100h32l1 261h-30c-2-10 0-23-3-31C134-8 116 4 85 4 32 4 16-35 15-94c0-66 23-100 70-100zm9 24c-40 0-46 34-46 75 0 40 6 74 45 74 42 0 51-32 51-76 0-42-9-74-50-73" id="aR"/><path fill="#333" d="M179-190L93 31C79 59 56 82 12 73V49c39 6 53-20 64-50L1-190h34L92-34l54-156h33" id="aS"/><path fill="#333" d="M33-261c38 41 65 92 65 168S71 34 33 75H2C39 34 66-17 66-93S39-220 2-261h31" id="aT"/><g id="e"><use transform="matrix(0.05,0,0,0.05,0,0)" xlink:href="#aR"/><use transform="matrix(0.05,0,0,0.05,10,0)" xlink:href="#aF"/><use transform="matrix(0.05,0,0,0.05,13.949999999999998,0)" xlink:href="#aB"/><use transform="matrix(0.05,0,0,0.05,19.9,0)" xlink:href="#aG"/><use transform="matrix(0.05,0,0,0.05,29.899999999999995,0)" xlink:href="#aC"/><use transform="matrix(0.05,0,0,0.05,38.9,0)" xlink:href="#aA"/><use transform="matrix(0.05,0,0,0.05,43.9,0)" xlink:href="#aK"/><use transform="matrix(0.05,0,0,0.05,53.900000000000006,0)" xlink:href="#aB"/><use transform="matrix(0.05,0,0,0.05,59.85,0)" xlink:href="#aS"/><use transform="matrix(0.05,0,0,0.05,68.85,0)" xlink:href="#aT"/></g><path fill="#333" d="M240 0l2-218c-23 76-54 145-80 218h-23L58-218 59 0H30v-248h44l77 211c21-75 51-140 76-211h43V0h-30" id="aU"/><g id="f"><use transform="matrix(0.05,0,0,0.05,0,0)" xlink:href="#az"/><use transform="matrix(0.05,0,0,0.05,9,0)" xlink:href="#aJ"/><use transform="matrix(0.05,0,0,0.05,19,0)" xlink:href="#aK"/><use transform="matrix(0.05,0,0,0.05,29,0)" xlink:href="#aH"/><use transform="matrix(0.05,0,0,0.05,41.95,0)" xlink:href="#aU"/><use transform="matrix(0.05,0,0,0.05,56.900000000000006,0)" xlink:href="#aG"/><use transform="matrix(0.05,0,0,0.05,66.9,0)" xlink:href="#az"/><use transform="matrix(0.05,0,0,0.05,75.9,0)" xlink:href="#az"/><use transform="matrix(0.05,0,0,0.05,84.9,0)" xlink:href="#ax"/><use transform="matrix(0.05,0,0,0.05,94.9,0)" xlink:href="#aQ"/><use transform="matrix(0.05,0,0,0.05,104.9,0)" xlink:href="#aG"/><use transform="matrix(0.05,0,0,0.05,114.9,0)" xlink:href="#aO"/><use transform="matrix(0.05,0,0,0.05,120.85000000000001,0)" xlink:href="#az"/><use transform="matrix(0.05,0,0,0.05,129.85000000000002,0)" xlink:href="#aA"/><use transform="matrix(0.05,0,0,0.05,134.85000000000002,0)" xlink:href="#aB"/><use transform="matrix(0.05,0,0,0.05,140.8,0)" xlink:href="#aF"/><use transform="matrix(0.05,0,0,0.05,144.75,0)" xlink:href="#aP"/><use transform="matrix(0.05,0,0,0.05,154.75,0)" xlink:href="#aQ"/><use transform="matrix(0.05,0,0,0.05,164.75,0)" xlink:href="#aT"/></g><path fill="#333" d="M185-189c-5-48-123-54-124 2 14 75 158 14 163 119 3 78-121 87-175 55-17-10-28-26-33-46l33-7c5 56 141 63 141-1 0-78-155-14-162-118-5-82 145-84 179-34 5 7 8 16 11 25" id="aV"/><path fill="#333" d="M84 4C-5 8 30-112 23-190h32v120c0 31 7 50 39 49 72-2 45-101 50-169h31l1 190h-30c-1-10 1-25-2-33-11 22-28 36-60 37" id="aW"/><path fill="#333" d="M127-220V0H93v-220H8v-28h204v28h-85" id="aX"/><g id="g"><use transform="matrix(0.05,0,0,0.05,0,0)" xlink:href="#az"/><use transform="matrix(0.05,0,0,0.05,9,0)" xlink:href="#aJ"/><use transform="matrix(0.05,0,0,0.05,19,0)" xlink:href="#aK"/><use transform="matrix(0.05,0,0,0.05,29,0)" xlink:href="#aH"/><use transform="matrix(0.05,0,0,0.05,41.95,0)" xlink:href="#aV"/><use transform="matrix(0.05,0,0,0.05,53.95,0)" xlink:href="#aK"/><use transform="matrix(0.05,0,0,0.05,63.95,0)" xlink:href="#aW"/><use transform="matrix(0.05,0,0,0.05,73.95,0)" xlink:href="#aB"/><use transform="matrix(0.05,0,0,0.05,79.9,0)" xlink:href="#aC"/><use transform="matrix(0.05,0,0,0.05,88.9,0)" xlink:href="#aG"/><use transform="matrix(0.05,0,0,0.05,98.9,0)" xlink:href="#aX"/><use transform="matrix(0.05,0,0,0.05,109.2,0)" xlink:href="#aB"/><use transform="matrix(0.05,0,0,0.05,115.15,0)" xlink:href="#aG"/><use transform="matrix(0.05,0,0,0.05,125.15,0)" xlink:href="#aG"/><use transform="matrix(0.05,0,0,0.05,135.15,0)" xlink:href="#aV"/><use transform="matrix(0.05,0,0,0.05,147.15,0)" xlink:href="#aA"/><use transform="matrix(0.05,0,0,0.05,152.15,0)" xlink:href="#aB"/><use transform="matrix(0.05,0,0,0.05,158.1,0)" xlink:href="#aW"/><use transform="matrix(0.05,0,0,0.05,168.1,0)" xlink:href="#aC"/><use transform="matrix(0.05,0,0,0.05,177.1,0)" xlink:href="#aA"/><use transform="matrix(0.05,0,0,0.05,182.1,0)" xlink:href="#aW"/><use transform="matrix(0.05,0,0,0.05,192.1,0)" xlink:href="#aB"/><use transform="matrix(0.05,0,0,0.05,198.04999999999998,0)" xlink:href="#aG"/></g><path fill="#333" d="M108 0H70L1-190h34L89-25l56-165h34" id="aY"/><g id="h"><use transform="matrix(0.05,0,0,0.05,0,0)" xlink:href="#aO"/><use transform="matrix(0.05,0,0,0.05,5.95,0)" xlink:href="#aY"/><use transform="matrix(0.05,0,0,0.05,14.949999999999998,0)" xlink:href="#aG"/><use transform="matrix(0.05,0,0,0.05,24.95,0)" xlink:href="#aC"/><use transform="matrix(0.05,0,0,0.05,33.95,0)" xlink:href="#aA"/><use transform="matrix(0.05,0,0,0.05,38.95,0)" xlink:href="#aK"/><use transform="matrix(0.05,0,0,0.05,48.95,0)" xlink:href="#aB"/></g><path fill="#333" d="M18-100v-36l175-74v27L42-118l151 64v27" id="aZ"/><path fill="#333" d="M190 0L58-211 59 0H30v-248h39L202-35l-2-213h31V0h-41" id="ba"/><g id="i"><use transform="matrix(0.05,0,0,0.05,0,0)" xlink:href="#aZ"/><use transform="matrix(0.05,0,0,0.05,10.5,0)" xlink:href="#ba"/><use transform="matrix(0.05,0,0,0.05,23.450000000000003,0)" xlink:href="#aK"/><use transform="matrix(0.05,0,0,0.05,33.45,0)" xlink:href="#aR"/><use transform="matrix(0.05,0,0,0.05,43.45,0)" xlink:href="#aG"/></g><path fill="#333" d="M80-196l47-18 7 23-49 13 32 44-20 13-27-46-27 45-21-12 33-44-49-13 8-23 47 19-2-53h23" id="bb"/><path fill="#333" d="M18-27v-27l151-64-151-65v-27l175 74v36" id="bc"/><g id="j"><use transform="matrix(0.05,0,0,0.05,0,0)" xlink:href="#bb"/><use transform="matrix(0.05,0,0,0.05,7,0)" xlink:href="#bc"/><use transform="matrix(0.05,0,0,0.05,17.5,0)" xlink:href="#aT"/></g><path fill="#333" d="M63-220v92h138v28H63V0H30v-248h175v28H63" id="bd"/><path fill="#333" d="M145-31C134-9 116 4 85 4 32 4 16-35 15-94c0-59 17-99 70-100 32-1 48 14 60 33 0-11-1-24 2-32h30l-1 268h-32zM93-21c41 0 51-33 51-76s-8-73-50-73c-40 0-46 35-46 75s5 74 45 74" id="be"/><path fill="#333" d="M115-194c55 1 70 41 70 98S169 2 115 4C84 4 66-9 55-30l1 105H24l-1-265h31l2 30c10-21 28-34 59-34zm-8 174c40 0 45-34 45-75s-6-73-45-74c-42 0-51 32-51 76 0 43 10 73 51 73" id="bf"/><path fill="#333" d="M33-154v-36h34v36H33zM33 0v-36h34V0H33" id="bg"/><path fill="#333" d="M101-234c-31-9-42 10-38 44h38v23H63V0H32v-167H5v-23h27c-7-52 17-82 69-68v24" id="bh"/><path fill="#333" d="M68-38c1 34 0 65-14 84H32c9-13 17-26 17-46H33v-38h35" id="bi"/><g id="k"><use transform="matrix(0.05,0,0,0.05,0,0)" xlink:href="#az"/><use transform="matrix(0.05,0,0,0.05,9,0)" xlink:href="#aJ"/><use transform="matrix(0.05,0,0,0.05,19,0)" xlink:href="#aK"/><use transform="matrix(0.05,0,0,0.05,29,0)" xlink:href="#aH"/><use transform="matrix(0.05,0,0,0.05,41.95,0)" xlink:href="#aD"/><use transform="matrix(0.05,0,0,0.05,46.95,0)" xlink:href="#aP"/><use transform="matrix(0.05,0,0,0.05,56.95,0)" xlink:href="#aC"/><use transform="matrix(0.05,0,0,0.05,65.95,0)" xlink:href="#aM"/><use transform="matrix(0.05,0,0,0.05,69.9,0)" xlink:href="#aW"/><use transform="matrix(0.05,0,0,0.05,79.9,0)" xlink:href="#aR"/><use transform="matrix(0.05,0,0,0.05,89.9,0)" xlink:href="#aG"/><use transform="matrix(0.05,0,0,0.05,99.9,0)" xlink:href="#bd"/><use transform="matrix(0.05,0,0,0.05,110.85000000000001,0)" xlink:href="#aB"/><use transform="matrix(0.05,0,0,0.05,116.80000000000001,0)" xlink:href="#aG"/><use transform="matrix(0.05,0,0,0.05,126.80000000000001,0)" xlink:href="#be"/><use transform="matrix(0.05,0,0,0.05,136.8,0)" xlink:href="#aW"/><use transform="matrix(0.05,0,0,0.05,146.8,0)" xlink:href="#aG"/><use transform="matrix(0.05,0,0,0.05,156.8,0)" xlink:href="#aP"/><use transform="matrix(0.05,0,0,0.05,166.8,0)" xlink:href="#aC"/><use transform="matrix(0.05,0,0,0.05,175.8,0)" xlink:href="#aF"/><use transform="matrix(0.05,0,0,0.05,179.75,0)" xlink:href="#aG"/><use transform="matrix(0.05,0,0,0.05,189.75,0)" xlink:href="#az"/><use transform="matrix(0.05,0,0,0.05,198.75,0)" xlink:href="#aO"/><use transform="matrix(0.05,0,0,0.05,204.7,0)" xlink:href="#aY"/><use transform="matrix(0.05,0,0,0.05,213.69999999999996,0)" xlink:href="#aG"/><use transform="matrix(0.05,0,0,0.05,223.69999999999996,0)" xlink:href="#aC"/><use transform="matrix(0.05,0,0,0.05,232.69999999999996,0)" xlink:href="#aA"/><use transform="matrix(0.05,0,0,0.05,237.69999999999996,0)" xlink:href="#aK"/><use transform="matrix(0.05,0,0,0.05,247.69999999999996,0)" xlink:href="#aB"/><use transform="matrix(0.05,0,0,0.05,253.64999999999998,0)" xlink:href="#aZ"/><use transform="matrix(0.05,0,0,0.05,264.15,0)" xlink:href="#bf"/><use transform="matrix(0.05,0,0,0.05,274.15,0)" xlink:href="#ax"/><use transform="matrix(0.05,0,0,0.05,284.15,0)" xlink:href="#aF"/><use transform="matrix(0.05,0,0,0.05,288.09999999999997,0)" xlink:href="#aB"/><use transform="matrix(0.05,0,0,0.05,294.04999999999995,0)" xlink:href="#aZ"/><use transform="matrix(0.05,0,0,0.05,304.54999999999995,0)" xlink:href="#az"/><use transform="matrix(0.05,0,0,0.05,313.54999999999995,0)" xlink:href="#aA"/><use transform="matrix(0.05,0,0,0.05,318.54999999999995,0)" xlink:href="#aR"/><use transform="matrix(0.05,0,0,0.05,328.54999999999995,0)" xlink:href="#bg"/><use transform="matrix(0.05,0,0,0.05,333.54999999999995,0)" xlink:href="#bg"/><use transform="matrix(0.05,0,0,0.05,338.54999999999995,0)" xlink:href="#bh"/><use transform="matrix(0.05,0,0,0.05,343.54999999999995,0)" xlink:href="#aF"/><use transform="matrix(0.05,0,0,0.05,347.49999999999994,0)" xlink:href="#aM"/><use transform="matrix(0.05,0,0,0.05,351.44999999999993,0)" xlink:href="#aG"/><use transform="matrix(0.05,0,0,0.05,361.44999999999993,0)" xlink:href="#az"/><use transform="matrix(0.05,0,0,0.05,370.44999999999993,0)" xlink:href="#aS"/><use transform="matrix(0.05,0,0,0.05,379.44999999999993,0)" xlink:href="#az"/><use transform="matrix(0.05,0,0,0.05,388.44999999999993,0)" xlink:href="#aA"/><use transform="matrix(0.05,0,0,0.05,393.44999999999993,0)" xlink:href="#aG"/><use transform="matrix(0.05,0,0,0.05,403.44999999999993,0)" xlink:href="#aN"/><use transform="matrix(0.05,0,0,0.05,418.3999999999999,0)" xlink:href="#bg"/><use transform="matrix(0.05,0,0,0.05,423.3999999999999,0)" xlink:href="#bg"/><use transform="matrix(0.05,0,0,0.05,428.3999999999999,0)" xlink:href="#bf"/><use transform="matrix(0.05,0,0,0.05,438.3999999999999,0)" xlink:href="#ax"/><use transform="matrix(0.05,0,0,0.05,448.3999999999999,0)" xlink:href="#aA"/><use transform="matrix(0.05,0,0,0.05,453.3999999999999,0)" xlink:href="#aJ"/><use transform="matrix(0.05,0,0,0.05,463.3999999999999,0)" xlink:href="#bi"/></g><g id="l"><use transform="matrix(0.05,0,0,0.05,0,0)" xlink:href="#aF"/><use transform="matrix(0.05,0,0,0.05,3.95,0)" xlink:href="#aP"/><use transform="matrix(0.05,0,0,0.05,13.949999999999998,0)" xlink:href="#aA"/><use transform="matrix(0.05,0,0,0.05,18.95,0)" xlink:href="#bc"/><use transform="matrix(0.05,0,0,0.05,29.450000000000003,0)" xlink:href="#bc"/><use transform="matrix(0.05,0,0,0.05,39.95,0)" xlink:href="#aT"/></g><path fill="#333" d="M30 0v-248h187v28H63v79h144v27H63v87h162V0H30" id="bj"/><g id="m"><use transform="matrix(0.05,0,0,0.05,0,0)" xlink:href="#aD"/><use transform="matrix(0.05,0,0,0.05,5,0)" xlink:href="#aE"/><use transform="matrix(0.05,0,0,0.05,16.65,0)" xlink:href="#aF"/><use transform="matrix(0.05,0,0,0.05,20.599999999999998,0)" xlink:href="#aG"/><use transform="matrix(0.05,0,0,0.05,30.599999999999994,0)" xlink:href="#aH"/><use transform="matrix(0.05,0,0,0.05,43.55,0)" xlink:href="#bj"/><use transform="matrix(0.05,0,0,0.05,55.54999999999999,0)" xlink:href="#aY"/><use transform="matrix(0.05,0,0,0.05,64.55,0)" xlink:href="#aG"/><use transform="matrix(0.05,0,0,0.05,74.55,0)" xlink:href="#aP"/><use transform="matrix(0.05,0,0,0.05,84.55,0)" xlink:href="#aA"/><use transform="matrix(0.05,0,0,0.05,89.55,0)" xlink:href="#az"/></g><use transform="matrix(0.05,0,0,0.05,0,0)" xlink:href="#aI" id="n"/><path fill="#333" d="M194 0L95-120 63-95V0H30v-248h33v124l119-124h40L117-140 236 0h-42" id="bk"/><path fill="#333" d="M30-248c87 1 191-15 191 75 0 78-77 80-158 76V0H30v-248zm33 125c57 0 124 11 124-50 0-59-68-47-124-48v98" id="bl"/><g id="o"><use transform="matrix(0.05,0,0,0.05,0,0)" xlink:href="#aK"/><use transform="matrix(0.05,0,0,0.05,10,0)" xlink:href="#aP"/><use transform="matrix(0.05,0,0,0.05,20,0)" xlink:href="#aL"/><use transform="matrix(0.05,0,0,0.05,36.599999999999994,0)" xlink:href="#aG"/><use transform="matrix(0.05,0,0,0.05,46.599999999999994,0)" xlink:href="#aM"/><use transform="matrix(0.05,0,0,0.05,50.55,0)" xlink:href="#aC"/><use transform="matrix(0.05,0,0,0.05,59.54999999999999,0)" xlink:href="#aK"/><use transform="matrix(0.05,0,0,0.05,69.55,0)" xlink:href="#aN"/><use transform="matrix(0.05,0,0,0.05,84.5,0)" xlink:href="#aG"/><use transform="matrix(0.05,0,0,0.05,94.5,0)" xlink:href="#bk"/><use transform="matrix(0.05,0,0,0.05,106.5,0)" xlink:href="#aG"/><use transform="matrix(0.05,0,0,0.05,116.5,0)" xlink:href="#aS"/><use transform="matrix(0.05,0,0,0.05,125.5,0)" xlink:href="#bl"/><use transform="matrix(0.05,0,0,0.05,137.5,0)" xlink:href="#aB"/><use transform="matrix(0.05,0,0,0.05,143.45,0)" xlink:href="#aG"/><use transform="matrix(0.05,0,0,0.05,153.45,0)" xlink:href="#az"/><use transform="matrix(0.05,0,0,0.05,162.45,0)" xlink:href="#az"/><use transform="matrix(0.05,0,0,0.05,171.45,0)" xlink:href="#aG"/><use transform="matrix(0.05,0,0,0.05,181.45,0)" xlink:href="#aR"/><use transform="matrix(0.05,0,0,0.05,191.45,0)" xlink:href="#aO"/><use transform="matrix(0.05,0,0,0.05,197.39999999999998,0)" xlink:href="#aC"/><use transform="matrix(0.05,0,0,0.05,206.39999999999998,0)" xlink:href="#aJ"/><use transform="matrix(0.05,0,0,0.05,216.39999999999998,0)" xlink:href="#ax"/><use transform="matrix(0.05,0,0,0.05,226.39999999999998,0)" xlink:href="#aB"/><use transform="matrix(0.05,0,0,0.05,232.34999999999997,0)" xlink:href="#aT"/></g><g id="p"><use transform="matrix(0.05,0,0,0.05,0,0)" xlink:href="#aE"/><use transform="matrix(0.05,0,0,0.05,11.65,0)" xlink:href="#aF"/><use transform="matrix(0.05,0,0,0.05,15.600000000000001,0)" xlink:href="#aG"/><use transform="matrix(0.05,0,0,0.05,25.6,0)" xlink:href="#aH"/><use transform="matrix(0.05,0,0,0.05,38.550000000000004,0)" xlink:href="#bj"/><use transform="matrix(0.05,0,0,0.05,50.550000000000004,0)" xlink:href="#aY"/><use transform="matrix(0.05,0,0,0.05,59.550000000000004,0)" xlink:href="#aG"/><use transform="matrix(0.05,0,0,0.05,69.55000000000001,0)" xlink:href="#aP"/><use transform="matrix(0.05,0,0,0.05,79.55000000000001,0)" xlink:href="#aA"/><use transform="matrix(0.05,0,0,0.05,84.55000000000001,0)" xlink:href="#az"/><use transform="matrix(0.05,0,0,0.05,93.55000000000001,0)" xlink:href="#ba"/><use transform="matrix(0.05,0,0,0.05,106.5,0)" xlink:href="#aK"/><use transform="matrix(0.05,0,0,0.05,116.5,0)" xlink:href="#aA"/><use transform="matrix(0.05,0,0,0.05,121.5,0)" xlink:href="#aF"/><use transform="matrix(0.05,0,0,0.05,125.45,0)" xlink:href="#bh"/><use transform="matrix(0.05,0,0,0.05,130.45000000000002,0)" xlink:href="#aF"/><use transform="matrix(0.05,0,0,0.05,134.4,0)" xlink:href="#aG"/><use transform="matrix(0.05,0,0,0.05,144.4,0)" xlink:href="#aB"/></g><path fill="#333" d="M16-82v-28h88v28H16" id="bm"/><use transform="matrix(0.05,0,0,0.05,0,0)" xlink:href="#bm" id="q"/><path fill="#333" d="M30 0v-248h33v221h125V0H30" id="bn"/><g id="r"><use transform="matrix(0.05,0,0,0.05,0,0)" xlink:href="#bf"/><use transform="matrix(0.05,0,0,0.05,10,0)" xlink:href="#aB"/><use transform="matrix(0.05,0,0,0.05,15.949999999999998,0)" xlink:href="#aG"/><use transform="matrix(0.05,0,0,0.05,25.950000000000003,0)" xlink:href="#az"/><use transform="matrix(0.05,0,0,0.05,34.95,0)" xlink:href="#aG"/><use transform="matrix(0.05,0,0,0.05,44.95,0)" xlink:href="#aP"/><use transform="matrix(0.05,0,0,0.05,54.95,0)" xlink:href="#aA"/><use transform="matrix(0.05,0,0,0.05,59.95,0)" xlink:href="#aG"/><use transform="matrix(0.05,0,0,0.05,69.95,0)" xlink:href="#aB"/><use transform="matrix(0.05,0,0,0.05,75.9,0)" xlink:href="#bn"/><use transform="matrix(0.05,0,0,0.05,85.9,0)" xlink:href="#aF"/><use transform="matrix(0.05,0,0,0.05,89.85000000000001,0)" xlink:href="#az"/><use transform="matrix(0.05,0,0,0.05,98.85000000000001,0)" xlink:href="#aA"/><use transform="matrix(0.05,0,0,0.05,103.85000000000001,0)" xlink:href="#aG"/><use transform="matrix(0.05,0,0,0.05,113.85000000000001,0)" xlink:href="#aP"/><use transform="matrix(0.05,0,0,0.05,123.85000000000001,0)" xlink:href="#aG"/><use transform="matrix(0.05,0,0,0.05,133.85000000000002,0)" xlink:href="#aB"/><use transform="matrix(0.05,0,0,0.05,139.8,0)" xlink:href="#bg"/></g><g id="s"><use transform="matrix(0.05,0,0,0.05,0,0)" xlink:href="#aD"/><use transform="matrix(0.05,0,0,0.05,5,0)" xlink:href="#aE"/><use transform="matrix(0.05,0,0,0.05,16.65,0)" xlink:href="#aF"/><use transform="matrix(0.05,0,0,0.05,20.599999999999998,0)" xlink:href="#aG"/><use transform="matrix(0.05,0,0,0.05,30.599999999999994,0)" xlink:href="#aH"/><use transform="matrix(0.05,0,0,0.05,43.55,0)" xlink:href="#bj"/><use transform="matrix(0.05,0,0,0.05,55.54999999999999,0)" xlink:href="#aY"/><use transform="matrix(0.05,0,0,0.05,64.55,0)" xlink:href="#aG"/><use transform="matrix(0.05,0,0,0.05,74.55,0)" xlink:href="#aP"/><use transform="matrix(0.05,0,0,0.05,84.55,0)" xlink:href="#aA"/><use transform="matrix(0.05,0,0,0.05,89.55,0)" xlink:href="#az"/><use transform="matrix(0.05,0,0,0.05,98.55,0)" xlink:href="#bb"/></g><g id="t"><use transform="matrix(0.05,0,0,0.05,0,0)" xlink:href="#az"/><use transform="matrix(0.05,0,0,0.05,9,0)" xlink:href="#aG"/><use transform="matrix(0.05,0,0,0.05,19,0)" xlink:href="#aA"/><use transform="matrix(0.05,0,0,0.05,24,0)" xlink:href="#bn"/><use transform="matrix(0.05,0,0,0.05,34,0)" xlink:href="#aF"/><use transform="matrix(0.05,0,0,0.05,37.95,0)" xlink:href="#az"/><use transform="matrix(0.05,0,0,0.05,46.95,0)" xlink:href="#aA"/><use transform="matrix(0.05,0,0,0.05,51.95,0)" xlink:href="#aG"/><use transform="matrix(0.05,0,0,0.05,61.95,0)" xlink:href="#aP"/><use transform="matrix(0.05,0,0,0.05,71.95,0)" xlink:href="#aG"/><use transform="matrix(0.05,0,0,0.05,81.95,0)" xlink:href="#aB"/><use transform="matrix(0.05,0,0,0.05,87.9,0)" xlink:href="#aO"/><use transform="matrix(0.05,0,0,0.05,93.85000000000001,0)" xlink:href="#aD"/><use transform="matrix(0.05,0,0,0.05,98.85000000000001,0)" xlink:href="#aE"/><use transform="matrix(0.05,0,0,0.05,110.5,0)" xlink:href="#aF"/><use transform="matrix(0.05,0,0,0.05,114.45,0)" xlink:href="#aG"/><use transform="matrix(0.05,0,0,0.05,124.45,0)" xlink:href="#aH"/><use transform="matrix(0.05,0,0,0.05,137.4,0)" xlink:href="#bj"/><use transform="matrix(0.05,0,0,0.05,149.4,0)" xlink:href="#aY"/><use transform="matrix(0.05,0,0,0.05,158.4,0)" xlink:href="#aG"/><use transform="matrix(0.05,0,0,0.05,168.4,0)" xlink:href="#aP"/><use transform="matrix(0.05,0,0,0.05,178.4,0)" xlink:href="#aA"/><use transform="matrix(0.05,0,0,0.05,183.4,0)" xlink:href="#az"/><use transform="matrix(0.05,0,0,0.05,192.4,0)" xlink:href="#bb"/></g><use transform="matrix(0.05,0,0,0.05,0,0)" xlink:href="#aT" id="u"/><g id="v"><use transform="matrix(0.05,0,0,0.05,0,0)" xlink:href="#aG"/><use transform="matrix(0.05,0,0,0.05,10,0)" xlink:href="#aB"/><use transform="matrix(0.05,0,0,0.05,15.949999999999998,0)" xlink:href="#ax"/><use transform="matrix(0.05,0,0,0.05,25.950000000000003,0)" xlink:href="#az"/><use transform="matrix(0.05,0,0,0.05,34.95,0)" xlink:href="#aG"/><use transform="matrix(0.05,0,0,0.05,44.95,0)" xlink:href="#bn"/><use transform="matrix(0.05,0,0,0.05,54.95,0)" xlink:href="#aF"/><use transform="matrix(0.05,0,0,0.05,58.900000000000006,0)" xlink:href="#az"/><use transform="matrix(0.05,0,0,0.05,67.9,0)" xlink:href="#aA"/><use transform="matrix(0.05,0,0,0.05,72.9,0)" xlink:href="#aG"/><use transform="matrix(0.05,0,0,0.05,82.9,0)" xlink:href="#aP"/><use transform="matrix(0.05,0,0,0.05,92.9,0)" xlink:href="#aG"/><use transform="matrix(0.05,0,0,0.05,102.9,0)" xlink:href="#aB"/><use transform="matrix(0.05,0,0,0.05,108.85000000000001,0)" xlink:href="#aO"/><use transform="matrix(0.05,0,0,0.05,114.80000000000001,0)" xlink:href="#aT"/></g><g id="w"><use transform="matrix(0.05,0,0,0.05,0,0)" xlink:href="#aP"/><use transform="matrix(0.05,0,0,0.05,10,0)" xlink:href="#aK"/><use transform="matrix(0.05,0,0,0.05,20,0)" xlink:href="#aA"/><use transform="matrix(0.05,0,0,0.05,25,0)" xlink:href="#aF"/><use transform="matrix(0.05,0,0,0.05,28.950000000000003,0)" xlink:href="#bh"/><use transform="matrix(0.05,0,0,0.05,33.95,0)" xlink:href="#aS"/><use transform="matrix(0.05,0,0,0.05,42.95,0)" xlink:href="#bl"/><use transform="matrix(0.05,0,0,0.05,54.95,0)" xlink:href="#aB"/><use transform="matrix(0.05,0,0,0.05,60.900000000000006,0)" xlink:href="#aG"/><use transform="matrix(0.05,0,0,0.05,70.9,0)" xlink:href="#az"/><use transform="matrix(0.05,0,0,0.05,79.9,0)" xlink:href="#aG"/><use transform="matrix(0.05,0,0,0.05,89.9,0)" xlink:href="#aP"/><use transform="matrix(0.05,0,0,0.05,99.9,0)" xlink:href="#aA"/><use transform="matrix(0.05,0,0,0.05,104.9,0)" xlink:href="#aG"/><use transform="matrix(0.05,0,0,0.05,114.9,0)" xlink:href="#aB"/><use transform="matrix(0.05,0,0,0.05,120.85000000000001,0)" xlink:href="#aO"/><use transform="matrix(0.05,0,0,0.05,126.80000000000001,0)" xlink:href="#aY"/><use transform="matrix(0.05,0,0,0.05,135.8,0)" xlink:href="#aK"/><use transform="matrix(0.05,0,0,0.05,145.8,0)" xlink:href="#aF"/><use transform="matrix(0.05,0,0,0.05,149.75,0)" xlink:href="#aR"/></g><g id="x"><use transform="matrix(0.05,0,0,0.05,0,0)" xlink:href="#aO"/><use transform="matrix(0.05,0,0,0.05,5.95,0)" xlink:href="#aD"/><use transform="matrix(0.05,0,0,0.05,10.95,0)" xlink:href="#aE"/><use transform="matrix(0.05,0,0,0.05,22.6,0)" xlink:href="#aF"/><use transform="matrix(0.05,0,0,0.05,26.55,0)" xlink:href="#aG"/><use transform="matrix(0.05,0,0,0.05,36.55,0)" xlink:href="#aH"/><use transform="matrix(0.05,0,0,0.05,49.5,0)" xlink:href="#bj"/><use transform="matrix(0.05,0,0,0.05,61.5,0)" xlink:href="#aY"/><use transform="matrix(0.05,0,0,0.05,70.5,0)" xlink:href="#aG"/><use transform="matrix(0.05,0,0,0.05,80.5,0)" xlink:href="#aP"/><use transform="matrix(0.05,0,0,0.05,90.5,0)" xlink:href="#aA"/><use transform="matrix(0.05,0,0,0.05,95.5,0)" xlink:href="#az"/><use transform="matrix(0.05,0,0,0.05,104.5,0)" xlink:href="#bg"/><use transform="matrix(0.05,0,0,0.05,109.5,0)" xlink:href="#bg"/><use transform="matrix(0.05,0,0,0.05,114.5,0)" xlink:href="#bb"/></g><g id="y"><use transform="matrix(0.05,0,0,0.05,0,0)" xlink:href="#bf"/><use transform="matrix(0.05,0,0,0.05,10,0)" xlink:href="#bd"/><use transform="matrix(0.05,0,0,0.05,20.950000000000003,0)" xlink:href="#aP"/><use transform="matrix(0.05,0,0,0.05,30.950000000000003,0)" xlink:href="#aT"/><use transform="matrix(0.05,0,0,0.05,36.900000000000006,0)" xlink:href="#aO"/><use transform="matrix(0.05,0,0,0.05,42.85000000000001,0)" xlink:href="#aC"/><use transform="matrix(0.05,0,0,0.05,51.85,0)" xlink:href="#aJ"/><use transform="matrix(0.05,0,0,0.05,61.85,0)" xlink:href="#ax"/><use transform="matrix(0.05,0,0,0.05,71.85000000000001,0)" xlink:href="#aB"/><use transform="matrix(0.05,0,0,0.05,77.80000000000001,0)" xlink:href="#aT"/><use transform="matrix(0.05,0,0,0.05,83.75000000000001,0)" xlink:href="#bi"/></g><g id="z"><use transform="matrix(0.05,0,0,0.05,0,0)" xlink:href="#aC"/><use transform="matrix(0.05,0,0,0.05,9,0)" xlink:href="#aJ"/><use transform="matrix(0.05,0,0,0.05,19,0)" xlink:href="#ax"/><use transform="matrix(0.05,0,0,0.05,29,0)" xlink:href="#aB"/><use transform="matrix(0.05,0,0,0.05,34.95,0)" xlink:href="#aT"/></g><g id="A"><use transform="matrix(0.05,0,0,0.05,0,0)" xlink:href="#bl"/><use transform="matrix(0.05,0,0,0.05,12,0)" xlink:href="#aB"/><use transform="matrix(0.05,0,0,0.05,17.95,0)" xlink:href="#aG"/><use transform="matrix(0.05,0,0,0.05,27.950000000000003,0)" xlink:href="#az"/><use transform="matrix(0.05,0,0,0.05,36.95,0)" xlink:href="#aG"/><use transform="matrix(0.05,0,0,0.05,46.95,0)" xlink:href="#aP"/><use transform="matrix(0.05,0,0,0.05,56.95,0)" xlink:href="#aA"/><use transform="matrix(0.05,0,0,0.05,61.95,0)" xlink:href="#aG"/><use transform="matrix(0.05,0,0,0.05,71.95,0)" xlink:href="#aB"/></g><g id="B"><use transform="matrix(0.05,0,0,0.05,0,0)" xlink:href="#aY"/><use transform="matrix(0.05,0,0,0.05,9,0)" xlink:href="#aF"/><use transform="matrix(0.05,0,0,0.05,12.949999999999998,0)" xlink:href="#aG"/><use transform="matrix(0.05,0,0,0.05,22.95,0)" xlink:href="#aH"/><use transform="matrix(0.05,0,0,0.05,35.9,0)" xlink:href="#bg"/></g><g id="C"><use transform="matrix(0.05,0,0,0.05,0,0)" xlink:href="#aD"/><use transform="matrix(0.05,0,0,0.05,5,0)" xlink:href="#aE"/><use transform="matrix(0.05,0,0,0.05,16.65,0)" xlink:href="#aF"/><use transform="matrix(0.05,0,0,0.05,20.599999999999998,0)" xlink:href="#aG"/><use transform="matrix(0.05,0,0,0.05,30.599999999999994,0)" xlink:href="#aH"/><use transform="matrix(0.05,0,0,0.05,43.55,0)" xlink:href="#bb"/></g><g id="D"><use transform="matrix(0.05,0,0,0.05,0,0)" xlink:href="#aN"/><use transform="matrix(0.05,0,0,0.05,14.950000000000001,0)" xlink:href="#aK"/><use transform="matrix(0.05,0,0,0.05,24.950000000000003,0)" xlink:href="#aR"/><use transform="matrix(0.05,0,0,0.05,34.95,0)" xlink:href="#aG"/><use transform="matrix(0.05,0,0,0.05,44.95,0)" xlink:href="#aM"/><use transform="matrix(0.05,0,0,0.05,48.900000000000006,0)" xlink:href="#bg"/><use transform="matrix(0.05,0,0,0.05,58.900000000000006,0)" xlink:href="#aU"/><use transform="matrix(0.05,0,0,0.05,73.85000000000001,0)" xlink:href="#aK"/><use transform="matrix(0.05,0,0,0.05,83.85000000000001,0)" xlink:href="#aR"/><use transform="matrix(0.05,0,0,0.05,93.85000000000001,0)" xlink:href="#aG"/><use transform="matrix(0.05,0,0,0.05,103.85000000000001,0)" xlink:href="#aM"/><use transform="matrix(0.05,0,0,0.05,107.80000000000001,0)" xlink:href="#bb"/></g><path fill="#333" d="M205 0l-28-72H64L36 0H1l101-248h38L239 0h-34zm-38-99l-47-123c-12 45-31 82-46 123h93" id="bo"/><path fill="#333" d="M9 0v-24l116-142H16v-24h144v24L44-24h123V0H9" id="bp"/><g id="E"><use transform="matrix(0.05,0,0,0.05,0,0)" xlink:href="#az"/><use transform="matrix(0.05,0,0,0.05,9,0)" xlink:href="#aA"/><use transform="matrix(0.05,0,0,0.05,14,0)" xlink:href="#ax"/><use transform="matrix(0.05,0,0,0.05,24,0)" xlink:href="#aB"/><use transform="matrix(0.05,0,0,0.05,29.950000000000003,0)" xlink:href="#aA"/><use transform="matrix(0.05,0,0,0.05,34.95,0)" xlink:href="#bo"/><use transform="matrix(0.05,0,0,0.05,46.95,0)" xlink:href="#aP"/><use transform="matrix(0.05,0,0,0.05,56.95,0)" xlink:href="#ax"/><use transform="matrix(0.05,0,0,0.05,66.95,0)" xlink:href="#aM"/><use transform="matrix(0.05,0,0,0.05,70.9,0)" xlink:href="#aS"/><use transform="matrix(0.05,0,0,0.05,79.9,0)" xlink:href="#bp"/><use transform="matrix(0.05,0,0,0.05,88.9,0)" xlink:href="#aG"/><use transform="matrix(0.05,0,0,0.05,98.9,0)" xlink:href="#aO"/><use transform="matrix(0.05,0,0,0.05,104.85000000000001,0)" xlink:href="#aT"/></g><g id="F"><use transform="matrix(0.05,0,0,0.05,0,0)" xlink:href="#aW"/><use transform="matrix(0.05,0,0,0.05,10,0)" xlink:href="#az"/><use transform="matrix(0.05,0,0,0.05,19,0)" xlink:href="#aG"/></g><g id="G"><use transform="matrix(0.05,0,0,0.05,0,0)" xlink:href="#aU"/><use transform="matrix(0.05,0,0,0.05,14.950000000000001,0)" xlink:href="#aK"/><use transform="matrix(0.05,0,0,0.05,24.950000000000003,0)" xlink:href="#aR"/><use transform="matrix(0.05,0,0,0.05,34.95,0)" xlink:href="#aG"/><use transform="matrix(0.05,0,0,0.05,44.95,0)" xlink:href="#aM"/></g><g id="H"><use transform="matrix(0.05,0,0,0.05,0,0)" xlink:href="#aY"/><use transform="matrix(0.05,0,0,0.05,9,0)" xlink:href="#aG"/><use transform="matrix(0.05,0,0,0.05,19,0)" xlink:href="#aC"/><use transform="matrix(0.05,0,0,0.05,28,0)" xlink:href="#aA"/><use transform="matrix(0.05,0,0,0.05,33,0)" xlink:href="#aK"/><use transform="matrix(0.05,0,0,0.05,43,0)" xlink:href="#aB"/><use transform="matrix(0.05,0,0,0.05,48.95,0)" xlink:href="#aZ"/><use transform="matrix(0.05,0,0,0.05,59.45,0)" xlink:href="#bf"/><use transform="matrix(0.05,0,0,0.05,69.45,0)" xlink:href="#ax"/><use transform="matrix(0.05,0,0,0.05,79.45,0)" xlink:href="#aF"/><use transform="matrix(0.05,0,0,0.05,83.4,0)" xlink:href="#aB"/><use transform="matrix(0.05,0,0,0.05,89.35000000000001,0)" xlink:href="#aZ"/><use transform="matrix(0.05,0,0,0.05,99.85000000000001,0)" xlink:href="#bf"/><use transform="matrix(0.05,0,0,0.05,109.85000000000001,0)" xlink:href="#ax"/><use transform="matrix(0.05,0,0,0.05,119.85000000000001,0)" xlink:href="#aA"/><use transform="matrix(0.05,0,0,0.05,124.85000000000001,0)" xlink:href="#aJ"/><use transform="matrix(0.05,0,0,0.05,134.85000000000002,0)" xlink:href="#bi"/></g><g id="I"><use transform="matrix(0.05,0,0,0.05,0,0)" xlink:href="#aF"/><use transform="matrix(0.05,0,0,0.05,3.95,0)" xlink:href="#aP"/><use transform="matrix(0.05,0,0,0.05,13.949999999999998,0)" xlink:href="#aA"/><use transform="matrix(0.05,0,0,0.05,18.95,0)" xlink:href="#bc"/><use transform="matrix(0.05,0,0,0.05,29.450000000000003,0)" xlink:href="#bc"/></g><g id="J"><use transform="matrix(0.05,0,0,0.05,0,0)" xlink:href="#aF"/><use transform="matrix(0.05,0,0,0.05,3.95,0)" xlink:href="#aP"/><use transform="matrix(0.05,0,0,0.05,13.949999999999998,0)" xlink:href="#aC"/><use transform="matrix(0.05,0,0,0.05,22.95,0)" xlink:href="#aM"/><use transform="matrix(0.05,0,0,0.05,26.899999999999995,0)" xlink:href="#aW"/><use transform="matrix(0.05,0,0,0.05,36.9,0)" xlink:href="#aR"/><use transform="matrix(0.05,0,0,0.05,46.9,0)" xlink:href="#aG"/><use transform="matrix(0.05,0,0,0.05,56.900000000000006,0)" xlink:href="#bd"/><use transform="matrix(0.05,0,0,0.05,67.85,0)" xlink:href="#aF"/><use transform="matrix(0.05,0,0,0.05,71.8,0)" xlink:href="#aM"/><use transform="matrix(0.05,0,0,0.05,75.75,0)" xlink:href="#aG"/><use transform="matrix(0.05,0,0,0.05,85.75,0)" xlink:href="#az"/></g><g id="K"><use transform="matrix(0.05,0,0,0.05,0,0)" xlink:href="#aY"/><use transform="matrix(0.05,0,0,0.05,9,0)" xlink:href="#aG"/><use transform="matrix(0.05,0,0,0.05,19,0)" xlink:href="#aC"/><use transform="matrix(0.05,0,0,0.05,28,0)" xlink:href="#aA"/><use transform="matrix(0.05,0,0,0.05,33,0)" xlink:href="#aK"/><use transform="matrix(0.05,0,0,0.05,43,0)" xlink:href="#aB"/></g><g id="L"><use transform="matrix(0.05,0,0,0.05,0,0)" xlink:href="#aZ"/><use transform="matrix(0.05,0,0,0.05,10.5,0)" xlink:href="#ba"/><use transform="matrix(0.05,0,0,0.05,23.450000000000003,0)" xlink:href="#aK"/><use transform="matrix(0.05,0,0,0.05,33.45,0)" xlink:href="#aR"/><use transform="matrix(0.05,0,0,0.05,43.45,0)" xlink:href="#aG"/><use transform="matrix(0.05,0,0,0.05,53.45,0)" xlink:href="#bb"/><use transform="matrix(0.05,0,0,0.05,60.45,0)" xlink:href="#bc"/></g><g id="M"><use transform="matrix(0.05,0,0,0.05,0,0)" xlink:href="#aP"/><use transform="matrix(0.05,0,0,0.05,10,0)" xlink:href="#aK"/><use transform="matrix(0.05,0,0,0.05,20,0)" xlink:href="#aR"/><use transform="matrix(0.05,0,0,0.05,30,0)" xlink:href="#aG"/><use transform="matrix(0.05,0,0,0.05,40,0)" xlink:href="#az"/></g><path fill="#333" d="M143 0L79-87 56-68V0H24v-261h32v163l83-92h37l-77 82L181 0h-38" id="bq"/><g id="N"><use transform="matrix(0.05,0,0,0.05,0,0)" xlink:href="#aN"/><use transform="matrix(0.05,0,0,0.05,14.950000000000001,0)" xlink:href="#ax"/><use transform="matrix(0.05,0,0,0.05,24.950000000000003,0)" xlink:href="#bq"/><use transform="matrix(0.05,0,0,0.05,33.95,0)" xlink:href="#aG"/><use transform="matrix(0.05,0,0,0.05,43.95,0)" xlink:href="#aX"/><use transform="matrix(0.05,0,0,0.05,54.25,0)" xlink:href="#aB"/><use transform="matrix(0.05,0,0,0.05,60.20000000000002,0)" xlink:href="#aG"/><use transform="matrix(0.05,0,0,0.05,70.20000000000002,0)" xlink:href="#aG"/><use transform="matrix(0.05,0,0,0.05,80.20000000000002,0)" xlink:href="#aO"/><use transform="matrix(0.05,0,0,0.05,86.15000000000002,0)" xlink:href="#ba"/><use transform="matrix(0.05,0,0,0.05,99.10000000000002,0)" xlink:href="#aK"/><use transform="matrix(0.05,0,0,0.05,109.10000000000002,0)" xlink:href="#aR"/><use transform="matrix(0.05,0,0,0.05,119.10000000000002,0)" xlink:href="#aG"/><use transform="matrix(0.05,0,0,0.05,129.10000000000002,0)" xlink:href="#bb"/></g><use transform="matrix(0.05,0,0,0.05,0,0)" xlink:href="#bi" id="O"/><g id="P"><use transform="matrix(0.05,0,0,0.05,0,0)" xlink:href="#aC"/><use transform="matrix(0.05,0,0,0.05,9,0)" xlink:href="#aK"/><use transform="matrix(0.05,0,0,0.05,19,0)" xlink:href="#aP"/><use transform="matrix(0.05,0,0,0.05,29,0)" xlink:href="#az"/><use transform="matrix(0.05,0,0,0.05,38,0)" xlink:href="#aA"/></g><path fill="#333" d="M234-2c-28 10-62 0-77-18C117 19 8 12 13-65c3-43 29-61 60-76-25-40-17-114 47-108 35 3 59 15 59 50 0 44-40 53-71 69 14 26 32 50 51 72 14-21 24-43 30-72l26 8c-9 33-21 57-38 82 13 13 33 22 57 15v23zM97-151c25-10 52-18 56-48-1-18-13-29-33-29-42 0-39 50-23 77zM42-66c-3 51 71 58 98 28-20-24-41-51-56-80-23 10-40 24-42 52" id="br"/><path fill="#333" d="M68-36c1 33-1 63-14 82H32c9-13 17-26 17-46H33v-36h35zM33-154v-36h35v36H33" id="bs"/><g id="Q"><use transform="matrix(0.05,0,0,0.05,0,0)" xlink:href="#bf"/><use transform="matrix(0.05,0,0,0.05,10,0)" xlink:href="#ax"/><use transform="matrix(0.05,0,0,0.05,20,0)" xlink:href="#aA"/><use transform="matrix(0.05,0,0,0.05,25,0)" xlink:href="#aJ"/><use transform="matrix(0.05,0,0,0.05,35,0)" xlink:href="#br"/><use transform="matrix(0.05,0,0,0.05,47,0)" xlink:href="#aT"/><use transform="matrix(0.05,0,0,0.05,52.95,0)" xlink:href="#bs"/></g><g id="R"><use transform="matrix(0.05,0,0,0.05,0,0)" xlink:href="#aN"/><use transform="matrix(0.05,0,0,0.05,14.950000000000001,0)" xlink:href="#ax"/><use transform="matrix(0.05,0,0,0.05,24.950000000000003,0)" xlink:href="#bq"/><use transform="matrix(0.05,0,0,0.05,33.95,0)" xlink:href="#aG"/><use transform="matrix(0.05,0,0,0.05,43.95,0)" xlink:href="#aX"/><use transform="matrix(0.05,0,0,0.05,54.25,0)" xlink:href="#aB"/><use transform="matrix(0.05,0,0,0.05,60.20000000000002,0)" xlink:href="#aG"/><use transform="matrix(0.05,0,0,0.05,70.20000000000002,0)" xlink:href="#aG"/><use transform="matrix(0.05,0,0,0.05,80.20000000000002,0)" xlink:href="#aO"/><use transform="matrix(0.05,0,0,0.05,86.15000000000002,0)" xlink:href="#aC"/><use transform="matrix(0.05,0,0,0.05,95.15000000000002,0)" xlink:href="#aK"/><use transform="matrix(0.05,0,0,0.05,105.15000000000003,0)" xlink:href="#aP"/><use transform="matrix(0.05,0,0,0.05,115.15000000000003,0)" xlink:href="#az"/><use transform="matrix(0.05,0,0,0.05,124.15000000000003,0)" xlink:href="#aA"/></g><g id="S"><use transform="matrix(0.05,0,0,0.05,0,0)" xlink:href="#ba"/><use transform="matrix(0.05,0,0,0.05,12.950000000000001,0)" xlink:href="#aK"/><use transform="matrix(0.05,0,0,0.05,22.950000000000003,0)" xlink:href="#aR"/><use transform="matrix(0.05,0,0,0.05,32.95,0)" xlink:href="#aG"/></g><use transform="matrix(0.05,0,0,0.05,0,0)" xlink:href="#bb" id="T"/><g id="U"><use transform="matrix(0.05,0,0,0.05,0,0)" xlink:href="#ba"/><use transform="matrix(0.05,0,0,0.05,12.950000000000001,0)" xlink:href="#aK"/><use transform="matrix(0.05,0,0,0.05,22.950000000000003,0)" xlink:href="#aR"/><use transform="matrix(0.05,0,0,0.05,32.95,0)" xlink:href="#aG"/><use transform="matrix(0.05,0,0,0.05,42.95,0)" xlink:href="#bb"/></g><g id="V"><use transform="matrix(0.05,0,0,0.05,0,0)" xlink:href="#bf"/><use transform="matrix(0.05,0,0,0.05,10,0)" xlink:href="#ax"/><use transform="matrix(0.05,0,0,0.05,20,0)" xlink:href="#aA"/><use transform="matrix(0.05,0,0,0.05,25,0)" xlink:href="#aJ"/><use transform="matrix(0.05,0,0,0.05,35,0)" xlink:href="#br"/></g><g id="W"><use transform="matrix(0.05,0,0,0.05,0,0)" xlink:href="#ay"/><use transform="matrix(0.05,0,0,0.05,10,0)" xlink:href="#aK"/><use transform="matrix(0.05,0,0,0.05,20,0)" xlink:href="#aK"/><use transform="matrix(0.05,0,0,0.05,30,0)" xlink:href="#aM"/><use transform="matrix(0.05,0,0,0.05,33.95,0)" xlink:href="#aT"/><use transform="matrix(0.05,0,0,0.05,39.900000000000006,0)" xlink:href="#bs"/></g><path fill="#333" d="M197 0v-115H63V0H30v-248h33v105h134v-105h34V0h-34" id="bt"/><g id="X"><use transform="matrix(0.05,0,0,0.05,0,0)" xlink:href="#bf"/><use transform="matrix(0.05,0,0,0.05,10,0)" xlink:href="#ax"/><use transform="matrix(0.05,0,0,0.05,20,0)" xlink:href="#aB"/><use transform="matrix(0.05,0,0,0.05,25.950000000000003,0)" xlink:href="#aC"/><use transform="matrix(0.05,0,0,0.05,34.95,0)" xlink:href="#aG"/><use transform="matrix(0.05,0,0,0.05,44.95,0)" xlink:href="#bd"/><use transform="matrix(0.05,0,0,0.05,55.900000000000006,0)" xlink:href="#aF"/><use transform="matrix(0.05,0,0,0.05,59.85,0)" xlink:href="#aM"/><use transform="matrix(0.05,0,0,0.05,63.80000000000001,0)" xlink:href="#aG"/><use transform="matrix(0.05,0,0,0.05,73.80000000000001,0)" xlink:href="#bt"/><use transform="matrix(0.05,0,0,0.05,86.75000000000001,0)" xlink:href="#aG"/><use transform="matrix(0.05,0,0,0.05,96.75000000000001,0)" xlink:href="#ax"/><use transform="matrix(0.05,0,0,0.05,106.75,0)" xlink:href="#aR"/><use transform="matrix(0.05,0,0,0.05,116.75,0)" xlink:href="#aG"/><use transform="matrix(0.05,0,0,0.05,126.75,0)" xlink:href="#aB"/><use transform="matrix(0.05,0,0,0.05,132.70000000000002,0)" xlink:href="#bn"/><use transform="matrix(0.05,0,0,0.05,142.70000000000002,0)" xlink:href="#aF"/><use transform="matrix(0.05,0,0,0.05,146.65,0)" xlink:href="#aP"/><use transform="matrix(0.05,0,0,0.05,156.65,0)" xlink:href="#aG"/><use transform="matrix(0.05,0,0,0.05,166.65,0)" xlink:href="#aO"/><use transform="matrix(0.05,0,0,0.05,172.6,0)" xlink:href="#az"/><use transform="matrix(0.05,0,0,0.05,181.6,0)" xlink:href="#aA"/><use transform="matrix(0.05,0,0,0.05,186.6,0)" xlink:href="#aB"/><use transform="matrix(0.05,0,0,0.05,192.54999999999998,0)" xlink:href="#aF"/><use transform="matrix(0.05,0,0,0.05,196.49999999999997,0)" xlink:href="#aP"/><use transform="matrix(0.05,0,0,0.05,206.49999999999997,0)" xlink:href="#aQ"/><use transform="matrix(0.05,0,0,0.05,216.49999999999997,0)" xlink:href="#aT"/><use transform="matrix(0.05,0,0,0.05,222.44999999999996,0)" xlink:href="#bg"/></g><g id="Y"><use transform="matrix(0.05,0,0,0.05,0,0)" xlink:href="#bf"/><use transform="matrix(0.05,0,0,0.05,10,0)" xlink:href="#ax"/><use transform="matrix(0.05,0,0,0.05,20,0)" xlink:href="#aF"/><use transform="matrix(0.05,0,0,0.05,23.95,0)" xlink:href="#aB"/></g><path fill="#333" d="M233-177c-1 41-23 64-60 70L243 0h-38l-65-103H63V0H30v-248c88 3 205-21 203 71zM63-129c60-2 137 13 137-47 0-61-80-42-137-45v92" id="bu"/><path fill="#333" d="M141 0L90-78 38 0H4l68-98-65-92h35l48 74 47-74h35l-64 92 68 98h-35" id="bv"/><g id="Z"><use transform="matrix(0.05,0,0,0.05,0,0)" xlink:href="#aZ"/><use transform="matrix(0.05,0,0,0.05,10.5,0)" xlink:href="#bn"/><use transform="matrix(0.05,0,0,0.05,20.5,0)" xlink:href="#aF"/><use transform="matrix(0.05,0,0,0.05,24.45,0)" xlink:href="#aP"/><use transform="matrix(0.05,0,0,0.05,34.45,0)" xlink:href="#aG"/><use transform="matrix(0.05,0,0,0.05,44.45,0)" xlink:href="#bu"/><use transform="matrix(0.05,0,0,0.05,57.400000000000006,0)" xlink:href="#aG"/><use transform="matrix(0.05,0,0,0.05,67.4,0)" xlink:href="#aQ"/><use transform="matrix(0.05,0,0,0.05,77.4,0)" xlink:href="#bj"/><use transform="matrix(0.05,0,0,0.05,89.4,0)" xlink:href="#bv"/><use transform="matrix(0.05,0,0,0.05,98.4,0)" xlink:href="#bf"/><use transform="matrix(0.05,0,0,0.05,108.4,0)" xlink:href="#aV"/><use transform="matrix(0.05,0,0,0.05,120.4,0)" xlink:href="#aA"/><use transform="matrix(0.05,0,0,0.05,125.4,0)" xlink:href="#ax"/><use transform="matrix(0.05,0,0,0.05,135.4,0)" xlink:href="#aA"/><use transform="matrix(0.05,0,0,0.05,140.4,0)" xlink:href="#aW"/><use transform="matrix(0.05,0,0,0.05,150.4,0)" xlink:href="#az"/><use transform="matrix(0.05,0,0,0.05,159.4,0)" xlink:href="#bi"/></g><g id="aa"><use transform="matrix(0.05,0,0,0.05,0,0)" xlink:href="#az"/><use transform="matrix(0.05,0,0,0.05,9,0)" xlink:href="#aA"/><use transform="matrix(0.05,0,0,0.05,14,0)" xlink:href="#aB"/><use transform="matrix(0.05,0,0,0.05,19.95,0)" xlink:href="#aF"/><use transform="matrix(0.05,0,0,0.05,23.9,0)" xlink:href="#aP"/><use transform="matrix(0.05,0,0,0.05,33.9,0)" xlink:href="#aQ"/><use transform="matrix(0.05,0,0,0.05,43.9,0)" xlink:href="#bc"/></g><g id="ab"><use transform="matrix(0.05,0,0,0.05,0,0)" xlink:href="#aQ"/><use transform="matrix(0.05,0,0,0.05,10,0)" xlink:href="#aG"/><use transform="matrix(0.05,0,0,0.05,20,0)" xlink:href="#aA"/><use transform="matrix(0.05,0,0,0.05,25,0)" xlink:href="#aD"/><use transform="matrix(0.05,0,0,0.05,30,0)" xlink:href="#aP"/><use transform="matrix(0.05,0,0,0.05,40,0)" xlink:href="#aC"/><use transform="matrix(0.05,0,0,0.05,49,0)" xlink:href="#aM"/><use transform="matrix(0.05,0,0,0.05,52.95,0)" xlink:href="#aW"/><use transform="matrix(0.05,0,0,0.05,62.95,0)" xlink:href="#aR"/><use transform="matrix(0.05,0,0,0.05,72.95,0)" xlink:href="#aG"/><use transform="matrix(0.05,0,0,0.05,82.95,0)" xlink:href="#bd"/><use transform="matrix(0.05,0,0,0.05,93.9,0)" xlink:href="#aF"/><use transform="matrix(0.05,0,0,0.05,97.85000000000001,0)" xlink:href="#aM"/><use transform="matrix(0.05,0,0,0.05,101.80000000000001,0)" xlink:href="#aG"/><use transform="matrix(0.05,0,0,0.05,111.80000000000001,0)" xlink:href="#az"/><use transform="matrix(0.05,0,0,0.05,120.80000000000001,0)" xlink:href="#bd"/><use transform="matrix(0.05,0,0,0.05,131.75,0)" xlink:href="#aB"/><use transform="matrix(0.05,0,0,0.05,137.7,0)" xlink:href="#aG"/><use transform="matrix(0.05,0,0,0.05,147.7,0)" xlink:href="#be"/><use transform="matrix(0.05,0,0,0.05,157.7,0)" xlink:href="#aO"/><use transform="matrix(0.05,0,0,0.05,163.64999999999998,0)" xlink:href="#aT"/><use transform="matrix(0.05,0,0,0.05,169.59999999999997,0)" xlink:href="#bg"/></g><g id="ac"><use transform="matrix(0.05,0,0,0.05,0,0)" xlink:href="#aF"/><use transform="matrix(0.05,0,0,0.05,3.95,0)" xlink:href="#aP"/><use transform="matrix(0.05,0,0,0.05,13.949999999999998,0)" xlink:href="#aA"/><use transform="matrix(0.05,0,0,0.05,18.95,0)" xlink:href="#bc"/><use transform="matrix(0.05,0,0,0.05,29.450000000000003,0)" xlink:href="#bc"/></g><g id="ad"><use transform="matrix(0.05,0,0,0.05,0,0)" xlink:href="#aQ"/><use transform="matrix(0.05,0,0,0.05,10,0)" xlink:href="#aG"/><use transform="matrix(0.05,0,0,0.05,20,0)" xlink:href="#aA"/><use transform="matrix(0.05,0,0,0.05,25,0)" xlink:href="#aX"/><use transform="matrix(0.05,0,0,0.05,35.300000000000004,0)" xlink:href="#aB"/><use transform="matrix(0.05,0,0,0.05,41.25000000000001,0)" xlink:href="#aG"/><use transform="matrix(0.05,0,0,0.05,51.25,0)" xlink:href="#aG"/><use transform="matrix(0.05,0,0,0.05,61.25,0)" xlink:href="#ba"/><use transform="matrix(0.05,0,0,0.05,74.2,0)" xlink:href="#aK"/><use transform="matrix(0.05,0,0,0.05,84.2,0)" xlink:href="#aR"/><use transform="matrix(0.05,0,0,0.05,94.2,0)" xlink:href="#aG"/><use transform="matrix(0.05,0,0,0.05,104.2,0)" xlink:href="#az"/><use transform="matrix(0.05,0,0,0.05,113.2,0)" xlink:href="#aO"/><use transform="matrix(0.05,0,0,0.05,119.15,0)" xlink:href="#aT"/><use transform="matrix(0.05,0,0,0.05,125.10000000000001,0)" xlink:href="#bg"/><use transform="matrix(0.05,0,0,0.05,135.10000000000002,0)" xlink:href="#aY"/><use transform="matrix(0.05,0,0,0.05,144.10000000000002,0)" xlink:href="#aG"/><use transform="matrix(0.05,0,0,0.05,154.10000000000002,0)" xlink:href="#aC"/><use transform="matrix(0.05,0,0,0.05,163.10000000000002,0)" xlink:href="#aA"/><use transform="matrix(0.05,0,0,0.05,168.10000000000002,0)" xlink:href="#aK"/><use transform="matrix(0.05,0,0,0.05,178.10000000000002,0)" xlink:href="#aB"/></g><g id="ae"><use transform="matrix(0.05,0,0,0.05,0,0)" xlink:href="#aZ"/><use transform="matrix(0.05,0,0,0.05,10.5,0)" xlink:href="#ba"/><use transform="matrix(0.05,0,0,0.05,23.450000000000003,0)" xlink:href="#aK"/><use transform="matrix(0.05,0,0,0.05,33.45,0)" xlink:href="#aR"/><use transform="matrix(0.05,0,0,0.05,43.45,0)" xlink:href="#aG"/><use transform="matrix(0.05,0,0,0.05,53.45,0)" xlink:href="#bb"/><use transform="matrix(0.05,0,0,0.05,60.45,0)" xlink:href="#bc"/></g><g id="af"><use transform="matrix(0.05,0,0,0.05,0,0)" xlink:href="#az"/><use transform="matrix(0.05,0,0,0.05,9,0)" xlink:href="#aA"/><use transform="matrix(0.05,0,0,0.05,14,0)" xlink:href="#ax"/><use transform="matrix(0.05,0,0,0.05,24,0)" xlink:href="#aB"/><use transform="matrix(0.05,0,0,0.05,29.950000000000003,0)" xlink:href="#aA"/><use transform="matrix(0.05,0,0,0.05,34.95,0)" xlink:href="#bo"/><use transform="matrix(0.05,0,0,0.05,46.95,0)" xlink:href="#aP"/><use transform="matrix(0.05,0,0,0.05,56.95,0)" xlink:href="#ax"/><use transform="matrix(0.05,0,0,0.05,66.95,0)" xlink:href="#aM"/><use transform="matrix(0.05,0,0,0.05,70.9,0)" xlink:href="#aS"/><use transform="matrix(0.05,0,0,0.05,79.9,0)" xlink:href="#bp"/><use transform="matrix(0.05,0,0,0.05,88.9,0)" xlink:href="#aG"/></g><g id="ag"><use transform="matrix(0.05,0,0,0.05,0,0)" xlink:href="#aO"/><use transform="matrix(0.05,0,0,0.05,5.95,0)" xlink:href="#aT"/></g><path d="M190 0L58-211 59 0H30v-248h39L202-35l-2-213h31V0h-41" id="bw"/><path d="M100-194c62-1 85 37 85 99 1 63-27 99-86 99S16-35 15-95c0-66 28-99 85-99zM99-20c44 1 53-31 53-75 0-43-8-75-51-75s-53 32-53 75 10 74 51 75" id="bx"/><path d="M85-194c31 0 48 13 60 33l-1-100h32l1 261h-30c-2-10 0-23-3-31C134-8 116 4 85 4 32 4 16-35 15-94c0-66 23-100 70-100zm9 24c-40 0-46 34-46 75 0 40 6 74 45 74 42 0 51-32 51-76 0-42-9-74-50-73" id="by"/><path d="M100-194c63 0 86 42 84 106H49c0 40 14 67 53 68 26 1 43-12 49-29l28 8c-11 28-37 45-77 45C44 4 14-33 15-96c1-61 26-98 85-98zm52 81c6-60-76-77-97-28-3 7-6 17-6 28h103" id="bz"/><g id="ah"><use transform="matrix(0.05,0,0,0.05,0,0)" xlink:href="#bw"/><use transform="matrix(0.05,0,0,0.05,12.950000000000001,0)" xlink:href="#bx"/><use transform="matrix(0.05,0,0,0.05,22.950000000000003,0)" xlink:href="#by"/><use transform="matrix(0.05,0,0,0.05,32.95,0)" xlink:href="#bz"/></g><g id="ai"><use transform="matrix(0.05,0,0,0.05,0,0)" xlink:href="#aP"/><use transform="matrix(0.05,0,0,0.05,10,0)" xlink:href="#aK"/><use transform="matrix(0.05,0,0,0.05,20,0)" xlink:href="#aR"/><use transform="matrix(0.05,0,0,0.05,30,0)" xlink:href="#aG"/><use transform="matrix(0.05,0,0,0.05,40,0)" xlink:href="#bl"/><use transform="matrix(0.05,0,0,0.05,52,0)" xlink:href="#ax"/><use transform="matrix(0.05,0,0,0.05,62,0)" xlink:href="#aA"/><use transform="matrix(0.05,0,0,0.05,67,0)" xlink:href="#aJ"/><use transform="matrix(0.05,0,0,0.05,77,0)" xlink:href="#bg"/></g><g id="aj"><use transform="matrix(0.05,0,0,0.05,0,0)" xlink:href="#az"/><use transform="matrix(0.05,0,0,0.05,9,0)" xlink:href="#aA"/><use transform="matrix(0.05,0,0,0.05,14,0)" xlink:href="#aR"/><use transform="matrix(0.05,0,0,0.05,24,0)" xlink:href="#bg"/><use transform="matrix(0.05,0,0,0.05,29,0)" xlink:href="#bg"/><use transform="matrix(0.05,0,0,0.05,34,0)" xlink:href="#bh"/><use transform="matrix(0.05,0,0,0.05,39,0)" xlink:href="#aF"/><use transform="matrix(0.05,0,0,0.05,42.95,0)" xlink:href="#aM"/><use transform="matrix(0.05,0,0,0.05,46.900000000000006,0)" xlink:href="#aG"/><use transform="matrix(0.05,0,0,0.05,56.900000000000006,0)" xlink:href="#az"/><use transform="matrix(0.05,0,0,0.05,65.9,0)" xlink:href="#aS"/><use transform="matrix(0.05,0,0,0.05,74.9,0)" xlink:href="#az"/><use transform="matrix(0.05,0,0,0.05,83.9,0)" xlink:href="#aA"/><use transform="matrix(0.05,0,0,0.05,88.9,0)" xlink:href="#aG"/><use transform="matrix(0.05,0,0,0.05,98.9,0)" xlink:href="#aN"/><use transform="matrix(0.05,0,0,0.05,113.85000000000001,0)" xlink:href="#bg"/><use transform="matrix(0.05,0,0,0.05,118.85000000000001,0)" xlink:href="#bg"/><use transform="matrix(0.05,0,0,0.05,123.85000000000001,0)" xlink:href="#bf"/><use transform="matrix(0.05,0,0,0.05,133.85000000000002,0)" xlink:href="#ax"/><use transform="matrix(0.05,0,0,0.05,143.85000000000002,0)" xlink:href="#aA"/><use transform="matrix(0.05,0,0,0.05,148.85000000000002,0)" xlink:href="#aJ"/></g><path fill="#333" d="M140-251c81 0 123 46 123 126C263-46 219 4 140 4 59 4 17-45 17-125s42-126 123-126zm0 227c63 0 89-41 89-101s-29-99-89-99c-61 0-89 39-89 99S79-25 140-24" id="bA"/><g id="ak"><use transform="matrix(0.05,0,0,0.05,0,0)" xlink:href="#aF"/><use transform="matrix(0.05,0,0,0.05,3.95,0)" xlink:href="#az"/><use transform="matrix(0.05,0,0,0.05,12.949999999999998,0)" xlink:href="#bd"/><use transform="matrix(0.05,0,0,0.05,23.9,0)" xlink:href="#aK"/><use transform="matrix(0.05,0,0,0.05,33.9,0)" xlink:href="#aW"/><use transform="matrix(0.05,0,0,0.05,43.9,0)" xlink:href="#aP"/><use transform="matrix(0.05,0,0,0.05,53.900000000000006,0)" xlink:href="#aR"/><use transform="matrix(0.05,0,0,0.05,63.900000000000006,0)" xlink:href="#bA"/><use transform="matrix(0.05,0,0,0.05,77.9,0)" xlink:href="#aP"/><use transform="matrix(0.05,0,0,0.05,87.9,0)" xlink:href="#bd"/><use transform="matrix(0.05,0,0,0.05,98.85000000000001,0)" xlink:href="#aF"/><use transform="matrix(0.05,0,0,0.05,102.80000000000001,0)" xlink:href="#aM"/><use transform="matrix(0.05,0,0,0.05,106.75,0)" xlink:href="#aG"/><use transform="matrix(0.05,0,0,0.05,116.75,0)" xlink:href="#az"/><use transform="matrix(0.05,0,0,0.05,125.75,0)" xlink:href="#aS"/><use transform="matrix(0.05,0,0,0.05,134.75,0)" xlink:href="#az"/><use transform="matrix(0.05,0,0,0.05,143.75,0)" xlink:href="#aA"/><use transform="matrix(0.05,0,0,0.05,148.75,0)" xlink:href="#aG"/><use transform="matrix(0.05,0,0,0.05,158.75,0)" xlink:href="#aN"/><use transform="matrix(0.05,0,0,0.05,173.7,0)" xlink:href="#bg"/></g><g id="al"><use transform="matrix(0.05,0,0,0.05,0,0)" xlink:href="#ay"/><use transform="matrix(0.05,0,0,0.05,10,0)" xlink:href="#aK"/><use transform="matrix(0.05,0,0,0.05,20,0)" xlink:href="#aK"/><use transform="matrix(0.05,0,0,0.05,30,0)" xlink:href="#aM"/></g><path fill="#333" d="M30-248c118-7 216 8 213 122C240-48 200 0 122 0H30v-248zM63-27c89 8 146-16 146-99s-60-101-146-95v194" id="bB"/><g id="an"><use transform="matrix(0.05,0,0,0.05,0,0)" xlink:href="#aF"/><use transform="matrix(0.05,0,0,0.05,3.95,0)" xlink:href="#az"/><use transform="matrix(0.05,0,0,0.05,12.949999999999998,0)" xlink:href="#bB"/><use transform="matrix(0.05,0,0,0.05,25.899999999999995,0)" xlink:href="#aW"/><use transform="matrix(0.05,0,0,0.05,35.9,0)" xlink:href="#bf"/><use transform="matrix(0.05,0,0,0.05,45.9,0)" xlink:href="#aM"/><use transform="matrix(0.05,0,0,0.05,49.85,0)" xlink:href="#aF"/><use transform="matrix(0.05,0,0,0.05,53.800000000000004,0)" xlink:href="#aC"/><use transform="matrix(0.05,0,0,0.05,62.800000000000004,0)" xlink:href="#ax"/><use transform="matrix(0.05,0,0,0.05,72.80000000000001,0)" xlink:href="#aA"/><use transform="matrix(0.05,0,0,0.05,77.80000000000001,0)" xlink:href="#aG"/><use transform="matrix(0.05,0,0,0.05,87.80000000000001,0)" xlink:href="#bg"/></g><g id="ao"><use transform="matrix(0.05,0,0,0.05,0,0)" xlink:href="#ay"/><use transform="matrix(0.05,0,0,0.05,10,0)" xlink:href="#aK"/><use transform="matrix(0.05,0,0,0.05,20,0)" xlink:href="#aK"/><use transform="matrix(0.05,0,0,0.05,30,0)" xlink:href="#aM"/></g><g id="ap"><use transform="matrix(0.05,0,0,0.05,0,0)" xlink:href="#aC"/><use transform="matrix(0.05,0,0,0.05,9,0)" xlink:href="#aJ"/><use transform="matrix(0.05,0,0,0.05,19,0)" xlink:href="#aF"/><use transform="matrix(0.05,0,0,0.05,22.95,0)" xlink:href="#aM"/><use transform="matrix(0.05,0,0,0.05,26.899999999999995,0)" xlink:href="#aR"/><use transform="matrix(0.05,0,0,0.05,36.9,0)" xlink:href="#az"/><use transform="matrix(0.05,0,0,0.05,45.9,0)" xlink:href="#bg"/></g><g id="aq"><use transform="matrix(0.05,0,0,0.05,0,0)" xlink:href="#az"/><use transform="matrix(0.05,0,0,0.05,9,0)" xlink:href="#aA"/><use transform="matrix(0.05,0,0,0.05,14,0)" xlink:href="#aR"/><use transform="matrix(0.05,0,0,0.05,24,0)" xlink:href="#bg"/><use transform="matrix(0.05,0,0,0.05,29,0)" xlink:href="#bg"/><use transform="matrix(0.05,0,0,0.05,34,0)" xlink:href="#aY"/><use transform="matrix(0.05,0,0,0.05,43,0)" xlink:href="#aG"/><use transform="matrix(0.05,0,0,0.05,53,0)" xlink:href="#aC"/><use transform="matrix(0.05,0,0,0.05,62,0)" xlink:href="#aA"/><use transform="matrix(0.05,0,0,0.05,67,0)" xlink:href="#aK"/><use transform="matrix(0.05,0,0,0.05,77,0)" xlink:href="#aB"/><use transform="matrix(0.05,0,0,0.05,82.95,0)" xlink:href="#aZ"/><use transform="matrix(0.05,0,0,0.05,93.45,0)" xlink:href="#ba"/><use transform="matrix(0.05,0,0,0.05,106.4,0)" xlink:href="#aK"/><use transform="matrix(0.05,0,0,0.05,116.4,0)" xlink:href="#aR"/><use transform="matrix(0.05,0,0,0.05,126.4,0)" xlink:href="#aG"/><use transform="matrix(0.05,0,0,0.05,136.4,0)" xlink:href="#bb"/><use transform="matrix(0.05,0,0,0.05,143.4,0)" xlink:href="#bc"/></g><path fill="#333" d="M212-179c-10-28-35-45-73-45-59 0-87 40-87 99 0 60 29 101 89 101 43 0 62-24 78-52l27 14C228-24 195 4 139 4 59 4 22-46 18-125c-6-104 99-153 187-111 19 9 31 26 39 46" id="bC"/><g id="ar"><use transform="matrix(0.05,0,0,0.05,0,0)" xlink:href="#bC"/><use transform="matrix(0.05,0,0,0.05,12.950000000000001,0)" xlink:href="#aK"/><use transform="matrix(0.05,0,0,0.05,22.950000000000003,0)" xlink:href="#aP"/><use transform="matrix(0.05,0,0,0.05,32.95,0)" xlink:href="#az"/><use transform="matrix(0.05,0,0,0.05,41.95,0)" xlink:href="#aK"/><use transform="matrix(0.05,0,0,0.05,51.95,0)" xlink:href="#aM"/><use transform="matrix(0.05,0,0,0.05,55.900000000000006,0)" xlink:href="#aG"/><use transform="matrix(0.05,0,0,0.05,65.9,0)" xlink:href="#aE"/><use transform="matrix(0.05,0,0,0.05,77.55000000000001,0)" xlink:href="#aF"/><use transform="matrix(0.05,0,0,0.05,81.50000000000001,0)" xlink:href="#aG"/><use transform="matrix(0.05,0,0,0.05,91.50000000000001,0)" xlink:href="#aH"/></g><use transform="matrix(0.05,0,0,0.05,0,0)" xlink:href="#bm" id="as"/><g id="at"><use transform="matrix(0.05,0,0,0.05,0,0)" xlink:href="#bf"/><use transform="matrix(0.05,0,0,0.05,10,0)" xlink:href="#aB"/><use transform="matrix(0.05,0,0,0.05,15.949999999999998,0)" xlink:href="#aF"/><use transform="matrix(0.05,0,0,0.05,19.9,0)" xlink:href="#aP"/><use transform="matrix(0.05,0,0,0.05,29.899999999999995,0)" xlink:href="#aA"/><use transform="matrix(0.05,0,0,0.05,34.9,0)" xlink:href="#ba"/><use transform="matrix(0.05,0,0,0.05,47.85,0)" xlink:href="#aK"/><use transform="matrix(0.05,0,0,0.05,57.85,0)" xlink:href="#aR"/><use transform="matrix(0.05,0,0,0.05,67.85,0)" xlink:href="#aG"/><use transform="matrix(0.05,0,0,0.05,77.85,0)" xlink:href="#aX"/><use transform="matrix(0.05,0,0,0.05,88.14999999999999,0)" xlink:href="#aB"/><use transform="matrix(0.05,0,0,0.05,94.1,0)" xlink:href="#aG"/><use transform="matrix(0.05,0,0,0.05,104.09999999999998,0)" xlink:href="#aG"/><use transform="matrix(0.05,0,0,0.05,114.09999999999998,0)" xlink:href="#aO"/><use transform="matrix(0.05,0,0,0.05,120.05000000000001,0)" xlink:href="#aC"/><use transform="matrix(0.05,0,0,0.05,129.05,0)" xlink:href="#aK"/><use transform="matrix(0.05,0,0,0.05,139.05,0)" xlink:href="#aP"/><use transform="matrix(0.05,0,0,0.05,149.05,0)" xlink:href="#az"/><use transform="matrix(0.05,0,0,0.05,158.05,0)" xlink:href="#aA"/></g><g id="au"><use transform="matrix(0.05,0,0,0.05,0,0)" xlink:href="#ba"/><use transform="matrix(0.05,0,0,0.05,12.950000000000001,0)" xlink:href="#aK"/><use transform="matrix(0.05,0,0,0.05,22.950000000000003,0)" xlink:href="#aR"/><use transform="matrix(0.05,0,0,0.05,32.95,0)" xlink:href="#aG"/><use transform="matrix(0.05,0,0,0.05,42.95,0)" xlink:href="#bb"/><use transform="matrix(0.05,0,0,0.05,49.95,0)" xlink:href="#bi"/></g><g id="av"><use transform="matrix(0.05,0,0,0.05,0,0)" xlink:href="#aC"/><use transform="matrix(0.05,0,0,0.05,9,0)" xlink:href="#aK"/><use transform="matrix(0.05,0,0,0.05,19,0)" xlink:href="#aP"/><use transform="matrix(0.05,0,0,0.05,29,0)" xlink:href="#az"/><use transform="matrix(0.05,0,0,0.05,38,0)" xlink:href="#aA"/></g><g id="aw"><use transform="matrix(0.05,0,0,0.05,0,0)" xlink:href="#az"/><use transform="matrix(0.05,0,0,0.05,9,0)" xlink:href="#aA"/><use transform="matrix(0.05,0,0,0.05,14,0)" xlink:href="#aB"/><use transform="matrix(0.05,0,0,0.05,19.95,0)" xlink:href="#aF"/><use transform="matrix(0.05,0,0,0.05,23.9,0)" xlink:href="#aP"/><use transform="matrix(0.05,0,0,0.05,33.9,0)" xlink:href="#aQ"/><use transform="matrix(0.05,0,0,0.05,43.9,0)" xlink:href="#aT"/></g></defs></g></svg>